<svg width="610" height="511" viewBox="0 0 610 511" fill="none" xmlns="http://www.w3.org/2000/svg">
<path d="M299.717 0C180.441 0 83.7549 96.7787 83.7549 216.169V267.75H515.678V216.169C515.678 96.7787 418.98 0 299.717 0Z" fill="#C2E9FF"/>
<path d="M94.2239 245.165C94.2239 218.763 114.59 209.798 129.887 211.057C145.171 212.316 145.438 193.787 159.871 184.91C175.028 175.575 193.946 181.731 209.065 173.681C222.012 166.788 226.281 150.319 236.674 139.967C244.551 132.133 255.858 128.191 266.963 128.42C278.054 128.648 288.879 132.845 297.9 139.318C301.317 141.773 304.544 144.609 306.768 148.17C308.763 151.374 309.881 155.037 310.872 158.687C314.416 171.798 316.589 185.279 317.339 198.848C317.936 209.861 317.478 221.421 312.155 231.086C301.915 249.679 279.21 245.012 261.296 245.025C240.93 245.037 220.564 245.063 200.197 245.076C165.576 245.101 130.954 245.126 96.3329 245.152C95.6087 245.165 94.9227 245.165 94.2239 245.165Z" fill="white"/>
<path d="M421.533 187.034L421.571 186.728C423.439 173.693 436.614 162.743 449.103 160.874C463.041 158.788 477.881 166.699 483.941 179.416C488.654 189.323 488.705 201.849 496.697 209.365C501.626 214.007 508.703 215.749 513.811 220.2C518.6 224.372 521.205 230.616 522.183 236.885C523.162 243.168 522.679 249.565 522.183 255.91C506.162 256.012 488.159 253.927 472.481 256.941C456.333 260.044 439.651 258.492 423.287 257.208C422.893 241.832 422.512 226.457 422.118 211.082C421.953 203.452 420.53 194.588 421.533 187.034Z" fill="white"/>
<path d="M260.61 87.6349H172.78C176.477 82.6497 180.123 78.0333 187.022 78.2114C189.296 78.275 191.672 78.8727 193.768 78.0079C195.128 77.4483 196.182 76.3292 197.199 75.2482C206.944 64.7819 219.534 50.4749 233.802 64.2605C236.483 66.8548 238.414 70.5937 241.984 71.7383C243.179 72.1325 244.436 72.1834 245.682 72.3614C253.241 73.4805 259.454 80.1571 260.61 87.6349Z" fill="white"/>
<path d="M276.009 53.3492C277.394 49.4959 281.256 46.6599 285.347 46.52C286.109 46.4946 286.91 46.5454 287.621 46.2657C288.65 45.8587 289.286 44.854 289.921 43.9384C292.081 40.7972 295.003 37.974 298.649 36.893C302.308 35.812 306.742 36.8421 308.864 40.0215C310.262 42.1198 310.795 45.1211 313.133 46.0367C313.667 46.2402 314.239 46.3165 314.785 46.4691C317.504 47.2576 320.82 50.6786 319.905 53.3492H276.009Z" fill="white"/>
<path d="M425.878 123.561C427.555 118.856 432.269 115.41 437.262 115.219C438.202 115.181 439.168 115.244 440.032 114.914C441.29 114.418 442.065 113.197 442.827 112.078C445.457 108.237 449.014 104.816 453.474 103.493C457.933 102.171 463.346 103.43 465.925 107.309C467.627 109.865 468.275 113.527 471.134 114.646C471.782 114.901 472.481 114.99 473.154 115.181C476.458 116.134 480.51 120.318 479.392 123.574H425.878V123.561Z" fill="white"/>
<path d="M129.239 141.289C130.688 137.232 134.753 134.257 139.048 134.104C139.848 134.078 140.687 134.129 141.436 133.837C142.516 133.404 143.189 132.349 143.85 131.395C146.112 128.089 149.186 125.125 153.023 123.994C156.86 122.849 161.536 123.943 163.759 127.275C165.233 129.475 165.792 132.629 168.244 133.595C168.803 133.811 169.413 133.888 169.985 134.053C172.843 134.88 176.324 138.479 175.359 141.289H129.239Z" fill="white"/>
<path d="M244.132 173.07H203.945C196.538 173.07 189.449 176.008 184.214 181.247L112.341 253.189H228.58L244.132 173.07Z" fill="#005983"/>
<path d="M378.412 173.07H418.598C426.006 173.07 433.095 176.008 438.329 181.247L510.202 253.189H393.963L378.412 173.07Z" fill="#005983"/>
<path d="M463.448 245.279H166.834L252.212 159.831C257.078 154.948 263.698 152.201 270.596 152.201H274.217C281.116 152.201 287.723 149.454 292.602 144.583L313.921 123.231C314.315 122.837 314.709 122.455 315.141 122.099C317.301 120.192 319.74 118.665 322.37 117.597C325.33 116.364 328.532 115.677 331.81 115.626C331.988 115.613 332.153 115.613 332.331 115.613C339.23 115.613 345.836 118.36 350.715 123.231L411.052 183.625L463.448 245.279Z" fill="#0C6B9A"/>
<path d="M331.797 115.626V245.279H193.121L315.141 122.099C317.3 120.191 319.74 118.665 322.37 117.597C325.33 116.364 328.532 115.677 331.797 115.626Z" fill="#005983"/>
<path d="M407.977 140.476H404.699L404.331 160.378C405.652 158.954 406.973 157.517 408.269 156.092L407.977 140.476Z" fill="#D4F2FF"/>
<path d="M404.318 160.378L403.454 206.796H409.197L408.256 156.08C406.96 157.529 405.639 158.954 404.318 160.378Z" fill="white"/>
<path d="M412.983 157.02C412.093 150.586 409.641 144.863 406.211 140.386L410.975 174.876C413.059 169.636 413.872 163.455 412.983 157.02Z" fill="white"/>
<path d="M417.214 126.194C412.093 130.187 408.358 135.172 406.211 140.387L433.667 119.009C428.076 119.81 422.334 122.201 417.214 126.194Z" fill="white"/>
<path d="M388.424 137.945C394.433 140.386 400.621 141.124 406.211 140.386L373.991 127.275C377.472 131.713 382.414 135.49 388.424 137.945Z" fill="white"/>
<path d="M405.944 143.375C404.293 143.235 403.073 141.772 403.225 140.119C403.378 138.466 404.826 137.245 406.478 137.398C408.129 137.55 409.349 139 409.197 140.653C409.044 142.307 407.583 143.527 405.944 143.375Z" fill="white"/>
<path d="M406.071 141.836C405.271 141.76 404.673 141.061 404.75 140.259C404.826 139.458 405.525 138.86 406.325 138.937C407.126 139.013 407.723 139.713 407.646 140.514C407.583 141.315 406.871 141.913 406.071 141.836Z" fill="#0068B3"/>
<path d="M408.32 107.042C418.001 107.652 426.78 112.459 432.548 119.873L433.26 119.314C427.327 111.696 418.319 106.749 408.371 106.139L408.32 107.042Z" fill="white"/>
<path d="M401.624 107.296C402.781 107.131 403.937 107.042 405.08 107.004L405.042 106.101C403.873 106.139 402.679 106.24 401.497 106.406L401.624 107.296Z" fill="white"/>
<path d="M379.225 160.06C376.633 156.512 374.715 152.404 373.686 147.902C373.47 146.936 373.279 145.956 373.152 144.965C372.339 139.115 373.101 133.417 375.096 128.279L374.258 127.949C372.199 133.226 371.424 139.076 372.263 145.079C372.403 146.096 372.593 147.114 372.822 148.093C373.889 152.709 375.858 156.931 378.514 160.581L379.225 160.06Z" fill="white"/>
<path d="M382.859 164.269C382.147 163.57 381.474 162.845 380.826 162.095L380.14 162.68C380.801 163.455 381.499 164.206 382.236 164.918L382.859 164.269Z" fill="white"/>
<path d="M434.454 158.191C429.88 165.453 422.562 170.908 413.72 172.943C412.754 173.159 411.776 173.35 410.785 173.477L410.912 174.38C411.928 174.24 412.932 174.049 413.923 173.821C423.007 171.735 430.528 166.127 435.229 158.661L434.454 158.191Z" fill="white"/>
<path d="M437.199 152.811C436.818 153.765 436.386 154.706 435.916 155.634L436.716 156.054C437.199 155.113 437.643 154.146 438.037 153.154L437.199 152.811Z" fill="white"/>
<path d="M323.577 194.143C302.308 207.661 283.2 224.944 266.963 245.152H241.527C262.554 220.429 291.052 202.244 323.577 194.143Z" fill="#31AE4A"/>
<path d="M392.68 192.426C368.426 205.117 346.827 223.138 329.104 245.164H298.027C316.627 222.031 339.204 203.032 364.576 189.475H364.589C374.194 189.615 383.57 190.632 392.68 192.426Z" fill="#31AE4A"/>
<path d="M433.959 206.796C417.938 216.957 403.517 229.942 391.27 245.151H360.193C375.579 226.025 394.128 210.153 414.888 198.542C421.457 200.882 427.822 203.629 433.959 206.796Z" fill="#31AE4A"/>
<path d="M467.539 229.942C462.533 234.634 457.806 239.734 453.436 245.164H422.346C430.91 234.558 440.616 225.109 451.263 217.097C456.968 221.027 462.406 225.3 467.539 229.942Z" fill="#31AE4A"/>
<path d="M364.576 189.475C339.204 203.032 316.627 222.031 298.027 245.164H266.95C283.187 224.956 302.296 207.674 323.564 194.155H323.577C335.863 191.078 348.707 189.45 361.959 189.45C362.836 189.45 363.712 189.462 364.576 189.475Z" fill="#78CA5A"/>
<path d="M414.889 198.542C394.128 210.153 375.592 226.024 360.193 245.151H329.091C346.814 223.138 368.413 205.104 392.667 192.413H392.68C400.303 193.939 407.71 195.973 414.889 198.542Z" fill="#78CA5A"/>
<path d="M451.263 217.097C440.629 225.109 430.91 234.558 422.346 245.164H391.27C403.517 229.941 417.938 216.957 433.959 206.809C439.956 209.861 445.736 213.307 451.263 217.097Z" fill="#78CA5A"/>
<path d="M482.378 245.164H453.436C457.819 239.734 462.545 234.634 467.538 229.941C472.824 234.66 477.766 239.759 482.378 245.164Z" fill="#78CA5A"/>
<path d="M314.607 245.165H142.542C163.238 220.811 194.112 205.372 228.581 205.372C263.037 205.359 293.91 220.811 314.607 245.165Z" fill="#31AE4A"/>
<path d="M37.0127 296.924V324.088C37.0127 352.753 60.225 376 88.875 376H520.138C548.775 376 572 352.766 572 324.088V296.924H37.0127Z" fill="#005983"/>
<path d="M522.196 348.836H86.7914C59.2975 348.836 37 326.53 37 298.997V294.851C37 267.331 59.2848 245.012 86.7914 245.012H522.196C549.69 245.012 571.987 267.318 571.987 294.851V298.997C571.975 326.517 549.69 348.836 522.196 348.836Z" fill="#90E463"/>
<path d="M96.1297 262.88C96.1297 266.046 87.757 268.602 77.4405 268.602C67.1112 268.602 58.7512 266.046 58.7512 262.88C58.7512 259.713 67.1239 257.157 77.4405 257.157C87.757 257.157 96.1297 259.726 96.1297 262.88Z" fill="#78CA5A"/>
<path d="M458.95 210.319C458.95 210.319 460.271 224.232 463.168 229.077C466.065 233.922 465.988 255.504 465.988 255.504H475.39C475.39 255.504 470.511 239.581 471.21 230.489C471.909 221.383 480.002 201.519 480.002 201.519L475.39 202.091L467.094 227.169C467.094 227.169 463.384 221.752 463.168 215.062C462.952 208.386 463.168 206.58 463.168 206.58L458.95 210.319Z" fill="white"/>
<path d="M482.492 206.491C467.373 212.544 449.599 212.366 435.407 205.969C439.435 211.082 446.639 214.07 452.254 215.787C461.224 218.521 470.88 218.242 480.015 216.614C483.306 216.029 486.583 215.278 489.607 213.803C495.718 210.84 500.419 204.926 502.071 198.123C503.037 194.117 502.935 189.856 501.855 185.889C498.514 195.427 491.869 203.362 482.492 206.491Z" fill="#78CA5A"/>
<path d="M482.492 206.491C491.881 203.362 498.514 195.427 501.855 185.889C501.105 183.116 499.898 180.484 498.247 178.182C495.655 174.558 492.059 171.696 490.103 167.665C486.05 159.284 483.89 150.993 474.666 146.885C468.415 144.087 461.974 146.058 456.764 150.433C451.543 154.833 448.125 161.472 447.502 168.428C447.337 170.259 447.35 172.129 446.791 173.871C445.838 176.809 443.411 178.907 441.201 180.993C436.068 185.851 431.316 192.553 432.523 199.674C432.93 202.078 433.972 204.151 435.394 205.969C449.599 212.366 467.373 212.544 482.492 206.491Z" fill="#90E463"/>
<path d="M99.9159 255.071C106.778 255.071 112.341 253.369 112.341 251.269C112.341 249.169 106.778 247.466 99.9159 247.466C93.0534 247.466 87.4902 249.169 87.4902 251.269C87.4902 253.369 93.0534 255.071 99.9159 255.071Z" fill="#78CA5A"/>
<path d="M565.965 284.308C565.965 287.475 557.592 290.031 547.276 290.031C536.959 290.031 528.587 287.475 528.587 284.308C528.587 281.142 536.959 278.585 547.276 278.585C557.592 278.585 565.965 281.142 565.965 284.308Z" fill="#78CA5A"/>
<path d="M530.924 264.838C530.924 266.86 525.588 268.488 518.994 268.488C512.4 268.488 507.064 266.847 507.064 264.838C507.064 262.816 512.4 261.188 518.994 261.188C525.576 261.188 530.924 262.816 530.924 264.838Z" fill="#78CA5A"/>
<path d="M519.388 290.629H454.948C451.784 290.629 449.23 288.072 449.23 284.906V284.435C449.23 281.269 451.784 278.712 454.948 278.712H519.388C522.552 278.712 525.105 281.269 525.105 284.435V284.906C525.105 288.072 522.539 290.629 519.388 290.629Z" fill="#78CA5A"/>
<path d="M511.295 303.549C511.295 306.131 510.342 308.471 508.767 310.264C506.912 312.401 504.167 313.736 501.105 313.736H500.559C497.739 313.736 495.198 314.881 493.368 316.725C491.526 318.569 490.382 321.112 490.382 323.935C490.382 329.569 485.821 334.135 480.206 334.135H327.388C324.568 334.135 322.027 332.99 320.185 331.146C318.342 329.302 317.199 326.746 317.199 323.935C317.199 318.302 312.65 313.736 307.022 313.736H268.411C265.591 313.736 263.05 312.591 261.207 310.76C261.055 310.608 260.89 310.43 260.75 310.264C259.187 308.471 258.234 306.131 258.234 303.549C258.234 297.916 262.783 293.363 268.411 293.363H285.563C288.384 293.363 290.925 292.218 292.767 290.374C294.596 288.53 295.74 285.987 295.74 283.164C295.74 277.53 300.301 272.964 305.929 272.964H435.674C438.495 272.964 441.036 274.109 442.878 275.953C444.707 277.797 445.851 280.353 445.851 283.164C445.851 288.797 450.412 293.363 456.04 293.363H501.08C506.734 293.363 511.295 297.916 511.295 303.549Z" fill="#0C6B9A"/>
<path d="M508.767 310.264C506.912 312.4 504.167 313.736 501.105 313.736H500.559C497.739 313.736 495.198 314.88 493.368 316.724C491.526 318.568 490.382 321.112 490.382 323.935C490.382 329.569 485.821 334.134 480.206 334.134H327.388C324.568 334.134 322.027 332.99 320.185 331.146C318.342 329.302 317.199 326.746 317.199 323.935C317.199 318.301 312.65 313.736 307.022 313.736H268.411C265.591 313.736 263.05 312.591 261.207 310.76C261.055 310.607 260.89 310.429 260.75 310.264C262.605 308.115 265.349 306.767 268.411 306.767H285.563C288.384 306.767 290.925 305.622 292.767 303.778C294.596 301.934 295.74 299.378 295.74 296.567C295.74 290.946 300.301 286.381 305.929 286.381H435.674C438.495 286.381 441.036 287.525 442.878 289.369C444.707 291.213 445.851 293.757 445.851 296.567C445.851 302.201 450.412 306.767 456.04 306.767H501.08C504.155 306.779 506.899 308.115 508.767 310.264Z" fill="#0C86BD"/>
<path d="M439.879 288.391H439.244C439.244 288.518 439.193 288.658 439.028 288.874C438.723 289.243 438.012 289.7 436.995 290.095C433.921 291.316 428.114 292.18 421.521 292.18C416.489 292.18 411.941 291.684 408.688 290.896C407.062 290.502 405.766 290.044 404.915 289.561C404.496 289.319 404.191 289.077 404.013 288.874C403.835 288.658 403.797 288.518 403.797 288.391C403.797 288.263 403.848 288.124 404.013 287.907C404.318 287.539 405.029 287.081 406.046 286.686C409.12 285.466 414.927 284.601 421.521 284.601C426.552 284.601 431.1 285.097 434.353 285.885C435.979 286.28 437.275 286.737 438.126 287.221C438.545 287.462 438.85 287.704 439.028 287.907C439.206 288.124 439.244 288.263 439.244 288.391H439.879H440.515C440.515 287.895 440.299 287.45 439.994 287.081C439.435 286.445 438.584 285.949 437.453 285.491C434.086 284.168 428.229 283.316 421.521 283.316C416.413 283.316 411.776 283.812 408.383 284.626C406.681 285.033 405.296 285.529 404.28 286.101C403.771 286.394 403.352 286.699 403.035 287.068C402.717 287.437 402.514 287.882 402.514 288.378C402.514 288.874 402.73 289.319 403.035 289.688C403.581 290.324 404.445 290.82 405.576 291.277C408.942 292.6 414.8 293.452 421.521 293.452C426.628 293.452 431.265 292.956 434.658 292.142C436.36 291.735 437.745 291.239 438.761 290.667C439.27 290.375 439.689 290.069 440.006 289.7C440.324 289.332 440.527 288.887 440.527 288.391H439.879Z" fill="white"/>
<path d="M447.769 293.286C441.15 294.749 431.837 295.677 421.533 295.677C411.42 295.677 402.26 294.787 395.666 293.375C392.375 292.663 389.72 291.824 387.941 290.921C387.052 290.463 386.391 290.005 385.972 289.56C385.552 289.115 385.4 288.746 385.4 288.403C385.4 288.06 385.552 287.691 385.972 287.246C386.696 286.47 388.195 285.643 390.304 284.893C396.619 282.655 408.269 281.116 421.533 281.116C429.131 281.116 436.195 281.612 442.039 282.464C442.382 282.515 442.713 282.273 442.763 281.93C442.814 281.586 442.573 281.256 442.23 281.205C436.322 280.34 429.207 279.844 421.546 279.844C411.356 279.844 402.133 280.734 395.412 282.171C392.057 282.896 389.326 283.761 387.382 284.74C386.416 285.236 385.629 285.758 385.07 286.355C384.511 286.94 384.142 287.627 384.142 288.39C384.142 289.141 384.498 289.84 385.07 290.425C386.061 291.455 387.7 292.307 389.898 293.096C396.479 295.423 408.18 296.936 421.559 296.949C431.939 296.949 441.328 296.033 448.074 294.533C448.417 294.456 448.633 294.113 448.557 293.77C448.443 293.426 448.112 293.21 447.769 293.286Z" fill="white"/>
<path d="M399.833 299.187C388.411 298.462 378.539 296.962 371.564 294.978C368.083 293.986 365.313 292.879 363.471 291.722C362.556 291.15 361.87 290.552 361.425 289.993C360.981 289.42 360.803 288.912 360.79 288.403C360.79 287.92 360.955 287.436 361.349 286.902C362.035 285.974 363.407 284.969 365.389 284.041C371.335 281.23 382.541 278.954 396.339 277.86C396.682 277.835 396.949 277.53 396.923 277.174C396.898 276.83 396.593 276.563 396.237 276.589C385.654 277.428 376.595 278.941 370.128 280.912C366.901 281.892 364.309 282.985 362.48 284.194C361.565 284.804 360.841 285.44 360.333 286.139C359.824 286.826 359.52 287.602 359.52 288.403C359.52 289.242 359.85 290.056 360.422 290.781C361.413 292.053 363.115 293.147 365.402 294.177C372.275 297.229 384.663 299.505 399.744 300.472C400.1 300.497 400.392 300.23 400.417 299.874C400.455 299.505 400.189 299.2 399.833 299.187Z" fill="white"/>
<path d="M439.879 326.097H472.582C472.582 310.531 461.237 309.463 455.164 310.264C449.091 311.066 439.879 319.383 439.879 326.097Z" fill="#005983"/>
<path d="M460.03 328.17H479.596C479.596 318.861 472.798 318.225 469.165 318.696C465.531 319.179 460.03 324.152 460.03 328.17Z" fill="#00466A"/>
<path d="M305.167 300.447H334.897C335.253 300.447 335.532 300.167 335.532 299.811C335.532 299.455 335.253 299.175 334.897 299.175H305.167C304.811 299.175 304.532 299.455 304.532 299.811C304.532 300.167 304.811 300.447 305.167 300.447Z" fill="white"/>
<path d="M340.246 300.434H349.089C349.444 300.434 349.724 300.154 349.724 299.798C349.724 299.442 349.444 299.162 349.089 299.162H340.246C339.89 299.162 339.611 299.442 339.611 299.798C339.611 300.154 339.903 300.434 340.246 300.434Z" fill="white"/>
<path d="M362.239 316H399.795C400.151 316 400.43 315.72 400.43 315.364C400.43 315.008 400.151 314.728 399.795 314.728H362.239C361.883 314.728 361.603 315.008 361.603 315.364C361.603 315.707 361.883 316 362.239 316Z" fill="white"/>
<path d="M404.318 316H410.454C410.81 316 411.09 315.72 411.09 315.364C411.09 315.008 410.81 314.728 410.454 314.728H404.318C403.962 314.728 403.683 315.008 403.683 315.364C403.683 315.707 403.975 316 404.318 316Z" fill="white"/>
<path d="M367.333 322.244H349.101C348.746 322.244 348.466 322.524 348.466 322.88C348.466 323.236 348.746 323.516 349.101 323.516H367.333C367.689 323.516 367.968 323.236 367.968 322.88C367.968 322.524 367.676 322.244 367.333 322.244Z" fill="white"/>
<path d="M460.233 304.185C460.614 304.185 479.38 304.185 479.38 304.185C479.735 304.185 480.015 303.906 480.015 303.549C480.015 303.193 479.735 302.914 479.38 302.914C479.38 302.914 460.614 302.914 460.233 302.914C459.877 302.914 459.598 303.193 459.598 303.549C459.598 303.906 459.89 304.185 460.233 304.185Z" fill="white"/>
<path d="M564.098 314.461H515.894C516.199 311.345 517.089 308.395 518.473 305.737L528.892 310.43L519.63 303.74C521.497 300.815 523.987 298.323 526.91 296.453L533.593 305.724L528.904 295.296C531.915 293.732 535.282 292.791 538.852 292.638L539.996 304.007L541.139 292.638C544.71 292.804 548.089 293.745 551.087 295.296L546.399 305.724L553.082 296.453C556.004 298.336 558.482 300.815 560.375 303.74L551.113 310.43L561.531 305.737C562.903 308.395 563.793 311.345 564.098 314.461Z" fill="#31AE4A"/>
<path d="M372.174 113.209H367.562L367.041 141.149C368.896 139.14 370.738 137.143 372.568 135.121L372.174 113.209Z" fill="#D4F2FF"/>
<path d="M367.041 141.137L365.834 206.3H373.902L372.58 135.122C370.751 137.131 368.896 139.14 367.041 141.137Z" fill="white"/>
<path d="M394.56 109.026C385.489 108.224 376.887 109.776 369.696 113.082L418.332 117.394C411.826 112.879 403.632 109.827 394.56 109.026Z" fill="white"/>
<path d="M353.751 93.5487C357.588 101.815 363.242 108.492 369.683 113.083L349.088 68.7627C348.441 76.6601 349.902 85.2825 353.751 93.5487Z" fill="white"/>
<path d="M360.765 136.66C365.999 129.195 368.947 120.967 369.696 113.083L341.643 153.091C348.796 149.708 355.53 144.125 360.765 136.66Z" fill="white"/>
<path d="M369.315 117.279C367.003 117.076 365.288 115.028 365.491 112.714C365.694 110.399 367.74 108.683 370.052 108.886C372.364 109.089 374.08 111.137 373.876 113.452C373.673 115.766 371.628 117.483 369.315 117.279Z" fill="white"/>
<path d="M369.506 115.117C368.388 115.016 367.549 114.024 367.651 112.905C367.752 111.786 368.743 110.946 369.861 111.048C370.979 111.15 371.818 112.142 371.716 113.261C371.627 114.38 370.636 115.219 369.506 115.117Z" fill="#0068B3"/>
<path d="M324.771 99.6911C328.633 86.6304 337.972 76.1132 349.927 70.543L349.393 69.3857C337.12 75.1085 327.528 85.9055 323.564 99.3223L324.771 99.6911Z" fill="white"/>
<path d="M323.018 108.936C323.157 107.296 323.386 105.694 323.691 104.117L322.446 103.875C322.128 105.49 321.9 107.143 321.747 108.835L323.018 108.936Z" fill="white"/>
<path d="M388.106 156.207C382.439 158.636 376.227 159.971 369.747 159.971C368.362 159.971 366.965 159.907 365.554 159.78C357.309 159.055 349.749 156.219 343.371 151.87L342.66 152.926C349.216 157.389 356.991 160.302 365.453 161.052C366.901 161.179 368.324 161.243 369.747 161.243C376.392 161.243 382.782 159.869 388.601 157.377L388.106 156.207Z" fill="white"/>
<path d="M394.992 152.544C393.823 153.295 392.616 154.007 391.371 154.656L391.956 155.787C393.226 155.126 394.471 154.401 395.678 153.625L394.992 152.544Z" fill="white"/>
<path d="M402.895 79.9923C411.382 88.5383 416.553 100.276 416.553 113.032C416.553 114.418 416.489 115.817 416.362 117.216L417.633 117.33C417.76 115.881 417.823 114.456 417.823 113.032C417.823 99.933 412.525 87.877 403.797 79.1021L402.895 79.9923Z" fill="white"/>
<path d="M396.402 74.5492C397.597 75.3758 398.74 76.266 399.845 77.1944L400.659 76.2279C399.528 75.2741 398.346 74.3584 397.114 73.5063L396.402 74.5492Z" fill="white"/>
<path d="M99.3439 163.837C99.3439 163.837 75.2296 241.934 99.3439 241.934C123.446 241.934 99.3439 163.837 99.3439 163.837Z" fill="#90E463"/>
<path d="M100.233 181.603H98.4419V251.65H100.233V181.603Z" fill="white"/>
<path d="M508.144 154.592L511.841 157.529L515.665 160.531L511.435 159.234L508.144 158.216" fill="#78CA5A"/>
<path d="M518.994 250.607C504.18 250.607 501.258 231.366 503.062 208.309L513.442 209.645L503.342 205.105C504.815 189.691 508.195 172.917 511.447 159.233L515.678 160.531L511.854 157.529C515.577 142.103 518.994 131.014 518.994 131.014C518.994 131.014 526.376 154.909 531.229 181.349L523.86 185.1H531.89C533.516 194.511 534.774 204.113 535.206 212.939L525.487 218.623L535.371 217.44C535.714 236.224 531.788 250.607 518.994 250.607Z" fill="#78CA5A"/>
<path d="M517.622 159.577V265.499H520.354V159.577C520.354 158.826 519.744 158.203 518.982 158.203C518.232 158.216 517.622 158.826 517.622 159.577Z" fill="white"/>
<path d="M426.971 171.696C426.971 171.696 408.485 231.569 426.971 231.569C445.444 231.569 426.971 171.696 426.971 171.696Z" fill="#90E463"/>
<path d="M427.657 185.316H426.285V239.022H427.657V185.316Z" fill="white"/>
<path d="M334.884 163.837C334.884 163.837 316.398 223.71 334.884 223.71C353.37 223.71 334.884 163.837 334.884 163.837Z" fill="#90E463"/>
<path d="M335.583 177.457H334.211V231.162H335.583V177.457Z" fill="white"/>
<path d="M322.7 158.966C322.7 158.966 309.309 202.345 322.7 202.345C336.091 202.345 322.7 158.966 322.7 158.966Z" fill="#90E463"/>
<path d="M323.196 168.835H322.205V207.75H323.196V168.835Z" fill="white"/>
<path d="M563.221 229.941L571.327 228.314C570.704 250.226 564.847 266.199 549.131 266.199C535.269 266.199 529.082 253.761 527.38 235.791L540.237 238.653L527.049 231.048C526.465 219.475 527.456 206.008 529.311 192.273L545.777 195.923L530.086 186.893C532.525 170.628 536.019 154.274 539.335 140.437L547.289 140.882L540.263 136.647C544.989 117.47 549.143 104.002 549.143 104.002C549.143 104.002 557.834 132.133 564.364 164.981V164.994C559.701 167.945 554.467 171.289 554.467 171.289L565.279 169.776C567.731 182.659 569.751 196.088 570.742 208.678L558.761 217.084L571.136 214.732C571.314 218.051 571.403 221.306 571.403 224.448L563.221 229.941Z" fill="#31AE4A"/>
<path d="M547.276 142.739V286.381H550.986V142.739C550.986 141.709 550.16 140.882 549.131 140.882C548.102 140.882 547.276 141.722 547.276 142.739Z" fill="white"/>
<path d="M78.8253 249.438C78.3806 249.488 77.8978 249.501 77.4277 249.501C76.9576 249.501 76.4875 249.488 76.0429 249.438C66.4505 248.636 62.1434 239.289 60.9873 226.101L71.4436 227.17L60.7332 221.765C60.3139 210.637 61.7369 197.386 63.9095 184.389L73.3748 189.475L64.3541 181.845C69.2837 153.574 77.4404 127.173 77.4404 127.173C77.4404 127.173 87.6807 160.366 92.1656 192.184L83.7676 205.359L93.1439 199.98C95.9137 225.465 94.0206 248.14 78.8253 249.438Z" fill="#31AE4A"/>
<path d="M76.03 156.398V264.737H78.8251V156.398C78.8251 155.622 78.2026 154.999 77.4276 154.999C76.6653 154.999 76.03 155.622 76.03 156.398Z" fill="white"/>
<path d="M507.102 285.402C506.81 286.673 506.632 287.424 506.632 287.424H502.706C502.706 287.424 502.897 286.648 503.189 285.402C504.383 280.404 507.331 267.686 507.026 265.906C506.823 264.787 503.088 260.641 499.378 256.737C495.617 252.794 491.92 249.132 491.92 249.132L504.409 245.482C503.113 248.725 509.478 258.021 511.092 259.942C512.413 261.544 508.487 279.323 507.102 285.402Z" fill="#83C5FF"/>
<path d="M512.286 232.027C513.201 237.636 518.245 239.251 518.753 242.583C519.261 245.915 517.241 246.322 512.642 243.397C508.055 240.472 509.872 232.689 509.872 232.689L512.286 232.027Z" fill="#83C5FF"/>
<path d="M461.834 250.658L461.567 252.159L455.545 285.402L455.176 287.437H452.75L452.813 285.402L453.766 256.495L453.957 250.658H461.834Z" fill="#83C5FF"/>
<path d="M420.148 289.598H420.746C422.41 289.598 423.973 288.886 425.078 287.665C423.388 287.538 421.698 287.513 420.161 287.208V289.598H420.148Z" fill="#005983"/>
<path d="M512.642 234.749C512.642 238.157 508.182 241.756 504.396 245.495C501.601 248.254 499.174 251.103 499.174 253.99C499.174 254.982 499.251 255.897 499.378 256.737C500.038 261.595 502.351 263.884 502.351 265.957C502.351 267.852 496.239 280.137 493.571 285.389C492.834 286.864 492.364 287.767 492.364 287.767H487.829C487.829 287.767 488.337 286.839 489.15 285.389C491.92 280.327 498.158 268.856 498.272 267.928C498.425 266.707 489.645 251.256 489.645 251.256H469.66V287.78H466.776L466.471 285.402L462.088 251.866L461.567 252.146L453.779 256.483L444.39 261.709L425.459 287.22C425.345 287.373 425.218 287.513 425.091 287.653C424.722 287.627 424.367 287.602 423.998 287.576C422.677 287.5 421.368 287.436 420.161 287.195V272.481L417.9 265.054C417.9 265.054 422.435 265.499 422.435 268.831C422.435 268.831 444.39 232.32 446.804 228.237C449.23 224.142 454.897 223.138 462.85 222.019C471.477 220.81 496.151 220.505 501.601 220.81C507.039 221.116 512.642 228.848 512.642 234.749Z" fill="#9DDBFF"/>
<path d="M489.633 251.268C487.574 247.936 492.466 239.785 492.466 239.785H469.66L469.647 251.268H489.633Z" fill="#83C5FF"/>
<path d="M462.088 251.879L444.377 261.735L425.446 287.246C425.332 287.398 425.205 287.538 425.078 287.678C424.71 287.653 424.354 287.627 423.985 287.602C429.233 278.852 443.005 255.809 443.005 255.211C443.005 254.461 460.614 242.01 460.614 242.01L462.088 251.879Z" fill="#83C5FF"/>
<path d="M422.88 277.657C423.371 277.657 423.769 277.258 423.769 276.767C423.769 276.275 423.371 275.876 422.88 275.876C422.389 275.876 421.991 276.275 421.991 276.767C421.991 277.258 422.389 277.657 422.88 277.657Z" fill="#005983"/>
<path d="M424.227 269.518C424.074 268.348 423.655 267.14 423.071 265.957C422.194 264.189 420.923 262.447 419.437 260.985C418.98 260.539 418.497 260.107 417.988 259.726C417.887 258.67 417.62 257.589 417.264 256.534C416.019 252.795 413.77 249.31 413.745 249.259C413.389 248.7 412.64 248.534 412.068 248.89C411.509 249.247 411.344 249.997 411.699 250.569L411.712 250.582C411.814 250.734 412.767 252.273 413.72 254.244C414.19 255.224 414.66 256.33 415.003 257.398C415.066 257.602 415.13 257.805 415.193 258.009C414.939 257.894 414.672 257.793 414.406 257.704C413.084 257.258 411.598 257.042 410.111 256.979C409.425 255.847 408.549 254.982 407.812 254.397C406.922 253.698 406.211 253.329 406.16 253.303C405.563 252.998 404.839 253.24 404.534 253.85C404.229 254.448 404.483 255.173 405.067 255.478C405.093 255.491 405.677 255.796 406.363 256.355C406.617 256.559 406.872 256.801 407.126 257.068C406.3 257.144 405.512 257.271 404.788 257.436C404.14 257.589 403.53 257.78 402.996 258.009C402.463 258.25 401.98 258.517 401.586 258.924C401.116 259.395 401.116 260.171 401.586 260.641C402.056 261.112 402.831 261.112 403.301 260.641C403.378 260.565 403.619 260.387 403.975 260.234C404.508 259.993 405.309 259.776 406.211 259.624C407.113 259.471 408.142 259.382 409.184 259.382C410.772 259.382 412.386 259.586 413.631 260.018C415.435 260.616 417.442 262.193 418.979 264.088C419.755 265.029 420.415 266.059 420.911 267.051C421.406 268.055 421.724 269.022 421.825 269.861C421.914 270.523 422.524 270.993 423.185 270.904C423.846 270.79 424.316 270.179 424.227 269.518Z" fill="#005983"/>
<path d="M452.813 285.402H455.545L455.176 287.437H452.75L452.813 285.402Z" fill="#005983"/>
<path d="M466.471 285.402H469.647V287.793H466.776L466.471 285.402Z" fill="#005983"/>
<path d="M489.137 285.402H493.571C492.834 286.877 492.364 287.78 492.364 287.78H487.829C487.829 287.793 488.337 286.864 489.137 285.402Z" fill="#005983"/>
<path d="M507.102 285.402C506.81 286.674 506.632 287.424 506.632 287.424H502.706C502.706 287.424 502.897 286.648 503.189 285.402H507.102Z" fill="#005983"/>
<path d="M321.302 222.248C337.743 232.702 352.506 246.055 365.059 261.672H384.714C368.477 242.558 346.433 228.505 321.302 222.248Z" fill="#31AE4A"/>
<path d="M267.89 220.913C286.643 230.718 303.337 244.656 317.034 261.672H341.046C326.664 243.791 309.22 229.103 289.603 218.624H289.59C282.183 218.738 274.929 219.526 267.89 220.913Z" fill="#31AE4A"/>
<path d="M235.975 232.028C248.362 239.874 259.505 249.921 268.97 261.684H292.983C281.091 246.894 266.759 234.635 250.7 225.656C245.643 227.449 240.727 229.573 235.975 232.028Z" fill="#31AE4A"/>
<path d="M210.031 249.908C213.893 253.532 217.552 257.475 220.932 261.671H244.957C238.338 253.469 230.829 246.169 222.609 239.976C218.2 243.015 213.995 246.322 210.031 249.908Z" fill="#31AE4A"/>
<path d="M289.603 218.636C309.207 229.115 326.664 243.804 341.046 261.684H365.059C352.506 246.055 337.743 232.701 321.303 222.261H321.29C311.799 219.882 301.864 218.623 291.623 218.623C290.963 218.611 290.277 218.623 289.603 218.636Z" fill="#78CA5A"/>
<path d="M250.713 225.643C266.759 234.622 281.091 246.894 292.996 261.672H317.034C303.338 244.656 286.643 230.718 267.89 220.913H267.878C261.995 222.083 256.265 223.66 250.713 225.643Z" fill="#78CA5A"/>
<path d="M222.609 239.976C230.829 246.169 238.338 253.469 244.957 261.671H268.97C259.492 249.908 248.362 239.874 235.975 232.015C231.338 234.393 226.865 237.051 222.609 239.976Z" fill="#78CA5A"/>
<path d="M198.558 261.672H220.932C217.553 257.475 213.893 253.533 210.031 249.908C205.94 253.558 202.116 257.5 198.558 261.672Z" fill="#78CA5A"/>
<path d="M257.281 153.078C257.281 153.078 231.198 237.559 257.281 237.559C283.365 237.572 257.281 153.078 257.281 153.078Z" fill="#90E463"/>
<path d="M258.247 172.294H256.316V248.076H258.247V172.294Z" fill="white"/>
<path d="M209.663 184.948C210.184 192.324 208.481 199.827 204.822 206.25C201.328 212.405 196.17 217.454 192.371 223.418C186.679 232.346 184.214 243.283 185.523 253.787C181.889 253.876 178.256 253.978 174.635 254.067C178.611 237.038 182.207 219.209 178.052 202.218C179.209 202.231 180.352 202.256 181.508 202.269C182.804 208.831 183.427 215.521 183.363 222.21C192.498 218.14 199.486 209.544 201.608 199.764C201.786 198.925 201.328 197.589 200.579 198.009L209.663 184.948Z" fill="white"/>
<path d="M159.173 204.189C179.018 208.157 200.197 208.157 218.721 200.222C224.972 197.093 230.334 192.489 233.409 186.97C230.461 183.168 225.277 181.858 221.72 178.602C214.719 172.18 215.024 161.243 207.198 155.317C200.642 150.344 191.571 149.658 183.96 151.718C175.156 154.109 169.413 160.035 164.204 167.144C159.465 173.604 152.172 175.69 147.128 181.54C144.308 184.808 143.291 189.297 143.85 193.609C147.484 198.81 153.836 202.854 159.173 204.189Z" fill="#90E463"/>
<path d="M233.421 186.958C230.334 192.477 224.972 197.081 218.734 200.209C200.21 208.157 179.031 208.157 159.185 204.177C153.836 202.841 147.484 198.797 143.863 193.596C144.117 195.516 144.676 197.411 145.527 199.141C148.31 204.736 153.697 208.717 159.566 210.866C168.434 214.109 179.412 214.503 188.788 214.974C199.155 215.495 209.726 214.745 219.573 211.235C224.693 209.404 229.737 206.695 232.888 202.256C236.038 197.818 236.775 191.345 233.485 187.021L233.421 186.958Z" fill="#78CA5A"/>
<path d="M364.525 263.274H333.665C333.855 261.277 334.427 259.395 335.316 257.691L341.986 260.692L336.053 256.406C337.247 254.537 338.848 252.934 340.716 251.739L344.985 257.678L341.986 251.001C343.918 249.997 346.065 249.399 348.352 249.297L349.089 256.572L349.825 249.297C352.112 249.399 354.272 250.01 356.203 251.001L353.205 257.678L357.487 251.739C359.354 252.947 360.942 254.537 362.149 256.406L356.216 260.692L362.886 257.691C363.763 259.395 364.335 261.277 364.525 263.274Z" fill="white"/>
<path d="M391.41 266.021H352.405C352.646 263.503 353.37 261.112 354.488 258.963L362.925 262.765L355.429 257.36C356.941 254.995 358.961 252.973 361.324 251.459L366.723 258.963L362.925 250.531C365.364 249.272 368.083 248.509 370.967 248.382L371.894 257.576L372.822 248.382C375.706 248.509 378.438 249.272 380.877 250.531L377.078 258.963L382.478 251.459C384.841 252.985 386.848 254.995 388.373 257.36L380.877 262.765L389.3 258.963C390.444 261.112 391.168 263.49 391.41 266.021Z" fill="#78CA5A"/>
<path d="M103.257 327.407H64.2397C64.4811 324.889 65.2053 322.498 66.3234 320.349L74.7596 324.151L67.2636 318.746C68.7755 316.381 70.7956 314.359 73.1587 312.846L78.5584 320.349L74.7596 311.917C77.199 310.658 79.9179 309.895 82.8146 309.768L83.7421 318.963L84.6696 309.768C87.5536 309.895 90.2852 310.658 92.7246 311.917L88.9258 320.349L94.3255 312.846C96.6886 314.372 98.696 316.381 100.221 318.746L92.7246 324.151L101.148 320.349C102.292 322.498 103.016 324.889 103.257 327.407Z" fill="#31AE4A"/>
<path d="M171.725 250.696H134.524C134.753 248.293 135.452 246.016 136.506 243.969L144.549 247.593L137.396 242.43C138.844 240.179 140.763 238.246 143.024 236.809L148.182 243.969L144.561 235.919C146.887 234.71 149.478 233.986 152.235 233.858L153.125 242.633L154.014 233.858C156.771 233.986 159.376 234.71 161.688 235.919L158.067 243.969L163.225 236.809C165.474 238.259 167.393 240.179 168.841 242.43L161.688 247.593L169.73 243.969C170.798 246.016 171.496 248.293 171.725 250.696Z" fill="#78CA5A"/>
<path d="M234.412 280.926H230.842C229.978 280.926 229.279 280.226 229.279 279.361V279.234C229.279 278.369 229.978 277.67 230.842 277.67H234.412C235.276 277.67 235.975 278.369 235.975 279.234V279.361C235.975 280.226 235.276 280.926 234.412 280.926Z" fill="#78CA5A"/>
<path d="M269.034 280.926H241.845C240.981 280.926 240.282 280.226 240.282 279.361V279.234C240.282 278.369 240.981 277.67 241.845 277.67H269.034C269.898 277.67 270.596 278.369 270.596 279.234V279.361C270.596 280.226 269.898 280.926 269.034 280.926Z" fill="#78CA5A"/>
<path d="M138.539 329.658H134.969C134.105 329.658 133.406 328.959 133.406 328.094V327.967C133.406 327.102 134.105 326.402 134.969 326.402H138.539C139.403 326.402 140.102 327.102 140.102 327.967V328.094C140.102 328.946 139.403 329.658 138.539 329.658Z" fill="#78CA5A"/>
<path d="M173.161 329.658H145.972C145.108 329.658 144.409 328.959 144.409 328.094V327.967C144.409 327.102 145.108 326.402 145.972 326.402H173.161C174.025 326.402 174.724 327.102 174.724 327.967V328.094C174.724 328.946 174.025 329.658 173.161 329.658Z" fill="#78CA5A"/>
<path d="M509.58 329.658H505.997C505.133 329.658 504.434 328.959 504.434 328.094V327.967C504.434 327.102 505.133 326.402 505.997 326.402H509.58C510.444 326.402 511.142 327.102 511.142 327.967V328.094C511.142 328.946 510.444 329.658 509.58 329.658Z" fill="#78CA5A"/>
<path d="M544.201 329.658H517.012C516.148 329.658 515.449 328.959 515.449 328.094V327.967C515.449 327.102 516.148 326.402 517.012 326.402H544.201C545.065 326.402 545.764 327.102 545.764 327.967V328.094C545.764 328.946 545.065 329.658 544.201 329.658Z" fill="#78CA5A"/>
<path d="M305.167 334.147H229.267C229.737 329.238 231.147 324.597 233.32 320.413L249.735 327.801L235.136 317.271C238.084 312.668 242.01 308.738 246.609 305.788L257.116 320.4L249.735 303.982C254.474 301.527 259.772 300.04 265.4 299.785L267.204 317.678L269.008 299.785C274.624 300.04 279.947 301.527 284.686 303.982L277.305 320.4L287.812 305.788C292.411 308.751 296.324 312.668 299.285 317.271L284.686 327.801L301.089 320.413C303.287 324.597 304.697 329.238 305.167 334.147Z" fill="#78CA5A"/>
<path d="M258.222 339.069H209.383C209.688 335.915 210.59 332.927 211.988 330.23L222.546 334.987L213.156 328.221C215.05 325.258 217.578 322.727 220.538 320.832L227.297 330.23L222.546 319.662C225.595 318.085 229 317.132 232.621 316.966L233.79 328.488L234.958 316.966C238.579 317.132 241.997 318.085 245.046 319.662L240.295 330.23L247.054 320.832C250.014 322.74 252.53 325.258 254.435 328.221L245.046 334.987L255.604 330.23C257.015 332.927 257.917 335.915 258.222 339.069Z" fill="#31AE4A"/>
<path d="M134.677 283.367H77.5293L84.822 294.584H141.957L134.677 283.367Z" fill="#78CA5A"/>
<path d="M111.122 289.522H111.007C110.22 289.522 109.572 288.886 109.572 288.085V272.087H112.557V288.085C112.557 288.886 111.91 289.522 111.122 289.522Z" fill="white"/>
<path d="M90.0567 277.657H137.231L127.041 258.25H79.8799L90.0567 277.657Z" fill="#002E60"/>
<path d="M90.0567 277.657H137.231L127.041 258.25H79.8799L90.0567 277.657Z" fill="#0C6B9A"/>
<path d="M129.188 262.333H82.0143L81.811 261.938H128.985" fill="#A4D6EF"/>
<path d="M131.221 266.212H84.0597L83.8438 265.817H131.018" fill="#A4D6EF"/>
<path d="M133.254 270.103H86.0927L85.8894 269.709H133.051" fill="#A4D6EF"/>
<path d="M135.3 273.982H88.1254L87.9221 273.587H135.096" fill="#A4D6EF"/>
<path d="M117.868 258.25L128.058 277.657H127.6L117.424 258.25" fill="#A4D6EF"/>
<path d="M108.466 258.25L118.656 277.657H118.211L108.022 258.25" fill="#A4D6EF"/>
<path d="M99.0773 258.25L109.254 277.657H108.809L98.6199 258.25" fill="#A4D6EF"/>
<path d="M89.6754 258.25L99.8522 277.657H99.4075L89.218 258.25" fill="#A4D6EF"/>
<path d="M122.569 258.25L132.758 277.657H132.301L122.124 258.25" fill="#123E65"/>
<path d="M113.167 258.25L123.357 277.657H122.912L112.723 258.25" fill="#123E65"/>
<path d="M103.765 258.25L113.955 277.657H113.51L103.321 258.25" fill="#123E65"/>
<path d="M94.3763 258.25L104.553 277.657H104.108L93.9189 258.25" fill="#123E65"/>
<path d="M84.9747 258.25L95.1515 277.657H94.7068L84.5173 258.25" fill="#123E65"/>
<path d="M137.231 277.657L135.693 279.73H88.5193L90.0566 277.657H137.231Z" fill="#004D77"/>
<path d="M88.5193 279.73L90.0567 277.657L79.8798 258.25L78.3425 260.323L88.5193 279.73Z" fill="#123E65"/>
<path d="M195.979 283.367H138.832L146.124 294.584H203.259L195.979 283.367Z" fill="#78CA5A"/>
<path d="M172.424 289.522H172.31C171.522 289.522 170.874 288.886 170.874 288.085V272.087H173.86V288.085C173.86 288.886 173.212 289.522 172.424 289.522Z" fill="white"/>
<path d="M151.359 277.657H198.533L188.344 258.25H141.182L151.359 277.657Z" fill="#002E60"/>
<path d="M151.359 277.657H198.533L188.344 258.25H141.182L151.359 277.657Z" fill="#0C6B9A"/>
<path d="M190.491 262.333H143.317L143.113 261.938H190.287" fill="#A4D6EF"/>
<path d="M192.523 266.212H145.362L145.146 265.817H192.32" fill="#A4D6EF"/>
<path d="M194.556 270.103H147.395L147.192 269.709H194.353" fill="#A4D6EF"/>
<path d="M196.602 273.982H149.428L149.224 273.587H196.398" fill="#A4D6EF"/>
<path d="M179.171 258.25L189.36 277.657H188.903L178.726 258.25" fill="#A4D6EF"/>
<path d="M169.769 258.25L179.958 277.657H179.513L169.324 258.25" fill="#A4D6EF"/>
<path d="M160.38 258.25L170.556 277.657H170.112L159.922 258.25" fill="#A4D6EF"/>
<path d="M150.978 258.25L161.154 277.657H160.71L150.52 258.25" fill="#A4D6EF"/>
<path d="M183.871 258.25L194.061 277.657H193.604L183.427 258.25" fill="#123E65"/>
<path d="M174.47 258.25L184.659 277.657H184.214L174.025 258.25" fill="#123E65"/>
<path d="M165.068 258.25L175.257 277.657H174.813L164.623 258.25" fill="#123E65"/>
<path d="M155.679 258.25L165.855 277.657H165.411L155.221 258.25" fill="#123E65"/>
<path d="M146.277 258.25L156.454 277.657H156.009L145.82 258.25" fill="#123E65"/>
<path d="M198.533 277.657L196.996 279.73H149.822L151.359 277.657H198.533Z" fill="#004D77"/>
<path d="M149.822 279.73L151.359 277.657L141.182 258.25L139.645 260.323L149.822 279.73Z" fill="#123E65"/>
<path d="M160.138 298.374H102.99L110.283 309.59H167.418L160.138 298.374Z" fill="#78CA5A"/>
<path d="M136.583 304.529H136.469C135.681 304.529 135.033 303.893 135.033 303.092V287.093H138.019V303.092C138.019 303.88 137.371 304.529 136.583 304.529Z" fill="white"/>
<path d="M115.518 292.663H162.692L152.502 273.257H105.341L115.518 292.663Z" fill="#002E60"/>
<path d="M115.518 292.663H162.692L152.502 273.257H105.341L115.518 292.663Z" fill="#0C6B9A"/>
<path d="M154.65 277.339H107.476L107.272 276.945H154.446" fill="#A4D6EF"/>
<path d="M156.682 281.218H109.521L109.305 280.824H156.479" fill="#A4D6EF"/>
<path d="M158.715 285.097H111.554L111.351 284.703H158.512" fill="#A4D6EF"/>
<path d="M160.761 288.975H113.587L113.383 288.581H160.545" fill="#A4D6EF"/>
<path d="M143.329 273.257L153.519 292.663H153.062L142.885 273.257" fill="#A4D6EF"/>
<path d="M133.928 273.257L144.117 292.663H143.672L133.483 273.257" fill="#A4D6EF"/>
<path d="M124.526 273.257L134.715 292.663H134.271L124.081 273.257" fill="#A4D6EF"/>
<path d="M115.137 273.257L125.313 292.663H124.869L114.679 273.257" fill="#A4D6EF"/>
<path d="M148.03 273.257L158.22 292.663H157.762L147.585 273.257" fill="#123E65"/>
<path d="M138.629 273.257L148.818 292.663H148.361L138.184 273.257" fill="#123E65"/>
<path d="M129.227 273.257L139.416 292.663H138.971L128.782 273.257" fill="#123E65"/>
<path d="M119.838 273.257L130.014 292.663H129.57L119.38 273.257" fill="#123E65"/>
<path d="M110.436 273.257L120.613 292.663H120.168L109.979 273.257" fill="#123E65"/>
<path d="M162.692 292.664L161.155 294.736H113.98L115.518 292.664H162.692Z" fill="#004D77"/>
<path d="M113.981 294.736L115.518 292.663L105.341 273.257L103.804 275.33L113.981 294.736Z" fill="#123E65"/>
<path d="M221.44 298.374H164.293L171.585 309.59H228.72L221.44 298.374Z" fill="#78CA5A"/>
<path d="M197.885 304.529H197.771C196.983 304.529 196.335 303.893 196.335 303.092V287.093H199.321V303.092C199.321 303.88 198.673 304.529 197.885 304.529Z" fill="white"/>
<path d="M176.82 292.663H223.994L213.805 273.257H166.643L176.82 292.663Z" fill="#002E60"/>
<path d="M176.82 292.663H223.994L213.805 273.257H166.643L176.82 292.663Z" fill="#0C6B9A"/>
<path d="M215.952 277.339H168.778L168.574 276.945H215.749" fill="#A4D6EF"/>
<path d="M217.985 281.218H170.823L170.607 280.824H217.781" fill="#A4D6EF"/>
<path d="M220.018 285.097H172.856L172.653 284.703H219.814" fill="#A4D6EF"/>
<path d="M222.063 288.975H174.889L174.686 288.581H221.847" fill="#A4D6EF"/>
<path d="M204.632 273.257L214.821 292.663H214.364L204.187 273.257" fill="#A4D6EF"/>
<path d="M195.23 273.257L205.419 292.663H204.975L194.785 273.257" fill="#A4D6EF"/>
<path d="M185.828 273.257L196.017 292.663H195.573L185.383 273.257" fill="#A4D6EF"/>
<path d="M176.439 273.257L186.616 292.663H186.171L175.981 273.257" fill="#A4D6EF"/>
<path d="M209.332 273.257L219.522 292.663H219.064L208.888 273.257" fill="#123E65"/>
<path d="M199.931 273.257L210.12 292.663H209.663L199.486 273.257" fill="#123E65"/>
<path d="M190.529 273.257L200.718 292.663H200.274L190.084 273.257" fill="#123E65"/>
<path d="M181.14 273.257L191.317 292.663H190.872L180.682 273.257" fill="#123E65"/>
<path d="M171.738 273.257L181.915 292.663H181.47L171.281 273.257" fill="#123E65"/>
<path d="M223.994 292.664L222.457 294.736H175.283L176.82 292.664H223.994Z" fill="#004D77"/>
<path d="M175.283 294.736L176.82 292.663L166.643 273.257L165.106 275.33L175.283 294.736Z" fill="#123E65"/>
</svg>
