<svg width="451" height="461" viewBox="0 0 451 461" fill="none" xmlns="http://www.w3.org/2000/svg">
<path d="M348.31 153.552C404.219 153.552 449.542 119.402 449.542 77.276C449.542 35.1499 404.219 1 348.31 1C292.401 1 247.078 35.1499 247.078 77.276C247.078 119.402 292.401 153.552 348.31 153.552Z" stroke="#8FD5A6" stroke-width="1.0046" stroke-miterlimit="10"/>
<g opacity="0.8">
<path d="M348.281 153.552C400.708 153.552 443.209 119.402 443.209 77.276C443.209 35.1499 400.708 1 348.281 1C295.853 1 253.353 35.1499 253.353 77.276C253.353 119.402 295.853 153.552 348.281 153.552Z" fill="#8FD5A6"/>
<path d="M299.883 97.5281C292.956 118.374 272.474 133.98 250.536 135.139C263.201 140.427 278.443 139.029 289.929 131.508C293.866 128.931 297.334 125.712 300.726 122.446C305.765 117.589 310.775 112.406 313.419 105.93" fill="#8FD5A6"/>
</g>
<path d="M308.388 40.1572H301.788V37.5972C302.695 37.5706 303.562 37.4639 304.388 37.2772C305.242 37.0906 306.002 36.7839 306.668 36.3572C307.362 35.9039 307.935 35.3306 308.388 34.6372C308.842 33.9172 309.135 33.0372 309.268 31.9972H312.268V60.6772H308.388V40.1572ZM329.131 61.3172C327.371 61.3172 325.797 60.9706 324.411 60.2772C323.024 59.5572 321.851 58.5572 320.891 57.2772C319.931 55.9706 319.197 54.3972 318.691 52.5572C318.184 50.7172 317.931 48.6639 317.931 46.3972C317.931 44.1039 318.197 42.0372 318.731 40.1972C319.264 38.3572 320.011 36.7972 320.971 35.5172C321.957 34.2372 323.144 33.2506 324.531 32.5572C325.917 31.8639 327.464 31.5172 329.171 31.5172C330.877 31.5172 332.424 31.8639 333.811 32.5572C335.197 33.2239 336.371 34.1972 337.331 35.4772C338.317 36.7572 339.064 38.3172 339.571 40.1572C340.104 41.9972 340.371 44.0772 340.371 46.3972C340.371 48.6639 340.117 50.7172 339.611 52.5572C339.131 54.3972 338.411 55.9706 337.451 57.2772C336.491 58.5572 335.304 59.5572 333.891 60.2772C332.504 60.9706 330.917 61.3172 329.131 61.3172ZM329.171 58.0372C331.651 58.0372 333.464 56.9972 334.611 54.9172C335.784 52.8372 336.371 49.9972 336.371 46.3972C336.371 44.6372 336.224 43.0372 335.931 41.5972C335.637 40.1572 335.184 38.9306 334.571 37.9172C333.984 36.9039 333.237 36.1306 332.331 35.5972C331.424 35.0372 330.371 34.7572 329.171 34.7572C327.944 34.7572 326.877 35.0372 325.971 35.5972C325.064 36.1306 324.304 36.9039 323.691 37.9172C323.104 38.9039 322.651 40.1172 322.331 41.5572C322.037 42.9972 321.891 44.6106 321.891 46.3972C321.891 48.1572 322.037 49.7572 322.331 51.1972C322.651 52.6372 323.104 53.8639 323.691 54.8772C324.304 55.8906 325.064 56.6772 325.971 57.2372C326.877 57.7706 327.944 58.0372 329.171 58.0372ZM355.81 61.3172C354.05 61.3172 352.477 60.9706 351.09 60.2772C349.704 59.5572 348.53 58.5572 347.57 57.2772C346.61 55.9706 345.877 54.3972 345.37 52.5572C344.864 50.7172 344.61 48.6639 344.61 46.3972C344.61 44.1039 344.877 42.0372 345.41 40.1972C345.944 38.3572 346.69 36.7972 347.65 35.5172C348.637 34.2372 349.824 33.2506 351.21 32.5572C352.597 31.8639 354.144 31.5172 355.85 31.5172C357.557 31.5172 359.104 31.8639 360.49 32.5572C361.877 33.2239 363.05 34.1972 364.01 35.4772C364.997 36.7572 365.744 38.3172 366.25 40.1572C366.784 41.9972 367.05 44.0772 367.05 46.3972C367.05 48.6639 366.797 50.7172 366.29 52.5572C365.81 54.3972 365.09 55.9706 364.13 57.2772C363.17 58.5572 361.984 59.5572 360.57 60.2772C359.184 60.9706 357.597 61.3172 355.81 61.3172ZM355.85 58.0372C358.33 58.0372 360.144 56.9972 361.29 54.9172C362.464 52.8372 363.05 49.9972 363.05 46.3972C363.05 44.6372 362.904 43.0372 362.61 41.5972C362.317 40.1572 361.864 38.9306 361.25 37.9172C360.664 36.9039 359.917 36.1306 359.01 35.5972C358.104 35.0372 357.05 34.7572 355.85 34.7572C354.624 34.7572 353.557 35.0372 352.65 35.5972C351.744 36.1306 350.984 36.9039 350.37 37.9172C349.784 38.9039 349.33 40.1172 349.01 41.5572C348.717 42.9972 348.57 44.6106 348.57 46.3972C348.57 48.1572 348.717 49.7572 349.01 51.1972C349.33 52.6372 349.784 53.8639 350.37 54.8772C350.984 55.8906 351.744 56.6772 352.65 57.2372C353.557 57.7706 354.624 58.0372 355.85 58.0372ZM377.45 48.0372C376.437 48.0372 375.517 47.8506 374.69 47.4772C373.863 47.0772 373.143 46.5172 372.53 45.7972C371.943 45.0772 371.477 44.2106 371.13 43.1972C370.81 42.1572 370.65 41.0106 370.65 39.7572C370.65 38.5039 370.823 37.3706 371.17 36.3572C371.517 35.3439 371.997 34.4772 372.61 33.7572C373.223 33.0372 373.943 32.4906 374.77 32.1172C375.597 31.7172 376.49 31.5172 377.45 31.5172C378.437 31.5172 379.343 31.7039 380.17 32.0772C380.997 32.4506 381.703 32.9972 382.29 33.7172C382.903 34.4372 383.383 35.3039 383.73 36.3172C384.077 37.3306 384.25 38.4772 384.25 39.7572C384.25 41.0106 384.077 42.1572 383.73 43.1972C383.41 44.2106 382.943 45.0772 382.33 45.7972C381.743 46.5172 381.037 47.0772 380.21 47.4772C379.383 47.8506 378.463 48.0372 377.45 48.0372ZM393.77 32.1972H396.69L380.45 60.6772H377.49L393.77 32.1972ZM396.73 61.2772C395.717 61.2772 394.797 61.0772 393.97 60.6772C393.143 60.3039 392.423 59.7572 391.81 59.0372C391.223 58.3172 390.757 57.4506 390.41 56.4372C390.09 55.4239 389.93 54.2906 389.93 53.0372C389.93 51.7572 390.103 50.6106 390.45 49.5972C390.797 48.5839 391.277 47.7306 391.89 47.0372C392.503 46.3172 393.223 45.7706 394.05 45.3972C394.877 44.9972 395.77 44.7972 396.73 44.7972C397.717 44.7972 398.623 44.9839 399.45 45.3572C400.277 45.7306 400.983 46.2772 401.57 46.9972C402.183 47.6906 402.663 48.5572 403.01 49.5972C403.357 50.6106 403.53 51.7572 403.53 53.0372C403.53 54.2906 403.357 55.4239 403.01 56.4372C402.69 57.4506 402.223 58.3172 401.61 59.0372C401.023 59.7572 400.317 60.3039 399.49 60.6772C398.663 61.0772 397.743 61.2772 396.73 61.2772ZM377.45 45.3972C378.65 45.3972 379.53 44.8772 380.09 43.8372C380.677 42.7706 380.97 41.4106 380.97 39.7572C380.97 38.9572 380.89 38.2239 380.73 37.5572C380.57 36.8639 380.343 36.2639 380.05 35.7572C379.757 35.2506 379.383 34.8506 378.93 34.5572C378.503 34.2639 378.01 34.1172 377.45 34.1172C376.33 34.1172 375.477 34.6506 374.89 35.7172C374.303 36.7839 374.01 38.1306 374.01 39.7572C374.01 41.3572 374.303 42.7039 374.89 43.7972C375.477 44.8639 376.33 45.3972 377.45 45.3972ZM396.73 58.6372C397.93 58.6372 398.81 58.1172 399.37 57.0772C399.93 56.0372 400.21 54.6906 400.21 53.0372C400.21 51.4372 399.903 50.0906 399.29 48.9972C398.703 47.9039 397.85 47.3572 396.73 47.3572C395.61 47.3572 394.757 47.8906 394.17 48.9572C393.583 50.0239 393.29 51.3839 393.29 53.0372C393.29 54.6372 393.583 55.9706 394.17 57.0372C394.757 58.1039 395.61 58.6372 396.73 58.6372Z" fill="#0D5D56"/>
<path d="M289.608 98.7972H295.868C296.668 98.7972 297.362 98.9239 297.948 99.1772C298.548 99.4172 299.042 99.7706 299.428 100.237C299.762 100.624 300.022 101.057 300.208 101.537C300.395 102.017 300.488 102.557 300.488 103.157C300.488 104.531 300.088 105.611 299.288 106.397C298.488 107.171 297.282 107.557 295.668 107.557H291.668V113.677H289.608V98.7972ZM291.668 105.897H295.468C296.482 105.897 297.228 105.664 297.708 105.197C298.202 104.717 298.448 104.057 298.448 103.217C298.448 102.337 298.195 101.677 297.688 101.237C297.182 100.797 296.468 100.577 295.548 100.577H291.668V105.897ZM302.558 98.7972H309.518C310.184 98.7972 310.791 98.8972 311.338 99.0972C311.884 99.2839 312.351 99.5572 312.738 99.9172C313.138 100.277 313.444 100.711 313.658 101.217C313.871 101.724 313.978 102.284 313.978 102.897C313.978 103.804 313.771 104.577 313.358 105.217C312.944 105.844 312.244 106.311 311.258 106.617V106.677C311.671 106.797 312.018 106.957 312.298 107.157C312.578 107.357 312.804 107.604 312.978 107.897C313.151 108.177 313.278 108.517 313.358 108.917C313.451 109.317 313.518 109.784 313.558 110.317C313.598 110.904 313.644 111.397 313.698 111.797C313.751 112.184 313.804 112.504 313.858 112.757C313.911 112.997 313.964 113.184 314.018 113.317C314.084 113.437 314.158 113.524 314.238 113.577V113.677H312.058C311.978 113.611 311.911 113.511 311.858 113.377C311.804 113.244 311.758 113.051 311.718 112.797C311.678 112.544 311.644 112.224 311.618 111.837C311.591 111.437 311.558 110.937 311.518 110.337C311.451 109.284 311.184 108.544 310.718 108.117C310.251 107.691 309.531 107.477 308.558 107.477H304.598V113.677H302.558V98.7972ZM304.598 105.837H308.858C309.871 105.837 310.624 105.604 311.118 105.137C311.624 104.657 311.878 104.011 311.878 103.197C311.878 102.317 311.651 101.657 311.198 101.217C310.758 100.777 310.011 100.557 308.958 100.557H304.598V105.837ZM323.281 113.997C322.161 113.997 321.148 113.804 320.241 113.417C319.348 113.017 318.581 112.471 317.941 111.777C317.315 111.084 316.835 110.264 316.501 109.317C316.168 108.371 316.001 107.344 316.001 106.237C316.001 105.117 316.168 104.084 316.501 103.137C316.835 102.191 317.315 101.377 317.941 100.697C318.581 100.004 319.348 99.4639 320.241 99.0772C321.148 98.6772 322.161 98.4772 323.281 98.4772C324.401 98.4772 325.408 98.6772 326.301 99.0772C327.208 99.4639 327.975 100.004 328.601 100.697C329.241 101.377 329.728 102.191 330.061 103.137C330.408 104.084 330.581 105.117 330.581 106.237C330.581 107.344 330.408 108.371 330.061 109.317C329.728 110.264 329.241 111.084 328.601 111.777C327.975 112.471 327.208 113.017 326.301 113.417C325.408 113.804 324.401 113.997 323.281 113.997ZM323.281 112.197C324.121 112.197 324.861 112.051 325.501 111.757C326.155 111.451 326.701 111.031 327.141 110.497C327.581 109.964 327.908 109.337 328.121 108.617C328.348 107.884 328.461 107.091 328.461 106.237C328.461 105.384 328.348 104.591 328.121 103.857C327.908 103.124 327.581 102.491 327.141 101.957C326.701 101.424 326.155 101.004 325.501 100.697C324.861 100.391 324.121 100.237 323.281 100.237C322.441 100.237 321.695 100.391 321.041 100.697C320.401 101.004 319.861 101.424 319.421 101.957C318.981 102.491 318.648 103.124 318.421 103.857C318.195 104.591 318.081 105.384 318.081 106.237C318.081 107.091 318.195 107.884 318.421 108.617C318.648 109.337 318.981 109.964 319.421 110.497C319.861 111.031 320.401 111.451 321.041 111.757C321.695 112.051 322.441 112.197 323.281 112.197ZM333.085 98.7972H338.585C339.692 98.7972 340.658 98.9772 341.485 99.3372C342.325 99.6972 343.018 100.211 343.565 100.877C344.125 101.531 344.538 102.317 344.805 103.237C345.085 104.157 345.225 105.177 345.225 106.297C345.225 107.404 345.078 108.411 344.785 109.317C344.505 110.224 344.078 111.004 343.505 111.657C342.932 112.297 342.225 112.797 341.385 113.157C340.545 113.504 339.565 113.677 338.445 113.677H333.085V98.7972ZM338.365 111.897C339.205 111.897 339.925 111.771 340.525 111.517C341.125 111.251 341.612 110.877 341.985 110.397C342.372 109.904 342.652 109.311 342.825 108.617C343.012 107.924 343.105 107.151 343.105 106.297C343.105 105.444 343.018 104.664 342.845 103.957C342.685 103.251 342.418 102.651 342.045 102.157C341.685 101.651 341.212 101.264 340.625 100.997C340.038 100.717 339.325 100.577 338.485 100.577H335.145V111.897H338.365ZM353.233 113.897C352.393 113.897 351.62 113.804 350.913 113.617C350.22 113.417 349.62 113.117 349.113 112.717C348.607 112.304 348.207 111.777 347.913 111.137C347.633 110.497 347.493 109.731 347.493 108.837V98.7972H349.533V108.657C349.533 109.884 349.853 110.777 350.493 111.337C351.147 111.884 352.073 112.157 353.273 112.157C354.433 112.157 355.333 111.884 355.973 111.337C356.613 110.777 356.933 109.884 356.933 108.657V98.7972H358.973V108.837C358.973 109.731 358.827 110.497 358.533 111.137C358.24 111.777 357.833 112.304 357.313 112.717C356.807 113.117 356.2 113.417 355.493 113.617C354.8 113.804 354.047 113.897 353.233 113.897ZM368.255 113.977C367.189 113.977 366.222 113.784 365.355 113.397C364.502 113.011 363.769 112.477 363.155 111.797C362.555 111.104 362.089 110.284 361.755 109.337C361.422 108.391 361.255 107.357 361.255 106.237C361.255 105.144 361.415 104.124 361.735 103.177C362.055 102.231 362.515 101.411 363.115 100.717C363.729 100.024 364.469 99.4772 365.335 99.0772C366.215 98.6772 367.209 98.4772 368.315 98.4772C369.195 98.4772 369.975 98.5972 370.655 98.8372C371.349 99.0639 371.949 99.3839 372.455 99.7972C372.989 100.224 373.409 100.737 373.715 101.337C374.035 101.924 374.249 102.577 374.355 103.297H372.315C372.142 102.377 371.709 101.644 371.015 101.097C370.335 100.537 369.422 100.257 368.275 100.257C367.489 100.257 366.789 100.411 366.175 100.717C365.562 101.011 365.042 101.424 364.615 101.957C364.202 102.491 363.882 103.124 363.655 103.857C363.442 104.591 363.335 105.384 363.335 106.237C363.335 107.131 363.449 107.944 363.675 108.677C363.915 109.411 364.249 110.037 364.675 110.557C365.115 111.077 365.642 111.484 366.255 111.777C366.869 112.057 367.549 112.197 368.295 112.197C368.975 112.197 369.562 112.091 370.055 111.877C370.562 111.664 370.982 111.377 371.315 111.017C371.662 110.657 371.929 110.244 372.115 109.777C372.315 109.297 372.435 108.791 372.475 108.257H374.515C374.515 108.631 374.469 109.011 374.375 109.397C374.295 109.771 374.175 110.137 374.015 110.497C373.855 110.857 373.669 111.204 373.455 111.537C373.242 111.857 373.002 112.144 372.735 112.397C371.682 113.451 370.189 113.977 368.255 113.977ZM375.505 98.7972H387.345V100.597H382.445V113.677H380.385V100.597H375.505V98.7972ZM394.678 113.977C393.638 113.977 392.724 113.844 391.938 113.577C391.164 113.311 390.511 112.951 389.978 112.497C389.458 112.031 389.058 111.484 388.778 110.857C388.498 110.231 388.338 109.564 388.298 108.857H390.318C390.438 109.991 390.864 110.857 391.598 111.457C392.331 112.044 393.378 112.337 394.738 112.337C395.231 112.337 395.684 112.284 396.098 112.177C396.524 112.057 396.884 111.891 397.178 111.677C397.484 111.451 397.724 111.171 397.898 110.837C398.071 110.504 398.158 110.111 398.158 109.657C398.158 109.177 398.051 108.777 397.838 108.457C397.638 108.137 397.344 107.871 396.958 107.657C396.584 107.444 396.131 107.264 395.598 107.117C395.078 106.971 394.491 106.824 393.838 106.677C393.171 106.544 392.538 106.384 391.938 106.197C391.351 106.011 390.831 105.764 390.378 105.457C389.924 105.137 389.564 104.744 389.298 104.277C389.044 103.811 388.918 103.217 388.918 102.497C388.918 101.871 389.044 101.311 389.298 100.817C389.551 100.324 389.904 99.9106 390.358 99.5772C390.811 99.2306 391.351 98.9706 391.978 98.7972C392.618 98.6106 393.318 98.5172 394.078 98.5172C394.998 98.5172 395.791 98.6306 396.458 98.8572C397.124 99.0706 397.684 99.3706 398.138 99.7572C398.604 100.144 398.964 100.604 399.218 101.137C399.471 101.671 399.644 102.257 399.738 102.897H397.758C397.624 101.991 397.244 101.304 396.618 100.837C395.991 100.357 395.151 100.117 394.098 100.117C393.111 100.117 392.324 100.311 391.738 100.697C391.151 101.084 390.858 101.651 390.858 102.397C390.858 102.797 390.951 103.137 391.138 103.417C391.338 103.684 391.604 103.911 391.938 104.097C392.284 104.284 392.691 104.444 393.158 104.577C393.638 104.697 394.158 104.817 394.718 104.937C395.438 105.084 396.124 105.251 396.778 105.437C397.444 105.624 398.031 105.891 398.538 106.237C399.058 106.571 399.464 107.004 399.758 107.537C400.064 108.071 400.218 108.751 400.218 109.577C400.218 110.284 400.078 110.911 399.798 111.457C399.531 112.004 399.151 112.464 398.658 112.837C398.164 113.211 397.578 113.491 396.898 113.677C396.218 113.877 395.478 113.977 394.678 113.977Z" fill="#0D5D56"/>
<path d="M315.108 89.0372C314.575 89.3439 313.988 89.5772 313.348 89.7372C312.722 89.9106 312.048 89.9972 311.328 89.9972C310.208 89.9972 309.195 89.8039 308.288 89.4172C307.395 89.0172 306.628 88.4706 305.988 87.7772C305.362 87.0839 304.882 86.2639 304.548 85.3172C304.215 84.3706 304.048 83.3439 304.048 82.2372C304.048 81.1172 304.215 80.0839 304.548 79.1372C304.882 78.1906 305.362 77.3772 305.988 76.6972C306.628 76.0039 307.395 75.4639 308.288 75.0772C309.195 74.6772 310.208 74.4772 311.328 74.4772C312.448 74.4772 313.455 74.6772 314.348 75.0772C315.255 75.4639 316.022 76.0039 316.648 76.6972C317.275 77.3772 317.755 78.1906 318.088 79.1372C318.435 80.0839 318.608 81.1172 318.608 82.2372C318.608 83.4239 318.415 84.5106 318.028 85.4972C317.655 86.4839 317.115 87.3306 316.408 88.0372L318.548 89.7572L317.528 90.9972L315.108 89.0372ZM311.328 88.2372C312.155 88.2372 312.895 88.0839 313.548 87.7772L311.628 86.2172L312.628 84.9772L314.908 86.8172C315.428 86.2706 315.822 85.6106 316.088 84.8372C316.368 84.0506 316.508 83.1839 316.508 82.2372C316.508 81.3839 316.395 80.5906 316.168 79.8572C315.955 79.1239 315.628 78.4906 315.188 77.9572C314.748 77.4239 314.202 77.0039 313.548 76.6972C312.908 76.3906 312.168 76.2372 311.328 76.2372C310.488 76.2372 309.742 76.3906 309.088 76.6972C308.448 77.0039 307.908 77.4239 307.468 77.9572C307.028 78.4906 306.695 79.1239 306.468 79.8572C306.242 80.5906 306.128 81.3839 306.128 82.2372C306.128 83.0906 306.242 83.8839 306.468 84.6172C306.695 85.3372 307.028 85.9706 307.468 86.5172C307.908 87.0506 308.448 87.4706 309.088 87.7772C309.742 88.0839 310.488 88.2372 311.328 88.2372ZM326.612 89.8972C325.772 89.8972 324.999 89.8039 324.292 89.6172C323.599 89.4172 322.999 89.1172 322.492 88.7172C321.986 88.3039 321.586 87.7772 321.292 87.1372C321.012 86.4972 320.872 85.7306 320.872 84.8372V74.7972H322.912V84.6572C322.912 85.8839 323.232 86.7772 323.872 87.3372C324.526 87.8839 325.452 88.1572 326.652 88.1572C327.812 88.1572 328.712 87.8839 329.352 87.3372C329.992 86.7772 330.312 85.8839 330.312 84.6572V74.7972H332.352V84.8372C332.352 85.7306 332.206 86.4972 331.912 87.1372C331.619 87.7772 331.212 88.3039 330.692 88.7172C330.186 89.1172 329.579 89.4172 328.872 89.6172C328.179 89.8039 327.426 89.8972 326.612 89.8972ZM339.181 74.7972H341.461L346.941 89.6772H344.701L343.221 85.3372H337.361L335.841 89.6772H333.741L339.181 74.7972ZM337.921 83.7372H342.681L341.261 79.5772C341.128 79.2172 341.008 78.8506 340.901 78.4772C340.795 78.1039 340.701 77.7639 340.621 77.4572C340.528 77.1106 340.441 76.7639 340.361 76.4172H340.301C340.208 76.7639 340.115 77.1172 340.021 77.4772C339.928 77.7839 339.828 78.1239 339.721 78.4972C339.615 78.8706 339.501 79.2306 339.381 79.5772L337.921 83.7372ZM348.866 74.7972H350.906V87.8172H358.606V89.6772H348.866V74.7972ZM360.801 74.7972H362.841V89.6772H360.801V74.7972ZM365.036 74.7972H376.876V76.5972H371.976V89.6772H369.916V76.5972H365.036V74.7972ZM383.417 83.4372L378.057 74.7972H380.337L383.017 79.2772C383.164 79.5439 383.324 79.8372 383.497 80.1572C383.671 80.4772 383.831 80.7772 383.977 81.0572L384.477 82.0572H384.517C384.677 81.7239 384.844 81.3906 385.017 81.0572C385.164 80.7772 385.324 80.4772 385.497 80.1572C385.671 79.8372 385.837 79.5439 385.997 79.2772L388.697 74.7972H390.877L385.457 83.5372V89.6772H383.417V83.4372Z" fill="#0D5D56"/>
<path d="M125.105 40.9199C125.105 40.9199 109.04 46.735 99.8141 89.7779C90.9239 131.317 75.7492 147.718 58.7926 163.266C41.836 178.814 26.5175 194.018 32.5338 214.318C38.55 234.618 59.8847 237.904 59.8847 237.904C59.8847 237.904 57.7867 279.146 89.9755 293.707C122.155 308.269 260.059 303.575 279.123 282.69C289.057 271.807 293.627 252.149 290.274 237.3C287.189 223.668 276.527 214.327 276.527 214.327C276.527 214.327 299.078 206.673 286.5 177.464C273.921 148.254 251.906 154.778 240.41 121.948C228.924 89.1073 228.732 75.4462 228.732 75.4462L125.105 40.9199Z" fill="#00352F"/>
<path d="M279.123 255.311L286.097 269.029L303.494 192.753C303.494 192.753 296.271 186.258 294.125 179.063C291.979 171.878 291.979 171.878 291.979 171.878L297.603 166.111C297.603 166.111 296.53 125.042 299.749 122.101C302.958 119.16 308.85 157.968 308.85 157.968C308.85 157.968 317.414 122.369 320.892 123.442C324.369 124.515 320.892 152.603 320.892 152.603C322.587 151.454 324.839 151.559 326.41 152.881L330.385 156.215C332.119 157.671 332.531 160.181 331.353 162.107L328.728 166.408C328.728 166.408 332.637 162.72 336.038 165.843C339.438 168.966 340.061 174.455 339.486 177.291C338.921 180.127 332.512 188.059 329.811 190.473C327.119 192.887 321.773 196.48 321.773 196.48C321.773 196.48 318.315 247.484 315.929 270.581C313.544 293.679 302.393 335.093 302.393 335.093C302.393 335.093 279.094 325.887 268.671 315.981C258.248 306.075 248.227 293.152 248.227 293.152L258.047 260.235L279.123 255.311Z" fill="#F5CAC3"/>
<path d="M200.394 177.76L199.226 169.474C192.52 172.855 184.884 174.417 177.393 173.823C171.683 173.373 166.088 171.677 161.049 168.956L160.513 177.051L152.207 181.564L192.328 214.327L209.658 181.334L200.394 177.76Z" fill="#F5CAC3"/>
<path d="M199.216 169.474L196.831 152.594L161.931 155.679L161.049 168.956C166.088 171.677 171.683 173.373 177.393 173.823C184.884 174.407 192.51 172.855 199.216 169.474Z" fill="#F28482"/>
<path d="M232.899 113.498C232.899 118.068 231.75 122.628 229.594 126.651C227.87 129.861 225.235 132.897 221.662 133.626C217.686 134.43 213.51 131.959 211.555 128.395C208.068 122.043 210.626 110.097 216.106 105.211C223.99 98.1891 232.899 103.841 232.899 113.498Z" fill="#F28482"/>
<path d="M220.225 63.6339C220.225 63.6339 229.93 136.289 211.297 153.992C192.022 172.3 162.851 170.48 144.649 153.992C126.437 137.505 123.007 103.832 120.938 86.9995C118.878 70.1674 130.279 44.0524 172.162 43.7075C214.046 43.3626 220.225 63.6339 220.225 63.6339Z" fill="#F5CAC3"/>
<path d="M119.951 119.619C126.341 116.247 129.78 109.081 131.505 102.059C134.953 88.0054 133.018 72.687 126.159 59.936C118.658 67.6575 114.203 77.5728 113.398 88.3024C112.594 99.0416 115.008 110.068 119.951 119.619Z" fill="#00352F"/>
<path d="M126.647 69.8801C130.441 64.3142 135.701 59.6104 142.004 57.2441C148.308 54.8779 155.684 55.0311 161.528 58.3841C167.362 61.7371 171.319 68.4719 170.648 75.1779L228.761 75.427C228.435 65.3871 227.477 54.8683 221.93 46.4954C216.968 38.9942 208.758 34.0701 200.097 31.6464C191.437 29.213 182.307 29.0693 173.331 29.5388C156.719 30.4105 139.964 33.4187 125.124 40.9198L126.647 69.8801Z" fill="#00352F"/>
<path d="M107.44 112.76C107.44 117.857 108.723 122.953 111.138 127.446C113.054 131.029 116.014 134.43 119.99 135.235C124.435 136.135 129.091 133.367 131.275 129.391C135.174 122.302 132.319 108.947 126.197 103.506C117.384 95.6694 107.44 101.983 107.44 112.76Z" fill="#F5CAC3"/>
<path opacity="0.5" d="M124.942 127.245C122.729 127.619 120.344 126.613 119.06 124.774C117.776 122.934 117.652 120.348 118.763 118.403C119.079 117.857 119.491 117.339 120.056 117.052C120.526 116.803 121.072 116.736 121.608 116.726C123.745 116.688 125.881 117.569 127.366 119.112C126.839 116.439 126.255 113.728 124.952 111.323C123.649 108.919 121.522 106.84 118.869 106.217C116.215 105.594 113.063 106.763 111.971 109.264C111.971 109.264 109.231 118.039 115.429 124.227C121.608 130.407 124.942 127.245 124.942 127.245Z" fill="#F28482"/>
<path d="M111.961 109.254C112.69 107.29 114.759 106.054 116.838 105.805C118.974 105.556 121.12 106.456 122.72 107.826C124.358 109.187 125.479 111.074 126.245 113.019C127.012 114.973 127.462 117.004 127.864 119.006L128.209 120.74L126.992 119.466C125.747 118.154 123.975 117.32 122.155 117.205C121.225 117.148 120.344 117.215 119.769 117.809C119.175 118.393 118.754 119.265 118.533 120.137C118.102 121.909 118.543 123.911 119.807 125.291C121.053 126.689 123.007 127.456 124.952 127.255C123.036 127.686 120.919 127.034 119.453 125.636C117.987 124.208 117.384 122.005 117.767 119.974C117.978 118.958 118.361 117.972 119.146 117.177C119.539 116.784 120.095 116.487 120.631 116.381C121.177 116.266 121.685 116.266 122.202 116.286C124.262 116.381 126.274 117.282 127.73 118.767L126.858 119.217C126.466 117.224 126.073 115.232 125.364 113.373C124.674 111.505 123.62 109.79 122.183 108.449C120.765 107.118 118.859 106.207 116.876 106.342C114.931 106.389 112.91 107.405 111.961 109.254Z" fill="#00352F"/>
<path d="M180.717 84.1543C181.426 86.5206 182.125 88.8964 182.748 91.2818L183.706 94.8552C184.032 96.0431 184.31 97.2502 184.683 98.3998C185.057 99.5398 185.517 100.651 186.187 101.58C186.848 102.519 187.797 103.199 188.803 103.88C190.862 105.211 192.941 106.562 194.991 107.932L195.336 108.162L195.173 108.526C194.254 110.538 192.979 112.377 191.485 113.977C190.738 114.782 189.914 115.51 189.042 116.161C188.17 116.822 187.251 117.406 186.283 117.895C187.174 117.282 188.027 116.621 188.822 115.893C189.617 115.174 190.345 114.379 191.035 113.565C192.405 111.927 193.497 110.078 194.311 108.133L194.493 108.717C192.385 107.424 190.307 106.112 188.218 104.77C187.174 104.1 186.091 103.286 185.325 102.193C184.559 101.111 184.08 99.8942 183.735 98.6776C183.064 96.2538 182.652 93.8397 182.116 91.4159C181.598 89.0209 181.148 86.5876 180.717 84.1543Z" fill="#00352F"/>
<path d="M151.163 102.864C152.629 102.088 154.219 101.532 155.828 101.073C157.447 100.651 159.095 100.364 160.762 100.162C162.419 99.9517 164.096 99.8847 165.753 99.8272C167.42 99.7985 169.077 99.808 170.735 99.8272L170.342 100.756C168.167 98.5914 165.255 97.231 162.237 96.4455C160.724 96.0527 159.153 95.8132 157.581 95.6695C156.001 95.497 154.41 95.4587 152.811 95.4012C154.401 95.2192 156.001 95.1522 157.61 95.1426C159.22 95.1713 160.829 95.3246 162.419 95.6312C165.6 96.2443 168.723 97.643 171.108 99.9805L172.086 100.938L170.716 100.919C167.401 100.862 164.115 100.804 160.829 101.006C159.191 101.101 157.553 101.283 155.943 101.599C154.324 101.877 152.734 102.318 151.163 102.864Z" fill="#00352F"/>
<path d="M141.161 88.1683C141.094 85.5817 141.698 82.928 142.819 80.4468C143.393 79.211 144.093 78.023 144.926 76.8926C145.779 75.7909 146.746 74.7563 147.839 73.827C148.931 72.8978 150.061 71.9781 151.316 71.2021C152.571 70.4357 153.998 69.9663 155.455 69.8513C156.92 69.7364 158.396 69.8896 159.804 70.3207C161.203 70.771 162.534 71.4703 163.617 72.6295L163.492 73.2714C162.122 73.9707 160.973 74.4689 159.881 74.9575L156.825 76.2699C155.857 76.6818 154.899 76.9597 153.864 77.1704C152.83 77.3716 151.776 77.6494 150.818 78.138C149.86 78.617 148.94 79.211 148.068 79.9103C147.178 80.5809 146.335 81.3569 145.568 82.2095C143.997 83.9148 142.732 85.9649 141.794 88.2736L141.161 88.1683Z" fill="#00352F"/>
<path d="M206.449 96.6468C206.449 99.8752 204.715 102.491 202.588 102.491C200.452 102.491 198.728 99.8752 198.728 96.6468C198.728 93.4183 200.462 90.803 202.588 90.803C204.725 90.803 206.449 93.4183 206.449 96.6468Z" fill="#00352F"/>
<path d="M169.144 128.184C172.756 132.198 179.357 138.186 185.881 137.285C186.245 137.237 186.589 137.161 186.934 137.084C186.925 137.074 186.925 137.065 186.925 137.065C183.169 131.202 176.061 127.715 169.144 128.184Z" fill="#F28482"/>
<path d="M199.388 122.417C199.388 122.417 194.072 127.264 185.21 127.935C176.349 128.606 166.328 124.764 166.328 124.764C166.328 124.764 167.382 126.249 169.135 128.194C176.052 127.724 183.16 131.211 186.915 137.065C186.925 137.074 186.925 137.084 186.925 137.084C195.844 134.957 199.388 122.417 199.388 122.417Z" fill="#00352F"/>
<path d="M101.73 389.134L89.1514 460.677H291.663L270.98 378.759C218.807 403.868 156.566 407.719 101.73 389.134Z" fill="#00352F"/>
<path d="M270.98 378.759L254.09 311.852C254.09 311.852 258.401 305.931 264.59 297.041C270.779 288.161 264.59 266.079 264.59 266.079L279.132 255.311C279.132 255.311 259.742 204.958 252.749 199.038C245.746 193.117 203.795 179.063 203.795 179.063C203.795 179.063 200.624 206.635 191.255 205.782C181.886 204.929 156.805 179.063 156.805 179.063C156.805 179.063 94.4492 190.176 87.2163 196.652C79.9834 203.119 42.698 250.3 42.698 250.3C42.698 250.3 41.558 254.87 51.4445 265.897C61.3407 276.933 74.2737 281.119 74.2737 281.119L95.5796 261.72L113.245 323.654L101.73 389.143C156.566 407.719 218.807 403.868 270.98 378.759Z" fill="#329F5B"/>
<path d="M42.6885 250.291L0 314.027C0 314.027 38.023 332.085 64.1573 342.067C90.2915 352.05 104.46 353.946 110.927 351.571C117.393 349.195 126.331 342.537 126.331 342.537C126.331 342.537 140.347 351.408 147.954 352.49C155.56 353.573 165.523 343.188 160.887 337.66C156.25 332.123 124.233 319.248 124.233 319.248C124.233 319.248 154.142 327.228 158.271 328.837C162.4 330.456 158.453 323.041 150.904 319.985C143.355 316.929 126.466 307.541 122.155 308.259C117.844 308.978 105.619 329.642 105.619 329.642L53.1498 302.866L74.2642 281.1C74.2642 281.1 64.483 278.216 54.1078 268.014C45.2655 259.325 42.6885 250.291 42.6885 250.291Z" fill="#F5CAC3"/>
<path d="M297.248 166.38C298.934 165.374 300.659 164.454 302.393 163.534C304.136 162.643 305.909 161.791 307.681 160.957C309.453 160.114 311.273 159.377 313.084 158.629C314.904 157.892 316.734 157.173 318.583 156.512L319.024 156.359L319.225 156.771C320.077 158.572 320.403 160.593 320.183 162.557C319.962 164.521 319.177 166.427 317.903 167.922C316.657 169.426 314.952 170.566 313.17 171.179C312.308 171.428 312.136 172.463 311.733 173.306C311.379 174.178 311.005 175.049 310.622 175.912C310.9 175.011 311.178 174.111 311.475 173.21C311.628 172.76 311.752 172.319 311.925 171.859C312.069 171.39 312.5 170.93 312.959 170.729C314.713 170.01 316.188 168.899 317.29 167.433C318.372 165.977 319.081 164.262 319.254 162.461C319.426 160.67 319.1 158.831 318.305 157.231L318.937 157.489C317.098 158.141 315.268 158.811 313.448 159.52C311.628 160.22 309.827 160.986 308.016 161.705C306.206 162.442 304.414 163.209 302.623 164.004C300.822 164.761 299.049 165.584 297.248 166.38Z" fill="#00352F"/>
<path d="M328.719 166.389C327.885 168.755 326.908 171.074 325.624 173.258C324.36 175.452 322.779 177.483 320.911 179.217C319.962 180.079 318.89 180.874 317.644 181.363C316.408 181.851 314.99 181.985 313.688 181.593C313.036 181.391 312.423 181.066 311.925 180.596C311.436 180.127 311.053 179.562 310.814 178.949C310.354 177.722 310.315 176.372 310.718 175.174C310.545 176.41 310.699 177.684 311.273 178.738C311.819 179.801 312.777 180.568 313.908 180.817C315.029 181.066 316.226 180.932 317.29 180.462C318.363 180.002 319.34 179.293 320.221 178.46C322.022 176.803 323.574 174.887 324.944 172.827C326.304 170.777 327.521 168.593 328.719 166.389Z" fill="#00352F"/>
<path d="M335.223 177.272C333.825 178.757 332.321 180.156 330.73 181.439C329.14 182.733 327.512 183.94 325.749 185.041C324.848 185.568 323.9 186.047 322.875 186.354C321.859 186.632 320.758 186.871 319.627 186.536C319.081 186.392 318.506 185.99 318.228 185.511C317.922 185.041 317.73 184.524 317.606 184.016C317.376 182.991 317.299 181.947 317.472 180.932C317.529 181.947 317.721 182.953 318.085 183.863C318.439 184.773 318.976 185.635 319.838 185.76C320.7 185.932 321.677 185.731 322.587 185.425C323.497 185.118 324.379 184.668 325.222 184.15C326.918 183.116 328.584 181.937 330.251 180.797L335.223 177.272Z" fill="#00352F"/>
<path d="M286.097 269.029C285.743 270.447 285.331 271.836 284.948 273.244L283.702 277.431C282.869 280.219 281.959 282.978 281.049 285.746C280.11 288.505 279.18 291.255 278.165 293.985L276.642 298.076C276.096 299.427 275.588 300.787 275.013 302.138C275.368 300.72 275.78 299.331 276.163 297.923L277.408 293.736C278.242 290.948 279.152 288.189 280.071 285.421C281.01 282.662 281.949 279.912 282.955 277.182L284.478 273.091C285.015 271.74 285.532 270.37 286.097 269.029Z" fill="#00352F"/>
<path d="M124.243 326.605C125.872 327.141 127.462 327.764 129.062 328.358C130.652 328.99 132.223 329.651 133.804 330.332C136.946 331.682 140.031 333.177 143.068 334.748C146.095 336.338 149.093 337.996 152.006 339.797C153.462 340.697 154.908 341.617 156.336 342.546C157.744 343.514 159.172 344.462 160.542 345.487L156.068 342.977C154.583 342.134 153.098 341.301 151.603 340.486C148.605 338.858 145.616 337.229 142.589 335.668C139.571 334.087 136.515 332.573 133.468 331.05C131.936 330.293 130.403 329.556 128.86 328.828L124.243 326.605Z" fill="#00352F"/>
<path d="M125.718 335.706C127.098 336.032 128.449 336.434 129.809 336.827C131.15 337.258 132.491 337.708 133.823 338.187C136.486 339.136 139.092 340.247 141.659 341.435C144.217 342.652 146.737 343.945 149.161 345.391C150.377 346.12 151.575 346.857 152.772 347.624C153.941 348.419 155.119 349.204 156.24 350.057L152.514 348.064C151.278 347.394 150.032 346.733 148.777 346.1C146.267 344.826 143.767 343.562 141.219 342.383C138.68 341.176 136.113 340.055 133.536 338.935C132.242 338.379 130.939 337.842 129.636 337.316L125.718 335.706Z" fill="#00352F"/>
<path d="M53.15 302.875C51.5309 302.396 49.8832 302.032 48.2258 301.764C46.5685 301.467 44.9112 301.247 43.2347 301.093C41.5677 300.95 39.8817 300.796 38.2243 300.768C36.5766 300.701 34.9001 300.835 33.2427 300.988C29.9185 301.314 26.6134 301.936 23.3083 302.588C21.6605 302.914 20.0127 303.278 18.3746 303.67C16.7268 304.025 15.0886 304.437 13.4504 304.83C16.6118 303.623 19.8499 302.645 23.1358 301.812C26.4122 300.978 29.746 300.317 33.1373 299.963C33.99 299.905 34.833 299.8 35.6952 299.791L36.9789 299.752L38.2626 299.791C39.9679 299.886 41.654 300.04 43.3305 300.308C46.6835 300.816 50.046 301.515 53.15 302.875Z" fill="#00352F"/>
<path d="M106.098 68.6538C104.546 76.9405 102.391 85.1122 99.766 93.1403C97.074 101.149 93.8264 108.976 89.9848 116.525C82.3112 131.604 71.9074 145.409 59.1085 156.589C52.7282 162.145 46.0509 167.28 40.2167 173.248C34.3921 179.159 29.5254 186.153 27.0538 194.046C25.8467 197.984 25.3294 202.151 25.8084 206.232C26.2108 210.332 27.7531 214.27 29.8991 217.805C32.0354 221.359 34.986 224.415 38.3678 226.858C41.7878 229.253 45.7252 230.929 49.8734 231.686C45.6965 231.15 41.6154 229.646 38.0612 227.318C34.5262 224.961 31.3935 221.943 29.0464 218.36C26.7377 214.768 25.042 210.696 24.5151 206.405C23.9211 202.122 24.3714 197.744 25.5306 193.606C26.6898 189.458 28.5674 185.539 30.8762 181.937C33.1754 178.326 35.9057 175.001 38.8659 171.945C44.7768 165.805 51.4636 160.583 57.7481 155.046C64.0805 149.566 69.8572 143.493 74.9825 136.883C80.127 130.282 84.5817 123.164 88.5861 115.807C92.5618 108.43 95.9436 100.718 98.8176 92.8241C101.749 84.9302 104.096 76.8351 106.098 68.6538Z" fill="#00352F"/>
<path d="M280.895 169.608C284.775 173.632 288.559 177.847 291.328 182.867C292.727 185.357 293.761 188.078 294.422 190.885C295.054 193.702 295.294 196.604 295.15 199.478C294.968 202.362 294.432 205.217 293.483 207.947C293.004 209.307 292.43 210.639 291.759 211.904C291.108 213.187 290.332 214.404 289.488 215.563C286.135 220.209 281.451 223.879 276.182 225.823C281.077 223.093 285.197 219.232 288.157 214.653C291.117 210.074 292.822 204.776 293.091 199.363C293.416 193.951 292.295 188.509 289.9 183.595C287.515 178.651 284.124 174.178 280.895 169.608Z" fill="#00352F"/>
<path opacity="0.5" d="M169.394 117.215C169.585 119.543 165.945 121.737 161.279 122.11C156.614 122.484 152.677 120.903 152.495 118.575C152.303 116.247 155.943 114.054 160.609 113.68C165.274 113.306 169.212 114.887 169.394 117.215Z" fill="#F28482"/>
<path opacity="0.5" d="M197.616 115.787C197.425 118.115 201.065 120.309 205.73 120.683C210.396 121.056 214.333 119.476 214.515 117.148C214.707 114.82 211.066 112.626 206.401 112.252C201.736 111.879 197.798 113.46 197.616 115.787Z" fill="#F28482"/>
<path d="M172.977 309.399C182.672 314.889 194.943 312.187 201.439 303.144C202.138 302.186 201.918 300.835 200.95 300.145C199.992 299.455 198.641 299.676 197.952 300.634C195.135 304.542 190.843 307.119 186.072 307.761C176.473 309.054 167.641 302.329 166.347 292.74C169.058 298.066 174.193 301.745 180.123 302.607C184.98 294.225 182.135 283.485 173.753 278.619C171.664 277.421 169.355 276.655 166.96 276.377C157.246 275.256 148.433 270.227 142.512 262.448C138.747 277.009 141.88 292.481 150.99 304.437C156.145 311.21 165.408 313.298 172.977 309.399Z" fill="#8FD5A6"/>
<path d="M165.705 235.365C156.116 241.027 152.312 253.002 156.882 263.147C157.371 264.23 158.645 264.709 159.727 264.22C160.81 263.741 161.289 262.467 160.8 261.375C158.827 256.987 158.741 251.977 160.57 247.532C164.239 238.565 174.48 234.283 183.447 237.952C177.479 237.645 171.731 240.251 168.024 244.945C172.852 253.347 183.572 256.24 191.974 251.421C194.072 250.214 195.892 248.595 197.329 246.66C203.153 238.814 211.919 233.689 221.614 232.462C210.884 221.915 195.92 216.885 181.014 218.801C172.555 219.884 166.117 226.868 165.705 235.365Z" fill="#92CFA4"/>
<path d="M233.445 266.088C233.34 254.956 224.881 245.683 213.797 244.562C212.609 244.447 211.555 245.3 211.44 246.487C211.316 247.675 212.187 248.729 213.366 248.844C218.156 249.333 222.534 251.756 225.484 255.569C231.405 263.233 229.997 274.241 222.333 280.171C225.59 275.151 226.213 268.857 224 263.31C214.305 263.291 206.43 271.118 206.411 280.813C206.411 283.227 206.899 285.612 207.857 287.825C211.737 296.792 211.795 306.947 208.02 315.952C222.505 311.928 234.346 301.486 240.142 287.614C243.437 279.768 240.611 270.687 233.445 266.088Z" fill="#8FD5A6"/>
<path d="M248.227 210.486L264.59 266.079L270.807 261.471L248.227 210.486Z" fill="#0C8346"/>
<path d="M95.5795 261.71L89.1514 236.294L90.7704 266.079L95.5795 261.71Z" fill="#0C8346"/>
<path d="M99.6895 400.764C106.798 403.101 114.031 405.037 121.302 406.751C128.573 408.476 135.902 409.98 143.278 411.139C145.118 411.455 146.976 411.666 148.825 411.934L151.594 412.327C152.523 412.451 153.452 412.538 154.372 412.643L159.938 413.247L165.523 413.639C166.452 413.697 167.382 413.783 168.311 413.821L171.108 413.898C172.976 413.936 174.835 414.023 176.703 414.023C180.43 413.898 184.166 413.956 187.873 413.553C202.751 412.451 217.418 409.175 231.731 404.96C238.896 402.862 245.957 400.39 252.931 397.698C259.915 395.025 266.803 392.113 273.509 388.779C260.231 395.696 246.263 401.252 231.961 405.717C230.179 406.311 228.368 406.78 226.577 407.317C224.776 407.843 222.974 408.351 221.154 408.782L215.703 410.143L210.204 411.331C202.856 412.777 195.451 414.08 187.95 414.569C184.214 414.952 180.449 414.885 176.703 414.99C174.825 414.99 172.957 414.894 171.08 414.846L168.273 414.76C167.334 414.722 166.405 414.626 165.466 414.569L159.861 414.157L154.276 413.534C152.408 413.342 150.559 413.084 148.701 412.796C146.852 412.499 144.993 412.269 143.144 411.925C128.382 409.376 113.81 405.707 99.6895 400.764Z" fill="#0C8346"/>
<path d="M94.4875 430.328C96.3461 431.142 98.2716 431.803 100.226 432.282C102.18 432.78 104.173 433.096 106.166 433.173C108.158 433.221 110.151 433.02 112.038 432.474C113.964 431.975 115.64 430.893 117.163 429.676C118.696 428.412 119.999 426.898 121.187 425.298C122.327 423.65 123.295 421.897 124.176 420.096C125.029 418.276 125.747 416.389 126.351 414.463C126.983 412.538 127.471 410.574 127.855 408.581C127.51 412.643 126.466 416.638 124.904 420.432C124.118 422.328 123.093 424.129 121.963 425.854C120.756 427.53 119.434 429.14 117.834 430.481C116.196 431.765 114.356 432.895 112.306 433.393C110.285 433.93 108.187 434.15 106.127 433.978C102.008 433.614 98.0321 432.32 94.4875 430.328Z" fill="#0C8346"/>
<path d="M245.603 400.764C246.101 402.843 246.666 404.912 247.356 406.924C248.017 408.945 248.774 410.947 249.674 412.863C250.575 414.779 251.571 416.657 252.797 418.362C254.023 420.058 255.48 421.6 257.233 422.664C258.095 423.219 259.034 423.602 260.04 423.851L261.563 424.196L263.115 424.378C265.203 424.551 267.301 424.378 269.39 424.043C271.478 423.698 273.519 423.095 275.511 422.357C277.514 421.648 279.458 420.748 281.336 419.713C277.791 422.127 273.777 423.89 269.543 424.819C267.426 425.288 265.232 425.442 263.048 425.308L261.41 425.145L259.8 424.809C258.727 424.56 257.645 424.148 256.706 423.545C254.799 422.357 253.295 420.69 252.05 418.908C250.814 417.107 249.779 415.191 248.975 413.189C247.298 409.194 246.187 405.017 245.603 400.764Z" fill="#0C8346"/>
<path d="M198.134 460.677C198.105 457.362 198.392 454.086 198.756 450.819C199.149 447.552 199.618 444.295 200.404 441.076C200.433 444.391 200.145 447.667 199.781 450.934C199.389 454.201 198.919 457.458 198.134 460.677Z" fill="#0C8346"/>
<path d="M109.049 47.0893C108.829 44.3111 108.791 41.3796 110.055 38.8984C110.563 37.8925 111.674 36.877 112.69 37.3752C113.379 37.7105 113.609 38.5631 113.734 39.3103C114.788 45.7193 113.897 53.7665 111.358 59.754C109.471 56.516 109.356 50.8542 109.049 47.0893Z" fill="#F28482"/>
<path d="M113.667 72.4091C113.887 75.1873 113.925 78.1188 112.661 80.6C112.153 81.6059 111.042 82.6214 110.026 82.1233C109.337 81.788 109.107 80.9449 108.982 80.1881C107.928 73.7791 108.819 65.7319 111.358 59.7444C113.245 62.992 113.36 68.6442 113.667 72.4091Z" fill="#F28482"/>
<path d="M124.023 57.4452C126.801 57.2249 129.733 57.1866 132.214 58.4511C133.22 58.9589 134.235 60.0701 133.737 61.0856C133.402 61.7754 132.559 62.0053 131.802 62.1298C125.393 63.1932 117.346 62.2927 111.358 59.754C114.596 57.8572 120.248 57.7422 124.023 57.4452Z" fill="#F28482"/>
<path d="M98.6933 62.0533C95.9151 62.2737 92.9836 62.312 90.5024 61.0474C89.4965 60.5397 88.481 59.4284 88.9792 58.4129C89.3145 57.7232 90.1575 57.4932 90.9143 57.3687C97.3233 56.3053 105.371 57.2058 111.358 59.7445C108.12 61.6414 102.468 61.7563 98.6933 62.0533Z" fill="#F28482"/>
<path d="M118.677 49.1682C120.488 47.051 122.528 44.953 125.182 44.0812C126.255 43.7267 127.75 43.7938 128.123 44.8572C128.372 45.5757 127.941 46.3421 127.491 46.9648C123.707 52.2434 117.394 57.3016 111.358 59.7445C112.307 56.1233 116.234 52.0422 118.677 49.1682Z" fill="#F28482"/>
<path d="M104.039 70.3303C102.228 72.4475 100.188 74.5455 97.5342 75.4173C96.4613 75.7717 94.9668 75.7047 94.5932 74.6317C94.3441 73.9132 94.7752 73.1468 95.2254 72.5241C99.0095 67.2455 105.323 62.1873 111.358 59.7444C110.41 63.3752 106.482 67.4563 104.039 70.3303Z" fill="#F28482"/>
<path d="M121.944 67.073C124.071 68.8836 126.159 70.9242 127.031 73.5778C127.385 74.6508 127.318 76.1453 126.255 76.5189C125.536 76.768 124.77 76.3369 124.147 75.8866C118.869 72.1025 113.811 65.7893 111.368 59.7539C114.979 60.7023 119.06 64.6205 121.944 67.073Z" fill="#F28482"/>
<path d="M100.772 52.4253C98.6454 50.6146 96.557 48.5741 95.6852 45.9204C95.3307 44.8475 95.3978 43.353 96.4612 42.9794C97.1797 42.7303 97.9461 43.1614 98.5688 43.6117C103.847 47.3958 108.906 53.709 111.349 59.7444C107.737 58.796 103.656 54.8777 100.772 52.4253Z" fill="#F28482"/>
<path d="M114.175 59.754C114.175 61.306 112.92 62.5705 111.358 62.5705C109.806 62.5705 108.542 61.3156 108.542 59.754C108.542 58.2021 109.796 56.9375 111.358 56.9375C112.91 56.9375 114.175 58.2021 114.175 59.754Z" fill="#FFF8ED"/>
<path d="M140.414 45.8631C140.261 43.9471 140.232 41.9161 141.104 40.2013C141.458 39.5019 142.225 38.8026 142.924 39.1475C143.403 39.3774 143.556 39.9618 143.643 40.4887C144.371 44.9146 143.758 50.4806 142.004 54.6192C140.702 52.3775 140.625 48.4688 140.414 45.8631Z" fill="#329F5B"/>
<path d="M143.604 63.3657C143.758 65.2817 143.786 67.3127 142.914 69.0275C142.56 69.7269 141.794 70.4262 141.094 70.0813C140.615 69.8514 140.462 69.267 140.376 68.7401C139.648 64.3142 140.261 58.7482 142.014 54.6096C143.317 56.8513 143.393 60.76 143.604 63.3657Z" fill="#329F5B"/>
<path d="M150.761 53.0193C152.677 52.866 154.707 52.8373 156.422 53.7091C157.122 54.0635 157.821 54.8299 157.476 55.5293C157.246 56.0083 156.662 56.1616 156.135 56.2478C151.709 56.9759 146.143 56.3627 142.004 54.6096C144.246 53.3067 148.155 53.2301 150.761 53.0193Z" fill="#329F5B"/>
<path d="M133.258 56.2095C131.342 56.3627 129.311 56.3915 127.596 55.5197C126.897 55.1652 126.197 54.3988 126.542 53.6995C126.772 53.2205 127.357 53.0672 127.883 52.981C132.309 52.2529 137.875 52.866 142.014 54.6192C139.772 55.9221 135.864 55.9987 133.258 56.2095Z" fill="#329F5B"/>
<path d="M147.063 47.3001C148.308 45.8343 149.726 44.3878 151.556 43.7842C152.293 43.5447 153.328 43.5926 153.587 44.3207C153.759 44.8189 153.462 45.3458 153.156 45.7769C150.54 49.4268 146.172 52.9235 142.004 54.6096C142.665 52.1092 145.377 49.2927 147.063 47.3001Z" fill="#329F5B"/>
<path d="M136.946 61.9287C135.701 63.3944 134.283 64.841 132.453 65.4445C131.715 65.684 130.681 65.6361 130.422 64.9081C130.25 64.4099 130.547 63.883 130.853 63.4519C133.469 59.8019 137.837 56.3052 142.004 54.6191C141.353 57.1195 138.642 59.936 136.946 61.9287Z" fill="#329F5B"/>
<path d="M149.323 59.6774C150.789 60.9228 152.236 62.3406 152.839 64.1704C153.079 64.9081 153.031 65.9427 152.303 66.2014C151.805 66.3738 151.278 66.0768 150.847 65.7703C147.197 63.1549 143.7 58.7864 142.014 54.6191C144.514 55.2706 147.331 57.9817 149.323 59.6774Z" fill="#329F5B"/>
<path d="M134.695 49.5514C133.229 48.306 131.783 46.8881 131.179 45.0584C130.939 44.3207 130.987 43.2861 131.715 43.0274C132.214 42.855 132.741 43.1519 133.172 43.4585C136.822 46.0738 140.318 50.4423 142.004 54.6096C139.504 53.9582 136.678 51.247 134.695 49.5514Z" fill="#329F5B"/>
<path d="M142.004 56.5638C143.078 56.5638 143.949 55.6931 143.949 54.6191C143.949 53.545 143.078 52.6743 142.004 52.6743C140.93 52.6743 140.06 53.545 140.06 54.6191C140.06 55.6931 140.93 56.5638 142.004 56.5638Z" fill="#F28482"/>
<path d="M123.218 137.074C125.043 137.074 126.523 135.595 126.523 133.769C126.523 131.944 125.043 130.464 123.218 130.464C121.393 130.464 119.913 131.944 119.913 133.769C119.913 135.595 121.393 137.074 123.218 137.074Z" fill="#FFF8ED"/>
<path d="M118.485 151.234C120.219 148.695 121.292 145.782 122.356 142.899C123.017 141.098 123.678 139.297 124.339 137.496C123.773 137.084 123.132 136.816 122.423 136.787C119.549 136.681 116.493 139.69 115.171 141.941C113.734 144.403 113.005 147.2 111.904 149.825C110.438 153.293 108.283 156.464 105.591 159.108C110.716 158.419 115.554 155.525 118.485 151.234Z" fill="#329F5B"/>
<path d="M127.491 143.522C127.232 141.692 126.14 138.818 124.329 137.505C123.668 139.306 123.007 141.107 122.346 142.908C121.292 145.792 120.21 148.704 118.476 151.243C115.544 155.525 110.716 158.419 105.581 159.127C105.514 159.194 105.447 159.271 105.38 159.338C110.457 161.379 116.56 160.861 121.062 157.748C125.575 154.634 128.247 148.944 127.491 143.522Z" fill="#0C8346"/>
<path d="M224.546 137.074C226.371 137.074 227.851 135.595 227.851 133.769C227.851 131.944 226.371 130.464 224.546 130.464C222.72 130.464 221.24 131.944 221.24 133.769C221.24 135.595 222.72 137.074 224.546 137.074Z" fill="#FFF8ED"/>
<path d="M229.269 151.234C227.535 148.695 226.462 145.782 225.398 142.899C224.737 141.098 224.076 139.297 223.415 137.496C223.981 137.084 224.622 136.816 225.331 136.787C228.205 136.681 231.261 139.69 232.583 141.941C234.02 144.403 234.748 147.2 235.85 149.825C237.316 153.293 239.471 156.464 242.163 159.108C237.038 158.419 232.21 155.525 229.269 151.234Z" fill="#329F5B"/>
<path d="M220.263 143.522C220.522 141.692 221.614 138.818 223.425 137.505C224.086 139.306 224.747 141.107 225.408 142.908C226.462 145.792 227.544 148.704 229.278 151.243C232.21 155.525 237.038 158.419 242.173 159.127C242.24 159.194 242.307 159.271 242.374 159.338C237.297 161.379 231.194 160.861 226.692 157.748C222.179 154.634 219.507 148.944 220.263 143.522Z" fill="#0C8346"/>
<g opacity="0.5">
<path d="M154.506 43.6598C158.999 42.1654 163.828 41.4085 168.618 42.0025C173.408 42.5294 178.025 44.8382 181.349 48.354C184.664 51.8891 186.906 56.3438 187.998 60.9996C188.544 63.3372 188.87 65.7034 188.994 68.0888C189.1 70.4647 189.052 72.8501 188.841 75.2068C188.822 72.8405 188.764 70.4647 188.487 68.1272C188.257 65.7801 187.845 63.4617 187.222 61.2008C185.996 56.6886 183.831 52.4064 180.593 49.063C179.002 47.3769 177.153 45.9303 175.094 44.8861C173.034 43.8227 170.792 43.1521 168.493 42.7785C166.194 42.3857 163.828 42.357 161.49 42.5294C159.143 42.6923 156.815 43.1329 154.506 43.6598Z" fill="#FFF8ED"/>
<path d="M176.147 38.3716C181.033 38.1034 186.015 37.9405 190.862 39.1667C195.729 40.3451 200.069 43.334 203.259 47.1469C206.439 51.0076 208.547 55.6731 209.591 60.511C210.118 62.9347 210.396 65.3968 210.501 67.8588C210.568 70.3209 210.492 72.783 210.214 75.2259C210.252 72.7734 210.233 70.3209 209.994 67.8876C209.783 65.4543 209.419 63.0401 208.815 60.693C207.647 55.9892 205.596 51.4866 202.464 47.8079C200.931 45.959 199.159 44.292 197.166 42.9508C195.183 41.5905 192.96 40.6229 190.652 39.9331C188.333 39.253 185.909 38.8985 183.486 38.7165C181.052 38.477 178.6 38.4578 176.147 38.3716Z" fill="#FFF8ED"/>
<path d="M191.274 39.4062C193.392 39.5691 195.499 40.0002 197.559 40.575C199.609 41.1881 201.602 41.9929 203.518 42.97C207.35 44.9243 210.789 47.6642 213.548 51.0076C216.288 54.3606 218.271 58.3172 219.315 62.4941C219.842 64.5825 220.158 66.7092 220.283 68.8456C220.369 70.9819 220.302 73.1183 219.995 75.2259C220.043 73.0991 219.986 70.9819 219.717 68.8935C219.478 66.805 219.066 64.7358 218.453 62.7336C217.236 58.7291 215.301 54.9546 212.647 51.7453C210.013 48.5168 206.717 45.844 203.087 43.7556C201.266 42.7114 199.36 41.83 197.377 41.1115C195.413 40.3547 193.363 39.8182 191.274 39.4062Z" fill="#FFF8ED"/>
</g>
</svg>
