<svg width="808" height="685" viewBox="0 0 808 685" fill="none" xmlns="http://www.w3.org/2000/svg">
<g filter="url(#filter0_d_334_1003)">
<rect x="100" y="90" width="608" height="483" rx="30" fill="white"/>
<path d="M527.31 267.552C583.219 267.552 628.542 233.402 628.542 191.276C628.542 149.15 583.219 115 527.31 115C471.401 115 426.078 149.15 426.078 191.276C426.078 233.402 471.401 267.552 527.31 267.552Z" stroke="#8FD5A6" stroke-width="1.0046" stroke-miterlimit="10"/>
<g opacity="0.8">
<path d="M527.281 267.552C579.708 267.552 622.209 233.402 622.209 191.276C622.209 149.15 579.708 115 527.281 115C474.853 115 432.353 149.15 432.353 191.276C432.353 233.402 474.853 267.552 527.281 267.552Z" fill="#8FD5A6"/>
<path d="M478.883 211.528C471.956 232.374 451.474 247.98 429.536 249.139C442.201 254.427 457.443 253.029 468.929 245.508C472.866 242.931 476.334 239.712 479.726 236.446C484.765 231.589 489.775 226.406 492.419 219.93" fill="#8FD5A6"/>
</g>
<path d="M487.388 154.157H480.788V151.597C481.695 151.571 482.562 151.464 483.388 151.277C484.242 151.091 485.002 150.784 485.668 150.357C486.362 149.904 486.935 149.331 487.388 148.637C487.842 147.917 488.135 147.037 488.268 145.997H491.268V174.677H487.388V154.157ZM508.131 175.317C506.371 175.317 504.797 174.971 503.411 174.277C502.024 173.557 500.851 172.557 499.891 171.277C498.931 169.971 498.197 168.397 497.691 166.557C497.184 164.717 496.931 162.664 496.931 160.397C496.931 158.104 497.197 156.037 497.731 154.197C498.264 152.357 499.011 150.797 499.971 149.517C500.957 148.237 502.144 147.251 503.531 146.557C504.917 145.864 506.464 145.517 508.171 145.517C509.877 145.517 511.424 145.864 512.811 146.557C514.197 147.224 515.371 148.197 516.331 149.477C517.317 150.757 518.064 152.317 518.571 154.157C519.104 155.997 519.371 158.077 519.371 160.397C519.371 162.664 519.117 164.717 518.611 166.557C518.131 168.397 517.411 169.971 516.451 171.277C515.491 172.557 514.304 173.557 512.891 174.277C511.504 174.971 509.917 175.317 508.131 175.317ZM508.171 172.037C510.651 172.037 512.464 170.997 513.611 168.917C514.784 166.837 515.371 163.997 515.371 160.397C515.371 158.637 515.224 157.037 514.931 155.597C514.637 154.157 514.184 152.931 513.571 151.917C512.984 150.904 512.237 150.131 511.331 149.597C510.424 149.037 509.371 148.757 508.171 148.757C506.944 148.757 505.877 149.037 504.971 149.597C504.064 150.131 503.304 150.904 502.691 151.917C502.104 152.904 501.651 154.117 501.331 155.557C501.037 156.997 500.891 158.611 500.891 160.397C500.891 162.157 501.037 163.757 501.331 165.197C501.651 166.637 502.104 167.864 502.691 168.877C503.304 169.891 504.064 170.677 504.971 171.237C505.877 171.771 506.944 172.037 508.171 172.037ZM534.81 175.317C533.05 175.317 531.477 174.971 530.09 174.277C528.704 173.557 527.53 172.557 526.57 171.277C525.61 169.971 524.877 168.397 524.37 166.557C523.864 164.717 523.61 162.664 523.61 160.397C523.61 158.104 523.877 156.037 524.41 154.197C524.944 152.357 525.69 150.797 526.65 149.517C527.637 148.237 528.824 147.251 530.21 146.557C531.597 145.864 533.144 145.517 534.85 145.517C536.557 145.517 538.104 145.864 539.49 146.557C540.877 147.224 542.05 148.197 543.01 149.477C543.997 150.757 544.744 152.317 545.25 154.157C545.784 155.997 546.05 158.077 546.05 160.397C546.05 162.664 545.797 164.717 545.29 166.557C544.81 168.397 544.09 169.971 543.13 171.277C542.17 172.557 540.984 173.557 539.57 174.277C538.184 174.971 536.597 175.317 534.81 175.317ZM534.85 172.037C537.33 172.037 539.144 170.997 540.29 168.917C541.464 166.837 542.05 163.997 542.05 160.397C542.05 158.637 541.904 157.037 541.61 155.597C541.317 154.157 540.864 152.931 540.25 151.917C539.664 150.904 538.917 150.131 538.01 149.597C537.104 149.037 536.05 148.757 534.85 148.757C533.624 148.757 532.557 149.037 531.65 149.597C530.744 150.131 529.984 150.904 529.37 151.917C528.784 152.904 528.33 154.117 528.01 155.557C527.717 156.997 527.57 158.611 527.57 160.397C527.57 162.157 527.717 163.757 528.01 165.197C528.33 166.637 528.784 167.864 529.37 168.877C529.984 169.891 530.744 170.677 531.65 171.237C532.557 171.771 533.624 172.037 534.85 172.037ZM556.45 162.037C555.437 162.037 554.517 161.851 553.69 161.477C552.863 161.077 552.143 160.517 551.53 159.797C550.943 159.077 550.477 158.211 550.13 157.197C549.81 156.157 549.65 155.011 549.65 153.757C549.65 152.504 549.823 151.371 550.17 150.357C550.517 149.344 550.997 148.477 551.61 147.757C552.223 147.037 552.943 146.491 553.77 146.117C554.597 145.717 555.49 145.517 556.45 145.517C557.437 145.517 558.343 145.704 559.17 146.077C559.997 146.451 560.703 146.997 561.29 147.717C561.903 148.437 562.383 149.304 562.73 150.317C563.077 151.331 563.25 152.477 563.25 153.757C563.25 155.011 563.077 156.157 562.73 157.197C562.41 158.211 561.943 159.077 561.33 159.797C560.743 160.517 560.037 161.077 559.21 161.477C558.383 161.851 557.463 162.037 556.45 162.037ZM572.77 146.197H575.69L559.45 174.677H556.49L572.77 146.197ZM575.73 175.277C574.717 175.277 573.797 175.077 572.97 174.677C572.143 174.304 571.423 173.757 570.81 173.037C570.223 172.317 569.757 171.451 569.41 170.437C569.09 169.424 568.93 168.291 568.93 167.037C568.93 165.757 569.103 164.611 569.45 163.597C569.797 162.584 570.277 161.731 570.89 161.037C571.503 160.317 572.223 159.771 573.05 159.397C573.877 158.997 574.77 158.797 575.73 158.797C576.717 158.797 577.623 158.984 578.45 159.357C579.277 159.731 579.983 160.277 580.57 160.997C581.183 161.691 581.663 162.557 582.01 163.597C582.357 164.611 582.53 165.757 582.53 167.037C582.53 168.291 582.357 169.424 582.01 170.437C581.69 171.451 581.223 172.317 580.61 173.037C580.023 173.757 579.317 174.304 578.49 174.677C577.663 175.077 576.743 175.277 575.73 175.277ZM556.45 159.397C557.65 159.397 558.53 158.877 559.09 157.837C559.677 156.771 559.97 155.411 559.97 153.757C559.97 152.957 559.89 152.224 559.73 151.557C559.57 150.864 559.343 150.264 559.05 149.757C558.757 149.251 558.383 148.851 557.93 148.557C557.503 148.264 557.01 148.117 556.45 148.117C555.33 148.117 554.477 148.651 553.89 149.717C553.303 150.784 553.01 152.131 553.01 153.757C553.01 155.357 553.303 156.704 553.89 157.797C554.477 158.864 555.33 159.397 556.45 159.397ZM575.73 172.637C576.93 172.637 577.81 172.117 578.37 171.077C578.93 170.037 579.21 168.691 579.21 167.037C579.21 165.437 578.903 164.091 578.29 162.997C577.703 161.904 576.85 161.357 575.73 161.357C574.61 161.357 573.757 161.891 573.17 162.957C572.583 164.024 572.29 165.384 572.29 167.037C572.29 168.637 572.583 169.971 573.17 171.037C573.757 172.104 574.61 172.637 575.73 172.637Z" fill="#0D5D56"/>
<path d="M468.608 212.797H474.868C475.668 212.797 476.362 212.924 476.948 213.177C477.548 213.417 478.042 213.771 478.428 214.237C478.762 214.624 479.022 215.057 479.208 215.537C479.395 216.017 479.488 216.557 479.488 217.157C479.488 218.531 479.088 219.611 478.288 220.397C477.488 221.171 476.282 221.557 474.668 221.557H470.668V227.677H468.608V212.797ZM470.668 219.897H474.468C475.482 219.897 476.228 219.664 476.708 219.197C477.202 218.717 477.448 218.057 477.448 217.217C477.448 216.337 477.195 215.677 476.688 215.237C476.182 214.797 475.468 214.577 474.548 214.577H470.668V219.897ZM481.558 212.797H488.518C489.184 212.797 489.791 212.897 490.338 213.097C490.884 213.284 491.351 213.557 491.738 213.917C492.138 214.277 492.444 214.711 492.658 215.217C492.871 215.724 492.978 216.284 492.978 216.897C492.978 217.804 492.771 218.577 492.358 219.217C491.944 219.844 491.244 220.311 490.258 220.617V220.677C490.671 220.797 491.018 220.957 491.298 221.157C491.578 221.357 491.804 221.604 491.978 221.897C492.151 222.177 492.278 222.517 492.358 222.917C492.451 223.317 492.518 223.784 492.558 224.317C492.598 224.904 492.644 225.397 492.698 225.797C492.751 226.184 492.804 226.504 492.858 226.757C492.911 226.997 492.964 227.184 493.018 227.317C493.084 227.437 493.158 227.524 493.238 227.577V227.677H491.058C490.978 227.611 490.911 227.511 490.858 227.377C490.804 227.244 490.758 227.051 490.718 226.797C490.678 226.544 490.644 226.224 490.618 225.837C490.591 225.437 490.558 224.937 490.518 224.337C490.451 223.284 490.184 222.544 489.718 222.117C489.251 221.691 488.531 221.477 487.558 221.477H483.598V227.677H481.558V212.797ZM483.598 219.837H487.858C488.871 219.837 489.624 219.604 490.118 219.137C490.624 218.657 490.878 218.011 490.878 217.197C490.878 216.317 490.651 215.657 490.198 215.217C489.758 214.777 489.011 214.557 487.958 214.557H483.598V219.837ZM502.281 227.997C501.161 227.997 500.148 227.804 499.241 227.417C498.348 227.017 497.581 226.471 496.941 225.777C496.315 225.084 495.835 224.264 495.501 223.317C495.168 222.371 495.001 221.344 495.001 220.237C495.001 219.117 495.168 218.084 495.501 217.137C495.835 216.191 496.315 215.377 496.941 214.697C497.581 214.004 498.348 213.464 499.241 213.077C500.148 212.677 501.161 212.477 502.281 212.477C503.401 212.477 504.408 212.677 505.301 213.077C506.208 213.464 506.975 214.004 507.601 214.697C508.241 215.377 508.728 216.191 509.061 217.137C509.408 218.084 509.581 219.117 509.581 220.237C509.581 221.344 509.408 222.371 509.061 223.317C508.728 224.264 508.241 225.084 507.601 225.777C506.975 226.471 506.208 227.017 505.301 227.417C504.408 227.804 503.401 227.997 502.281 227.997ZM502.281 226.197C503.121 226.197 503.861 226.051 504.501 225.757C505.155 225.451 505.701 225.031 506.141 224.497C506.581 223.964 506.908 223.337 507.121 222.617C507.348 221.884 507.461 221.091 507.461 220.237C507.461 219.384 507.348 218.591 507.121 217.857C506.908 217.124 506.581 216.491 506.141 215.957C505.701 215.424 505.155 215.004 504.501 214.697C503.861 214.391 503.121 214.237 502.281 214.237C501.441 214.237 500.695 214.391 500.041 214.697C499.401 215.004 498.861 215.424 498.421 215.957C497.981 216.491 497.648 217.124 497.421 217.857C497.195 218.591 497.081 219.384 497.081 220.237C497.081 221.091 497.195 221.884 497.421 222.617C497.648 223.337 497.981 223.964 498.421 224.497C498.861 225.031 499.401 225.451 500.041 225.757C500.695 226.051 501.441 226.197 502.281 226.197ZM512.085 212.797H517.585C518.692 212.797 519.658 212.977 520.485 213.337C521.325 213.697 522.018 214.211 522.565 214.877C523.125 215.531 523.538 216.317 523.805 217.237C524.085 218.157 524.225 219.177 524.225 220.297C524.225 221.404 524.078 222.411 523.785 223.317C523.505 224.224 523.078 225.004 522.505 225.657C521.932 226.297 521.225 226.797 520.385 227.157C519.545 227.504 518.565 227.677 517.445 227.677H512.085V212.797ZM517.365 225.897C518.205 225.897 518.925 225.771 519.525 225.517C520.125 225.251 520.612 224.877 520.985 224.397C521.372 223.904 521.652 223.311 521.825 222.617C522.012 221.924 522.105 221.151 522.105 220.297C522.105 219.444 522.018 218.664 521.845 217.957C521.685 217.251 521.418 216.651 521.045 216.157C520.685 215.651 520.212 215.264 519.625 214.997C519.038 214.717 518.325 214.577 517.485 214.577H514.145V225.897H517.365ZM532.233 227.897C531.393 227.897 530.62 227.804 529.913 227.617C529.22 227.417 528.62 227.117 528.113 226.717C527.607 226.304 527.207 225.777 526.913 225.137C526.633 224.497 526.493 223.731 526.493 222.837V212.797H528.533V222.657C528.533 223.884 528.853 224.777 529.493 225.337C530.147 225.884 531.073 226.157 532.273 226.157C533.433 226.157 534.333 225.884 534.973 225.337C535.613 224.777 535.933 223.884 535.933 222.657V212.797H537.973V222.837C537.973 223.731 537.827 224.497 537.533 225.137C537.24 225.777 536.833 226.304 536.313 226.717C535.807 227.117 535.2 227.417 534.493 227.617C533.8 227.804 533.047 227.897 532.233 227.897ZM547.255 227.977C546.189 227.977 545.222 227.784 544.355 227.397C543.502 227.011 542.769 226.477 542.155 225.797C541.555 225.104 541.089 224.284 540.755 223.337C540.422 222.391 540.255 221.357 540.255 220.237C540.255 219.144 540.415 218.124 540.735 217.177C541.055 216.231 541.515 215.411 542.115 214.717C542.729 214.024 543.469 213.477 544.335 213.077C545.215 212.677 546.209 212.477 547.315 212.477C548.195 212.477 548.975 212.597 549.655 212.837C550.349 213.064 550.949 213.384 551.455 213.797C551.989 214.224 552.409 214.737 552.715 215.337C553.035 215.924 553.249 216.577 553.355 217.297H551.315C551.142 216.377 550.709 215.644 550.015 215.097C549.335 214.537 548.422 214.257 547.275 214.257C546.489 214.257 545.789 214.411 545.175 214.717C544.562 215.011 544.042 215.424 543.615 215.957C543.202 216.491 542.882 217.124 542.655 217.857C542.442 218.591 542.335 219.384 542.335 220.237C542.335 221.131 542.449 221.944 542.675 222.677C542.915 223.411 543.249 224.037 543.675 224.557C544.115 225.077 544.642 225.484 545.255 225.777C545.869 226.057 546.549 226.197 547.295 226.197C547.975 226.197 548.562 226.091 549.055 225.877C549.562 225.664 549.982 225.377 550.315 225.017C550.662 224.657 550.929 224.244 551.115 223.777C551.315 223.297 551.435 222.791 551.475 222.257H553.515C553.515 222.631 553.469 223.011 553.375 223.397C553.295 223.771 553.175 224.137 553.015 224.497C552.855 224.857 552.669 225.204 552.455 225.537C552.242 225.857 552.002 226.144 551.735 226.397C550.682 227.451 549.189 227.977 547.255 227.977ZM554.505 212.797H566.345V214.597H561.445V227.677H559.385V214.597H554.505V212.797ZM573.678 227.977C572.638 227.977 571.724 227.844 570.938 227.577C570.164 227.311 569.511 226.951 568.978 226.497C568.458 226.031 568.058 225.484 567.778 224.857C567.498 224.231 567.338 223.564 567.298 222.857H569.318C569.438 223.991 569.864 224.857 570.598 225.457C571.331 226.044 572.378 226.337 573.738 226.337C574.231 226.337 574.684 226.284 575.098 226.177C575.524 226.057 575.884 225.891 576.178 225.677C576.484 225.451 576.724 225.171 576.898 224.837C577.071 224.504 577.158 224.111 577.158 223.657C577.158 223.177 577.051 222.777 576.838 222.457C576.638 222.137 576.344 221.871 575.958 221.657C575.584 221.444 575.131 221.264 574.598 221.117C574.078 220.971 573.491 220.824 572.838 220.677C572.171 220.544 571.538 220.384 570.938 220.197C570.351 220.011 569.831 219.764 569.378 219.457C568.924 219.137 568.564 218.744 568.298 218.277C568.044 217.811 567.918 217.217 567.918 216.497C567.918 215.871 568.044 215.311 568.298 214.817C568.551 214.324 568.904 213.911 569.358 213.577C569.811 213.231 570.351 212.971 570.978 212.797C571.618 212.611 572.318 212.517 573.078 212.517C573.998 212.517 574.791 212.631 575.458 212.857C576.124 213.071 576.684 213.371 577.138 213.757C577.604 214.144 577.964 214.604 578.218 215.137C578.471 215.671 578.644 216.257 578.738 216.897H576.758C576.624 215.991 576.244 215.304 575.618 214.837C574.991 214.357 574.151 214.117 573.098 214.117C572.111 214.117 571.324 214.311 570.738 214.697C570.151 215.084 569.858 215.651 569.858 216.397C569.858 216.797 569.951 217.137 570.138 217.417C570.338 217.684 570.604 217.911 570.938 218.097C571.284 218.284 571.691 218.444 572.158 218.577C572.638 218.697 573.158 218.817 573.718 218.937C574.438 219.084 575.124 219.251 575.778 219.437C576.444 219.624 577.031 219.891 577.538 220.237C578.058 220.571 578.464 221.004 578.758 221.537C579.064 222.071 579.218 222.751 579.218 223.577C579.218 224.284 579.078 224.911 578.798 225.457C578.531 226.004 578.151 226.464 577.658 226.837C577.164 227.211 576.578 227.491 575.898 227.677C575.218 227.877 574.478 227.977 573.678 227.977Z" fill="#0D5D56"/>
<path d="M494.108 203.037C493.575 203.344 492.988 203.577 492.348 203.737C491.722 203.911 491.048 203.997 490.328 203.997C489.208 203.997 488.195 203.804 487.288 203.417C486.395 203.017 485.628 202.471 484.988 201.777C484.362 201.084 483.882 200.264 483.548 199.317C483.215 198.371 483.048 197.344 483.048 196.237C483.048 195.117 483.215 194.084 483.548 193.137C483.882 192.191 484.362 191.377 484.988 190.697C485.628 190.004 486.395 189.464 487.288 189.077C488.195 188.677 489.208 188.477 490.328 188.477C491.448 188.477 492.455 188.677 493.348 189.077C494.255 189.464 495.022 190.004 495.648 190.697C496.275 191.377 496.755 192.191 497.088 193.137C497.435 194.084 497.608 195.117 497.608 196.237C497.608 197.424 497.415 198.511 497.028 199.497C496.655 200.484 496.115 201.331 495.408 202.037L497.548 203.757L496.528 204.997L494.108 203.037ZM490.328 202.237C491.155 202.237 491.895 202.084 492.548 201.777L490.628 200.217L491.628 198.977L493.908 200.817C494.428 200.271 494.822 199.611 495.088 198.837C495.368 198.051 495.508 197.184 495.508 196.237C495.508 195.384 495.395 194.591 495.168 193.857C494.955 193.124 494.628 192.491 494.188 191.957C493.748 191.424 493.202 191.004 492.548 190.697C491.908 190.391 491.168 190.237 490.328 190.237C489.488 190.237 488.742 190.391 488.088 190.697C487.448 191.004 486.908 191.424 486.468 191.957C486.028 192.491 485.695 193.124 485.468 193.857C485.242 194.591 485.128 195.384 485.128 196.237C485.128 197.091 485.242 197.884 485.468 198.617C485.695 199.337 486.028 199.971 486.468 200.517C486.908 201.051 487.448 201.471 488.088 201.777C488.742 202.084 489.488 202.237 490.328 202.237ZM505.612 203.897C504.772 203.897 503.999 203.804 503.292 203.617C502.599 203.417 501.999 203.117 501.492 202.717C500.986 202.304 500.586 201.777 500.292 201.137C500.012 200.497 499.872 199.731 499.872 198.837V188.797H501.912V198.657C501.912 199.884 502.232 200.777 502.872 201.337C503.526 201.884 504.452 202.157 505.652 202.157C506.812 202.157 507.712 201.884 508.352 201.337C508.992 200.777 509.312 199.884 509.312 198.657V188.797H511.352V198.837C511.352 199.731 511.206 200.497 510.912 201.137C510.619 201.777 510.212 202.304 509.692 202.717C509.186 203.117 508.579 203.417 507.872 203.617C507.179 203.804 506.426 203.897 505.612 203.897ZM518.181 188.797H520.461L525.941 203.677H523.701L522.221 199.337H516.361L514.841 203.677H512.741L518.181 188.797ZM516.921 197.737H521.681L520.261 193.577C520.128 193.217 520.008 192.851 519.901 192.477C519.795 192.104 519.701 191.764 519.621 191.457C519.528 191.111 519.441 190.764 519.361 190.417H519.301C519.208 190.764 519.115 191.117 519.021 191.477C518.928 191.784 518.828 192.124 518.721 192.497C518.615 192.871 518.501 193.231 518.381 193.577L516.921 197.737ZM527.866 188.797H529.906V201.817H537.606V203.677H527.866V188.797ZM539.801 188.797H541.841V203.677H539.801V188.797ZM544.036 188.797H555.876V190.597H550.976V203.677H548.916V190.597H544.036V188.797ZM562.417 197.437L557.057 188.797H559.337L562.017 193.277C562.164 193.544 562.324 193.837 562.497 194.157C562.671 194.477 562.831 194.777 562.977 195.057L563.477 196.057H563.517C563.677 195.724 563.844 195.391 564.017 195.057C564.164 194.777 564.324 194.477 564.497 194.157C564.671 193.837 564.837 193.544 564.997 193.277L567.697 188.797H569.877L564.457 197.537V203.677H562.417V197.437Z" fill="#0D5D56"/>
<path d="M304.105 154.92C304.105 154.92 288.04 160.735 278.814 203.778C269.924 245.317 254.749 261.718 237.793 277.266C220.836 292.814 205.518 308.018 211.534 328.318C217.55 348.618 238.885 351.904 238.885 351.904C238.885 351.904 236.787 393.146 268.975 407.707C301.155 422.269 439.059 417.575 458.123 396.69C468.057 385.807 472.627 366.149 469.274 351.3C466.189 337.668 455.527 328.327 455.527 328.327C455.527 328.327 478.078 320.673 465.5 291.464C452.921 262.254 430.906 268.778 419.41 235.948C407.924 203.107 407.732 189.446 407.732 189.446L304.105 154.92Z" fill="#00352F"/>
<path d="M458.123 369.311L465.097 383.029L482.494 306.753C482.494 306.753 475.271 300.258 473.125 293.063C470.979 285.878 470.979 285.878 470.979 285.878L476.603 280.111C476.603 280.111 475.53 239.042 478.749 236.101C481.958 233.16 487.85 271.968 487.85 271.968C487.85 271.968 496.414 236.369 499.892 237.442C503.369 238.515 499.892 266.603 499.892 266.603C501.587 265.454 503.839 265.559 505.41 266.881L509.385 270.215C511.119 271.671 511.531 274.181 510.353 276.107L507.728 280.408C507.728 280.408 511.637 276.72 515.038 279.843C518.438 282.966 519.061 288.455 518.486 291.291C517.921 294.127 511.512 302.059 508.811 304.473C506.119 306.887 500.773 310.48 500.773 310.48C500.773 310.48 497.315 361.484 494.929 384.581C492.544 407.679 481.393 449.093 481.393 449.093C481.393 449.093 458.094 439.887 447.671 429.981C437.248 420.075 427.227 407.152 427.227 407.152L437.047 374.235L458.123 369.311Z" fill="#F5CAC3"/>
<path d="M379.394 291.76L378.226 283.474C371.52 286.855 363.884 288.417 356.393 287.823C350.683 287.373 345.088 285.677 340.049 282.956L339.513 291.051L331.207 295.564L371.328 328.327L388.658 295.334L379.394 291.76Z" fill="#F5CAC3"/>
<path d="M378.216 283.474L375.831 266.594L340.931 269.679L340.049 282.956C345.088 285.677 350.683 287.373 356.393 287.823C363.884 288.407 371.51 286.855 378.216 283.474Z" fill="#F28482"/>
<path d="M411.899 227.498C411.899 232.068 410.75 236.628 408.594 240.651C406.87 243.861 404.235 246.897 400.662 247.626C396.686 248.43 392.51 245.959 390.555 242.395C387.068 236.043 389.626 224.097 395.106 219.211C402.99 212.189 411.899 217.841 411.899 227.498Z" fill="#F28482"/>
<path d="M399.225 177.634C399.225 177.634 408.93 250.289 390.297 267.992C371.022 286.3 341.851 284.48 323.649 267.992C305.437 251.505 302.007 217.832 299.938 201C297.878 184.167 309.279 158.052 351.162 157.707C393.046 157.363 399.225 177.634 399.225 177.634Z" fill="#F5CAC3"/>
<path d="M298.951 233.619C305.341 230.247 308.78 223.081 310.505 216.059C313.953 202.005 312.018 186.687 305.159 173.936C297.658 181.658 293.203 191.573 292.398 202.302C291.594 213.042 294.008 224.068 298.951 233.619Z" fill="#00352F"/>
<path d="M305.647 183.88C309.441 178.314 314.701 173.61 321.004 171.244C327.308 168.878 334.684 169.031 340.528 172.384C346.362 175.737 350.319 182.472 349.648 189.178L407.761 189.427C407.435 179.387 406.477 168.868 400.93 160.495C395.968 152.994 387.758 148.07 379.097 145.646C370.437 143.213 361.307 143.069 352.331 143.539C335.719 144.411 318.964 147.419 304.124 154.92L305.647 183.88Z" fill="#00352F"/>
<path d="M286.44 226.76C286.44 231.857 287.723 236.953 290.138 241.446C292.054 245.029 295.014 248.43 298.99 249.235C303.435 250.135 308.091 247.367 310.275 243.391C314.174 236.302 311.319 222.947 305.197 217.506C296.384 209.669 286.44 215.983 286.44 226.76Z" fill="#F5CAC3"/>
<path opacity="0.5" d="M303.942 241.245C301.729 241.619 299.344 240.613 298.06 238.774C296.776 236.934 296.652 234.348 297.763 232.403C298.079 231.857 298.491 231.339 299.056 231.052C299.526 230.803 300.072 230.736 300.608 230.726C302.745 230.688 304.881 231.569 306.366 233.112C305.839 230.439 305.255 227.728 303.952 225.323C302.649 222.919 300.522 220.84 297.869 220.217C295.215 219.594 292.063 220.763 290.971 223.264C290.971 223.264 288.231 232.039 294.429 238.227C300.608 244.407 303.942 241.245 303.942 241.245Z" fill="#F28482"/>
<path d="M290.961 223.254C291.69 221.29 293.759 220.054 295.838 219.805C297.974 219.556 300.12 220.456 301.72 221.826C303.358 223.187 304.479 225.074 305.245 227.019C306.012 228.973 306.462 231.004 306.864 233.006L307.209 234.74L305.992 233.466C304.747 232.154 302.975 231.32 301.155 231.205C300.225 231.148 299.344 231.215 298.769 231.809C298.175 232.393 297.754 233.265 297.533 234.137C297.102 235.909 297.543 237.911 298.807 239.291C300.053 240.689 302.007 241.456 303.952 241.255C302.036 241.686 299.919 241.034 298.453 239.636C296.987 238.208 296.384 236.005 296.767 233.974C296.978 232.958 297.361 231.972 298.146 231.177C298.539 230.784 299.095 230.487 299.631 230.381C300.177 230.266 300.685 230.266 301.202 230.286C303.262 230.381 305.274 231.282 306.73 232.767L305.858 233.217C305.466 231.224 305.073 229.232 304.364 227.373C303.674 225.505 302.62 223.79 301.183 222.449C299.765 221.118 297.859 220.207 295.876 220.342C293.931 220.389 291.91 221.405 290.961 223.254Z" fill="#00352F"/>
<path d="M359.717 198.154C360.426 200.521 361.125 202.896 361.748 205.282L362.706 208.855C363.032 210.043 363.31 211.25 363.683 212.4C364.057 213.54 364.517 214.651 365.187 215.58C365.848 216.519 366.797 217.199 367.803 217.88C369.862 219.211 371.941 220.562 373.991 221.932L374.336 222.162L374.173 222.526C373.254 224.538 371.979 226.377 370.485 227.977C369.738 228.782 368.914 229.51 368.042 230.161C367.17 230.822 366.251 231.406 365.283 231.895C366.174 231.282 367.027 230.621 367.822 229.893C368.617 229.174 369.345 228.379 370.035 227.565C371.405 225.927 372.497 224.078 373.311 222.133L373.493 222.717C371.385 221.424 369.307 220.112 367.218 218.77C366.174 218.1 365.091 217.286 364.325 216.193C363.559 215.111 363.08 213.894 362.735 212.678C362.064 210.254 361.652 207.84 361.116 205.416C360.598 203.021 360.148 200.588 359.717 198.154Z" fill="#00352F"/>
<path d="M330.163 216.864C331.629 216.088 333.219 215.532 334.828 215.073C336.447 214.651 338.095 214.364 339.762 214.162C341.419 213.952 343.096 213.885 344.753 213.827C346.42 213.798 348.077 213.808 349.735 213.827L349.342 214.756C347.167 212.591 344.255 211.231 341.237 210.445C339.724 210.053 338.153 209.813 336.581 209.669C335.001 209.497 333.41 209.459 331.811 209.401C333.401 209.219 335.001 209.152 336.61 209.143C338.22 209.171 339.829 209.325 341.419 209.631C344.6 210.244 347.723 211.643 350.108 213.98L351.086 214.938L349.716 214.919C346.401 214.862 343.115 214.804 339.829 215.006C338.191 215.101 336.553 215.283 334.943 215.599C333.324 215.877 331.734 216.318 330.163 216.864Z" fill="#00352F"/>
<path d="M320.161 202.168C320.094 199.582 320.698 196.928 321.819 194.447C322.393 193.211 323.093 192.023 323.926 190.893C324.779 189.791 325.746 188.756 326.839 187.827C327.931 186.898 329.061 185.978 330.316 185.202C331.571 184.436 332.998 183.966 334.455 183.851C335.92 183.736 337.396 183.89 338.804 184.321C340.203 184.771 341.534 185.47 342.617 186.63L342.492 187.271C341.122 187.971 339.973 188.469 338.881 188.957L335.825 190.27C334.857 190.682 333.899 190.96 332.864 191.17C331.83 191.372 330.776 191.649 329.818 192.138C328.86 192.617 327.94 193.211 327.068 193.91C326.178 194.581 325.335 195.357 324.568 196.21C322.997 197.915 321.732 199.965 320.794 202.274L320.161 202.168Z" fill="#00352F"/>
<path d="M385.449 210.647C385.449 213.875 383.715 216.491 381.588 216.491C379.452 216.491 377.728 213.875 377.728 210.647C377.728 207.418 379.462 204.803 381.588 204.803C383.725 204.803 385.449 207.418 385.449 210.647Z" fill="#00352F"/>
<path d="M348.144 242.184C351.756 246.198 358.357 252.186 364.881 251.285C365.245 251.237 365.589 251.161 365.934 251.084C365.925 251.074 365.925 251.065 365.925 251.065C362.169 245.202 355.061 241.715 348.144 242.184Z" fill="#F28482"/>
<path d="M378.388 236.417C378.388 236.417 373.072 241.264 364.21 241.935C355.349 242.606 345.328 238.764 345.328 238.764C345.328 238.764 346.382 240.249 348.135 242.194C355.052 241.724 362.16 245.211 365.915 251.065C365.925 251.074 365.925 251.084 365.925 251.084C374.844 248.957 378.388 236.417 378.388 236.417Z" fill="#00352F"/>
<path d="M280.73 503.134L268.151 574.677H470.663L449.98 492.759C397.807 517.868 335.566 521.719 280.73 503.134Z" fill="#00352F"/>
<path d="M449.98 492.759L433.09 425.852C433.09 425.852 437.401 419.931 443.59 411.041C449.779 402.161 443.59 380.079 443.59 380.079L458.132 369.311C458.132 369.311 438.742 318.958 431.749 313.038C424.746 307.117 382.795 293.063 382.795 293.063C382.795 293.063 379.624 320.635 370.255 319.782C360.886 318.929 335.805 293.063 335.805 293.063C335.805 293.063 273.449 304.176 266.216 310.652C258.983 317.119 221.698 364.3 221.698 364.3C221.698 364.3 220.558 368.87 230.445 379.897C240.341 390.933 253.274 395.119 253.274 395.119L274.58 375.72L292.245 437.654L280.73 503.143C335.566 521.719 397.807 517.868 449.98 492.759Z" fill="#329F5B"/>
<path d="M221.688 364.291L179 428.027C179 428.027 217.023 446.085 243.157 456.067C269.291 466.05 283.46 467.946 289.927 465.571C296.393 463.195 305.331 456.537 305.331 456.537C305.331 456.537 319.347 465.408 326.954 466.49C334.56 467.573 344.523 457.188 339.887 451.66C335.25 446.123 303.233 433.248 303.233 433.248C303.233 433.248 333.142 441.228 337.271 442.837C341.4 444.456 337.453 437.041 329.904 433.985C322.355 430.929 305.466 421.541 301.155 422.259C296.844 422.978 284.619 443.642 284.619 443.642L232.15 416.866L253.264 395.1C253.264 395.1 243.483 392.216 233.108 382.014C224.266 373.325 221.688 364.291 221.688 364.291Z" fill="#F5CAC3"/>
<path d="M476.248 280.38C477.934 279.374 479.659 278.454 481.393 277.534C483.136 276.643 484.909 275.791 486.681 274.957C488.453 274.114 490.273 273.377 492.084 272.629C493.904 271.892 495.734 271.173 497.583 270.512L498.024 270.359L498.225 270.771C499.077 272.572 499.403 274.593 499.183 276.557C498.962 278.521 498.177 280.427 496.903 281.922C495.657 283.426 493.952 284.566 492.17 285.179C491.308 285.428 491.136 286.463 490.733 287.306C490.379 288.178 490.005 289.049 489.622 289.912C489.9 289.011 490.178 288.111 490.475 287.21C490.628 286.76 490.752 286.319 490.925 285.859C491.069 285.39 491.5 284.93 491.959 284.729C493.713 284.01 495.188 282.899 496.29 281.433C497.372 279.977 498.081 278.262 498.254 276.461C498.426 274.67 498.1 272.831 497.305 271.231L497.937 271.489C496.098 272.141 494.268 272.811 492.448 273.52C490.628 274.22 488.827 274.986 487.016 275.705C485.206 276.442 483.414 277.209 481.623 278.004C479.822 278.761 478.049 279.584 476.248 280.38Z" fill="#00352F"/>
<path d="M507.719 280.389C506.885 282.755 505.908 285.074 504.624 287.258C503.36 289.452 501.779 291.483 499.911 293.217C498.962 294.079 497.89 294.874 496.644 295.363C495.408 295.851 493.99 295.985 492.688 295.593C492.036 295.391 491.423 295.066 490.925 294.596C490.436 294.127 490.053 293.562 489.814 292.949C489.354 291.722 489.315 290.372 489.718 289.174C489.545 290.41 489.699 291.684 490.273 292.738C490.819 293.801 491.777 294.568 492.908 294.817C494.029 295.066 495.226 294.932 496.29 294.462C497.363 294.002 498.34 293.293 499.221 292.46C501.022 290.803 502.574 288.887 503.944 286.827C505.304 284.777 506.521 282.593 507.719 280.389Z" fill="#00352F"/>
<path d="M514.223 291.272C512.825 292.757 511.321 294.156 509.73 295.439C508.14 296.733 506.512 297.94 504.749 299.041C503.848 299.568 502.9 300.047 501.875 300.354C500.859 300.632 499.758 300.871 498.627 300.536C498.081 300.392 497.506 299.99 497.228 299.511C496.922 299.041 496.73 298.524 496.606 298.016C496.376 296.991 496.299 295.947 496.472 294.932C496.529 295.947 496.721 296.953 497.085 297.863C497.439 298.773 497.976 299.635 498.838 299.76C499.7 299.932 500.677 299.731 501.587 299.425C502.497 299.118 503.379 298.668 504.222 298.15C505.918 297.116 507.584 295.937 509.251 294.797L514.223 291.272Z" fill="#00352F"/>
<path d="M465.097 383.029C464.743 384.447 464.331 385.836 463.948 387.244L462.702 391.431C461.869 394.219 460.959 396.978 460.049 399.746C459.11 402.505 458.18 405.255 457.165 407.985L455.642 412.076C455.096 413.427 454.588 414.787 454.013 416.138C454.368 414.72 454.78 413.331 455.163 411.923L456.408 407.736C457.242 404.948 458.152 402.189 459.071 399.421C460.01 396.662 460.949 393.912 461.955 391.182L463.478 387.091C464.015 385.74 464.532 384.37 465.097 383.029Z" fill="#00352F"/>
<path d="M303.243 440.605C304.872 441.141 306.462 441.764 308.062 442.358C309.652 442.99 311.223 443.651 312.804 444.332C315.946 445.682 319.031 447.177 322.068 448.748C325.095 450.338 328.093 451.996 331.006 453.797C332.462 454.697 333.908 455.617 335.336 456.546C336.744 457.514 338.172 458.462 339.542 459.487L335.068 456.977C333.583 456.134 332.098 455.301 330.603 454.486C327.605 452.858 324.616 451.229 321.589 449.668C318.571 448.087 315.515 446.573 312.468 445.05C310.936 444.293 309.403 443.556 307.86 442.828L303.243 440.605Z" fill="#00352F"/>
<path d="M304.718 449.706C306.098 450.032 307.449 450.434 308.809 450.827C310.15 451.258 311.491 451.708 312.823 452.187C315.486 453.136 318.092 454.247 320.659 455.435C323.217 456.652 325.737 457.945 328.161 459.391C329.377 460.12 330.575 460.857 331.772 461.624C332.941 462.419 334.119 463.204 335.24 464.057L331.514 462.064C330.278 461.394 329.032 460.733 327.777 460.1C325.267 458.826 322.767 457.562 320.219 456.383C317.68 455.176 315.113 454.055 312.536 452.935C311.242 452.379 309.939 451.842 308.636 451.316L304.718 449.706Z" fill="#00352F"/>
<path d="M232.15 416.875C230.531 416.396 228.883 416.032 227.226 415.764C225.569 415.467 223.911 415.247 222.235 415.093C220.568 414.95 218.882 414.796 217.224 414.768C215.577 414.701 213.9 414.835 212.243 414.988C208.918 415.314 205.613 415.936 202.308 416.588C200.66 416.914 199.013 417.278 197.375 417.67C195.727 418.025 194.089 418.437 192.45 418.83C195.612 417.623 198.85 416.645 202.136 415.812C205.412 414.978 208.746 414.317 212.137 413.963C212.99 413.905 213.833 413.8 214.695 413.791L215.979 413.752L217.263 413.791C218.968 413.886 220.654 414.04 222.33 414.308C225.683 414.816 229.046 415.515 232.15 416.875Z" fill="#00352F"/>
<path d="M285.098 182.654C283.546 190.941 281.391 199.112 278.766 207.14C276.074 215.149 272.826 222.976 268.985 230.525C261.311 245.604 250.907 259.409 238.108 270.589C231.728 276.145 225.051 281.28 219.217 287.248C213.392 293.159 208.525 300.153 206.054 308.046C204.847 311.984 204.329 316.151 204.808 320.232C205.211 324.332 206.753 328.27 208.899 331.805C211.035 335.359 213.986 338.415 217.368 340.858C220.788 343.253 224.725 344.929 228.873 345.686C224.696 345.15 220.615 343.646 217.061 341.318C213.526 338.961 210.394 335.943 208.046 332.36C205.738 328.768 204.042 324.696 203.515 320.405C202.921 316.122 203.371 311.744 204.531 307.606C205.69 303.458 207.567 299.539 209.876 295.937C212.175 292.326 214.906 289.001 217.866 285.945C223.777 279.805 230.464 274.583 236.748 269.046C243.081 263.566 248.857 257.493 253.983 250.883C259.127 244.282 263.582 237.164 267.586 229.807C271.562 222.43 274.944 214.718 277.818 206.824C280.749 198.93 283.096 190.835 285.098 182.654Z" fill="#00352F"/>
<path d="M459.895 283.608C463.775 287.632 467.559 291.847 470.328 296.867C471.727 299.357 472.761 302.078 473.422 304.885C474.054 307.702 474.294 310.604 474.15 313.478C473.968 316.362 473.432 319.217 472.483 321.947C472.004 323.307 471.43 324.639 470.759 325.904C470.108 327.187 469.332 328.404 468.488 329.563C465.135 334.209 460.451 337.879 455.182 339.823C460.077 337.093 464.197 333.232 467.157 328.653C470.117 324.074 471.822 318.776 472.091 313.363C472.416 307.951 471.295 302.509 468.9 297.595C466.515 292.651 463.124 288.178 459.895 283.608Z" fill="#00352F"/>
<path opacity="0.5" d="M348.394 231.215C348.585 233.543 344.945 235.737 340.279 236.11C335.614 236.484 331.677 234.903 331.495 232.575C331.303 230.247 334.943 228.054 339.609 227.68C344.274 227.306 348.212 228.887 348.394 231.215Z" fill="#F28482"/>
<path opacity="0.5" d="M376.616 229.787C376.425 232.115 380.065 234.309 384.73 234.683C389.396 235.056 393.333 233.476 393.515 231.148C393.707 228.82 390.066 226.626 385.401 226.252C380.736 225.879 376.798 227.46 376.616 229.787Z" fill="#F28482"/>
<path d="M351.977 423.399C361.672 428.889 373.943 426.187 380.439 417.144C381.138 416.186 380.918 414.835 379.95 414.145C378.992 413.455 377.641 413.676 376.952 414.634C374.135 418.542 369.843 421.119 365.072 421.761C355.473 423.054 346.641 416.329 345.347 406.74C348.058 412.066 353.193 415.745 359.123 416.607C363.98 408.225 361.135 397.485 352.753 392.619C350.664 391.421 348.355 390.655 345.96 390.377C336.246 389.256 327.433 384.227 321.512 376.448C317.747 391.009 320.88 406.481 329.99 418.437C335.145 425.21 344.408 427.298 351.977 423.399Z" fill="#8FD5A6"/>
<path d="M344.705 349.365C335.116 355.027 331.312 367.002 335.882 377.147C336.371 378.23 337.645 378.709 338.727 378.22C339.81 377.741 340.289 376.467 339.8 375.375C337.827 370.987 337.741 365.977 339.57 361.532C343.239 352.565 353.48 348.283 362.447 351.952C356.479 351.645 350.731 354.251 347.024 358.945C351.852 367.347 362.572 370.24 370.974 365.421C373.072 364.214 374.892 362.595 376.329 360.66C382.153 352.814 390.919 347.689 400.614 346.462C389.884 335.915 374.92 330.885 360.014 332.801C351.555 333.884 345.117 340.868 344.705 349.365Z" fill="#92CFA4"/>
<path d="M412.445 380.088C412.34 368.956 403.881 359.683 392.797 358.562C391.609 358.447 390.555 359.3 390.44 360.487C390.316 361.675 391.187 362.729 392.366 362.844C397.156 363.333 401.534 365.756 404.484 369.569C410.405 377.233 408.997 388.241 401.333 394.171C404.59 389.151 405.213 382.857 403 377.31C393.305 377.291 385.43 385.118 385.411 394.813C385.411 397.227 385.899 399.612 386.857 401.825C390.737 410.792 390.795 420.947 387.02 429.952C401.505 425.928 413.346 415.486 419.142 401.614C422.437 393.768 419.611 384.687 412.445 380.088Z" fill="#8FD5A6"/>
<path d="M427.227 324.486L443.59 380.079L449.807 375.471L427.227 324.486Z" fill="#0C8346"/>
<path d="M274.58 375.71L268.151 350.294L269.77 380.079L274.58 375.71Z" fill="#0C8346"/>
<path d="M278.689 514.764C285.798 517.101 293.031 519.037 300.302 520.751C307.573 522.476 314.902 523.98 322.278 525.139C324.118 525.455 325.976 525.666 327.825 525.934L330.594 526.327C331.523 526.451 332.452 526.538 333.372 526.643L338.938 527.247L344.523 527.639C345.452 527.697 346.382 527.783 347.311 527.821L350.108 527.898C351.976 527.936 353.835 528.023 355.703 528.023C359.43 527.898 363.166 527.956 366.873 527.553C381.751 526.451 396.418 523.175 410.731 518.96C417.896 516.862 424.957 514.39 431.931 511.698C438.915 509.025 445.803 506.113 452.509 502.779C439.231 509.696 425.263 515.252 410.961 519.717C409.179 520.311 407.368 520.78 405.577 521.317C403.776 521.843 401.974 522.351 400.154 522.782L394.703 524.143L389.204 525.331C381.856 526.777 374.451 528.08 366.95 528.569C363.214 528.952 359.449 528.885 355.703 528.99C353.825 528.99 351.957 528.894 350.08 528.846L347.273 528.76C346.334 528.722 345.405 528.626 344.466 528.569L338.861 528.157L333.276 527.534C331.408 527.342 329.559 527.084 327.701 526.796C325.852 526.499 323.993 526.269 322.144 525.925C307.382 523.376 292.81 519.707 278.689 514.764Z" fill="#0C8346"/>
<path d="M273.488 544.328C275.346 545.142 277.272 545.803 279.226 546.282C281.18 546.78 283.173 547.096 285.166 547.173C287.158 547.221 289.151 547.02 291.038 546.474C292.964 545.975 294.64 544.893 296.163 543.676C297.696 542.412 298.999 540.898 300.187 539.298C301.327 537.65 302.295 535.897 303.176 534.096C304.029 532.276 304.747 530.389 305.351 528.463C305.983 526.538 306.471 524.574 306.855 522.581C306.51 526.643 305.466 530.638 303.904 534.432C303.118 536.328 302.093 538.129 300.963 539.854C299.756 541.53 298.434 543.14 296.834 544.481C295.196 545.765 293.356 546.895 291.306 547.393C289.285 547.93 287.187 548.15 285.127 547.978C281.008 547.614 277.032 546.32 273.488 544.328Z" fill="#0C8346"/>
<path d="M424.603 514.764C425.101 516.843 425.666 518.912 426.356 520.924C427.017 522.945 427.774 524.947 428.674 526.863C429.575 528.779 430.571 530.657 431.797 532.362C433.023 534.058 434.48 535.6 436.233 536.664C437.095 537.219 438.034 537.602 439.04 537.851L440.563 538.196L442.115 538.378C444.203 538.551 446.301 538.378 448.39 538.043C450.478 537.698 452.519 537.095 454.511 536.357C456.514 535.648 458.458 534.748 460.336 533.713C456.791 536.127 452.777 537.89 448.543 538.819C446.426 539.288 444.232 539.442 442.048 539.308L440.41 539.145L438.8 538.809C437.727 538.56 436.645 538.148 435.706 537.545C433.799 536.357 432.295 534.69 431.05 532.908C429.814 531.107 428.779 529.191 427.975 527.189C426.298 523.194 425.187 519.017 424.603 514.764Z" fill="#0C8346"/>
<path d="M377.134 574.677C377.105 571.362 377.392 568.086 377.756 564.819C378.149 561.552 378.618 558.295 379.404 555.076C379.433 558.391 379.145 561.667 378.781 564.934C378.389 568.201 377.919 571.458 377.134 574.677Z" fill="#0C8346"/>
<path d="M288.049 161.089C287.829 158.311 287.791 155.38 289.055 152.898C289.563 151.892 290.674 150.877 291.69 151.375C292.379 151.71 292.609 152.563 292.734 153.31C293.788 159.719 292.897 167.767 290.358 173.754C288.471 170.516 288.356 164.854 288.049 161.089Z" fill="#F28482"/>
<path d="M292.667 186.409C292.887 189.187 292.925 192.119 291.661 194.6C291.153 195.606 290.042 196.621 289.026 196.123C288.337 195.788 288.107 194.945 287.982 194.188C286.928 187.779 287.819 179.732 290.358 173.744C292.245 176.992 292.36 182.644 292.667 186.409Z" fill="#F28482"/>
<path d="M303.023 171.445C305.801 171.225 308.733 171.187 311.214 172.451C312.22 172.959 313.235 174.07 312.737 175.086C312.402 175.775 311.559 176.005 310.802 176.13C304.393 177.193 296.346 176.293 290.358 173.754C293.596 171.857 299.248 171.742 303.023 171.445Z" fill="#F28482"/>
<path d="M277.693 176.053C274.915 176.274 271.984 176.312 269.502 175.047C268.496 174.54 267.481 173.428 267.979 172.413C268.314 171.723 269.157 171.493 269.914 171.369C276.323 170.305 284.371 171.206 290.358 173.745C287.12 175.641 281.468 175.756 277.693 176.053Z" fill="#F28482"/>
<path d="M297.677 163.168C299.488 161.051 301.528 158.953 304.182 158.081C305.255 157.727 306.75 157.794 307.123 158.857C307.372 159.576 306.941 160.342 306.491 160.965C302.707 166.243 296.394 171.302 290.358 173.745C291.307 170.123 295.234 166.042 297.677 163.168Z" fill="#F28482"/>
<path d="M283.039 184.33C281.228 186.447 279.188 188.545 276.534 189.417C275.461 189.772 273.967 189.705 273.593 188.632C273.344 187.913 273.775 187.147 274.225 186.524C278.01 181.246 284.323 176.187 290.358 173.744C289.41 177.375 285.482 181.456 283.039 184.33Z" fill="#F28482"/>
<path d="M300.944 181.073C303.071 182.884 305.159 184.924 306.031 187.578C306.385 188.651 306.318 190.145 305.255 190.519C304.536 190.768 303.77 190.337 303.147 189.887C297.869 186.103 292.811 179.789 290.368 173.754C293.979 174.702 298.06 178.621 300.944 181.073Z" fill="#F28482"/>
<path d="M279.772 166.425C277.645 164.615 275.557 162.574 274.685 159.92C274.331 158.847 274.398 157.353 275.461 156.979C276.18 156.73 276.946 157.161 277.569 157.612C282.847 161.396 287.906 167.709 290.349 173.744C286.737 172.796 282.656 168.878 279.772 166.425Z" fill="#F28482"/>
<path d="M293.175 173.754C293.175 175.306 291.92 176.571 290.358 176.571C288.806 176.571 287.542 175.316 287.542 173.754C287.542 172.202 288.796 170.938 290.358 170.938C291.91 170.938 293.175 172.202 293.175 173.754Z" fill="#FFF8ED"/>
<path d="M319.414 159.863C319.261 157.947 319.232 155.916 320.104 154.201C320.458 153.502 321.225 152.803 321.924 153.147C322.403 153.377 322.556 153.962 322.643 154.489C323.371 158.915 322.758 164.481 321.004 168.619C319.702 166.377 319.625 162.469 319.414 159.863Z" fill="#329F5B"/>
<path d="M322.604 177.366C322.758 179.282 322.786 181.313 321.914 183.028C321.56 183.727 320.794 184.426 320.094 184.081C319.615 183.851 319.462 183.267 319.376 182.74C318.648 178.314 319.261 172.748 321.014 168.61C322.317 170.851 322.393 174.76 322.604 177.366Z" fill="#329F5B"/>
<path d="M329.761 167.019C331.677 166.866 333.707 166.837 335.422 167.709C336.122 168.064 336.821 168.83 336.476 169.529C336.246 170.008 335.662 170.162 335.135 170.248C330.709 170.976 325.143 170.363 321.004 168.61C323.246 167.307 327.155 167.23 329.761 167.019Z" fill="#329F5B"/>
<path d="M312.258 170.209C310.342 170.363 308.311 170.391 306.596 169.52C305.897 169.165 305.197 168.399 305.542 167.7C305.772 167.221 306.357 167.067 306.883 166.981C311.309 166.253 316.875 166.866 321.014 168.619C318.772 169.922 314.864 169.999 312.258 170.209Z" fill="#329F5B"/>
<path d="M326.063 161.3C327.308 159.834 328.726 158.388 330.556 157.784C331.293 157.545 332.328 157.593 332.587 158.321C332.759 158.819 332.462 159.346 332.156 159.777C329.54 163.427 325.172 166.924 321.004 168.61C321.665 166.109 324.377 163.293 326.063 161.3Z" fill="#329F5B"/>
<path d="M315.946 175.929C314.701 177.394 313.283 178.841 311.453 179.445C310.715 179.684 309.681 179.636 309.422 178.908C309.25 178.41 309.547 177.883 309.853 177.452C312.469 173.802 316.837 170.305 321.004 168.619C320.353 171.12 317.642 173.936 315.946 175.929Z" fill="#329F5B"/>
<path d="M328.323 173.677C329.789 174.923 331.236 176.341 331.839 178.17C332.079 178.908 332.031 179.943 331.303 180.201C330.805 180.374 330.278 180.077 329.847 179.77C326.197 177.155 322.7 172.786 321.014 168.619C323.514 169.271 326.331 171.982 328.323 173.677Z" fill="#329F5B"/>
<path d="M313.695 163.551C312.229 162.306 310.783 160.888 310.179 159.058C309.939 158.321 309.987 157.286 310.715 157.027C311.214 156.855 311.741 157.152 312.172 157.458C315.822 160.074 319.318 164.442 321.004 168.61C318.504 167.958 315.678 165.247 313.695 163.551Z" fill="#329F5B"/>
<path d="M321.004 170.564C322.078 170.564 322.949 169.693 322.949 168.619C322.949 167.545 322.078 166.674 321.004 166.674C319.93 166.674 319.06 167.545 319.06 168.619C319.06 169.693 319.93 170.564 321.004 170.564Z" fill="#F28482"/>
<path d="M302.218 251.074C304.043 251.074 305.523 249.595 305.523 247.769C305.523 245.944 304.043 244.464 302.218 244.464C300.393 244.464 298.913 245.944 298.913 247.769C298.913 249.595 300.393 251.074 302.218 251.074Z" fill="#FFF8ED"/>
<path d="M297.485 265.234C299.219 262.695 300.292 259.782 301.356 256.899C302.017 255.098 302.678 253.297 303.339 251.496C302.773 251.084 302.132 250.816 301.423 250.787C298.549 250.681 295.493 253.69 294.171 255.941C292.734 258.403 292.005 261.2 290.904 263.825C289.438 267.293 287.283 270.464 284.591 273.108C289.716 272.419 294.554 269.525 297.485 265.234Z" fill="#329F5B"/>
<path d="M306.491 257.522C306.232 255.692 305.14 252.818 303.329 251.505C302.668 253.306 302.007 255.107 301.346 256.908C300.292 259.792 299.21 262.704 297.476 265.243C294.544 269.525 289.716 272.419 284.581 273.127C284.514 273.194 284.447 273.271 284.38 273.338C289.457 275.379 295.56 274.861 300.062 271.748C304.575 268.634 307.247 262.944 306.491 257.522Z" fill="#0C8346"/>
<path d="M403.546 251.074C405.371 251.074 406.851 249.595 406.851 247.769C406.851 245.944 405.371 244.464 403.546 244.464C401.72 244.464 400.24 245.944 400.24 247.769C400.24 249.595 401.72 251.074 403.546 251.074Z" fill="#FFF8ED"/>
<path d="M408.269 265.234C406.535 262.695 405.462 259.782 404.398 256.899C403.737 255.098 403.076 253.297 402.415 251.496C402.981 251.084 403.622 250.816 404.331 250.787C407.205 250.681 410.261 253.69 411.583 255.941C413.02 258.403 413.748 261.2 414.85 263.825C416.316 267.293 418.471 270.464 421.163 273.108C416.038 272.419 411.21 269.525 408.269 265.234Z" fill="#329F5B"/>
<path d="M399.263 257.522C399.522 255.692 400.614 252.818 402.425 251.505C403.086 253.306 403.747 255.107 404.408 256.908C405.462 259.792 406.544 262.704 408.278 265.243C411.21 269.525 416.038 272.419 421.173 273.127C421.24 273.194 421.307 273.271 421.374 273.338C416.297 275.379 410.194 274.861 405.692 271.748C401.179 268.634 398.507 262.944 399.263 257.522Z" fill="#0C8346"/>
<g opacity="0.5">
<path d="M333.506 157.66C337.999 156.165 342.828 155.409 347.618 156.003C352.408 156.529 357.025 158.838 360.349 162.354C363.664 165.889 365.906 170.344 366.998 175C367.544 177.337 367.87 179.703 367.994 182.089C368.1 184.465 368.052 186.85 367.841 189.207C367.822 186.841 367.764 184.465 367.487 182.127C367.257 179.78 366.845 177.462 366.222 175.201C364.996 170.689 362.831 166.406 359.593 163.063C358.002 161.377 356.153 159.93 354.094 158.886C352.034 157.823 349.792 157.152 347.493 156.778C345.194 156.386 342.828 156.357 340.49 156.529C338.143 156.692 335.815 157.133 333.506 157.66Z" fill="#FFF8ED"/>
<path d="M355.147 152.372C360.033 152.103 365.015 151.94 369.862 153.167C374.729 154.345 379.069 157.334 382.259 161.147C385.439 165.008 387.547 169.673 388.591 174.511C389.118 176.935 389.396 179.397 389.501 181.859C389.568 184.321 389.492 186.783 389.214 189.226C389.252 186.773 389.233 184.321 388.994 181.888C388.783 179.454 388.419 177.04 387.815 174.693C386.647 169.989 384.596 165.487 381.464 161.808C379.931 159.959 378.159 158.292 376.166 156.951C374.183 155.59 371.96 154.623 369.652 153.933C367.333 153.253 364.909 152.898 362.486 152.716C360.052 152.477 357.6 152.458 355.147 152.372Z" fill="#FFF8ED"/>
<path d="M370.274 153.406C372.392 153.569 374.499 154 376.559 154.575C378.609 155.188 380.602 155.993 382.518 156.97C386.35 158.924 389.789 161.664 392.548 165.008C395.288 168.361 397.271 172.317 398.315 176.494C398.842 178.582 399.158 180.709 399.283 182.846C399.369 184.982 399.302 187.118 398.995 189.226C399.043 187.099 398.986 184.982 398.717 182.893C398.478 180.805 398.066 178.736 397.453 176.734C396.236 172.729 394.301 168.955 391.647 165.745C389.013 162.517 385.717 159.844 382.087 157.756C380.266 156.711 378.36 155.83 376.377 155.111C374.413 154.355 372.363 153.818 370.274 153.406Z" fill="#FFF8ED"/>
</g>
</g>
<defs>
<filter id="filter0_d_334_1003" x="0" y="0" width="808" height="684.677" filterUnits="userSpaceOnUse" color-interpolation-filters="sRGB">
<feFlood flood-opacity="0" result="BackgroundImageFix"/>
<feColorMatrix in="SourceAlpha" type="matrix" values="0 0 0 0 0 0 0 0 0 0 0 0 0 0 0 0 0 0 127 0" result="hardAlpha"/>
<feOffset dy="10"/>
<feGaussianBlur stdDeviation="50"/>
<feComposite in2="hardAlpha" operator="out"/>
<feColorMatrix type="matrix" values="0 0 0 0 0.9425 0 0 0 0 0.9425 0 0 0 0 0.9425 0 0 0 1 0"/>
<feBlend mode="normal" in2="BackgroundImageFix" result="effect1_dropShadow_334_1003"/>
<feBlend mode="normal" in="SourceGraphic" in2="effect1_dropShadow_334_1003" result="shape"/>
</filter>
</defs>
</svg>
