<svg width="133" height="20" viewBox="0 0 133 20" fill="none" xmlns="http://www.w3.org/2000/svg">
<path d="M14.808 16.552H14.712C14.136 17.528 13.384 18.248 12.456 18.712C11.544 19.176 10.528 19.408 9.408 19.408C8.144 19.408 7 19.184 5.976 18.736C4.952 18.288 4.072 17.664 3.336 16.864C2.568 16.032 1.984 15.048 1.584 13.912C1.184 12.776 0.984 11.52 0.984 10.144C0.984 8.688 1.216 7.36 1.68 6.16C2.144 4.944 2.816 3.912 3.696 3.064C4.416 2.344 5.264 1.792 6.24 1.408C7.232 1.008 8.368 0.808 9.648 0.808C10.736 0.808 11.712 0.952 12.576 1.24C13.44 1.512 14.184 1.896 14.808 2.392C15.448 2.888 15.968 3.488 16.368 4.192C16.768 4.896 17.048 5.664 17.208 6.496H13.848C13.608 5.664 13.152 4.976 12.48 4.432C11.808 3.872 10.88 3.592 9.696 3.592C8.784 3.592 7.992 3.76 7.32 4.096C6.664 4.432 6.112 4.896 5.664 5.488C5.232 6.08 4.904 6.776 4.68 7.576C4.472 8.36 4.368 9.216 4.368 10.144C4.368 11.104 4.496 11.984 4.752 12.784C5.008 13.568 5.368 14.248 5.832 14.824C6.296 15.384 6.856 15.824 7.512 16.144C8.168 16.464 8.896 16.624 9.696 16.624C10.448 16.624 11.104 16.504 11.664 16.264C12.24 16.024 12.72 15.712 13.104 15.328C13.504 14.928 13.8 14.472 13.992 13.96C14.2 13.432 14.304 12.88 14.304 12.304V12.088H9.984V9.496H17.496V19H15.264L14.808 16.552ZM23.2581 8.488H23.3301C24.1461 6.824 25.3701 5.992 27.0021 5.992C27.3701 5.992 27.6421 6.032 27.8181 6.112V8.848H27.7221C27.4661 8.784 27.1861 8.752 26.8821 8.752C25.8741 8.736 25.0341 9.064 24.3621 9.736C23.6901 10.392 23.3541 11.336 23.3541 12.568V19H20.3061V6.184H23.2581V8.488ZM35.3501 19.384C34.3261 19.384 33.4061 19.208 32.5901 18.856C31.7901 18.504 31.1101 18.024 30.5501 17.416C29.9901 16.808 29.5581 16.096 29.2541 15.28C28.9661 14.448 28.8221 13.56 28.8221 12.616C28.8221 11.656 28.9741 10.768 29.2781 9.952C29.5821 9.12 30.0141 8.4 30.5741 7.792C31.1341 7.184 31.8061 6.712 32.5901 6.376C33.3741 6.024 34.2381 5.848 35.1821 5.848C36.1261 5.848 36.9581 6.008 37.6781 6.328C38.4141 6.632 39.0541 7.072 39.5981 7.648C40.2221 8.32 40.6861 9.144 40.9901 10.12C41.2941 11.08 41.4381 12.16 41.4221 13.36H31.8461C31.9581 14.464 32.3021 15.36 32.8781 16.048C33.4701 16.72 34.3021 17.056 35.3741 17.056C36.1101 17.056 36.7101 16.912 37.1741 16.624C37.6541 16.32 37.9981 15.904 38.2061 15.376H41.1821C41.0221 15.952 40.7741 16.488 40.4381 16.984C40.1181 17.464 39.7101 17.888 39.2141 18.256C38.7181 18.608 38.1421 18.88 37.4861 19.072C36.8461 19.28 36.1341 19.384 35.3501 19.384ZM35.1821 8.056C34.1741 8.056 33.4061 8.368 32.8781 8.992C32.3501 9.616 32.0221 10.432 31.8941 11.44H38.2781C38.2141 10.384 37.9101 9.56 37.3661 8.968C36.8381 8.36 36.1101 8.056 35.1821 8.056ZM49.4361 19.384C48.4121 19.384 47.4921 19.208 46.6761 18.856C45.8761 18.504 45.1961 18.024 44.6361 17.416C44.0761 16.808 43.6441 16.096 43.3401 15.28C43.0521 14.448 42.9081 13.56 42.9081 12.616C42.9081 11.656 43.0601 10.768 43.3641 9.952C43.6681 9.12 44.1001 8.4 44.6601 7.792C45.2201 7.184 45.8921 6.712 46.6761 6.376C47.4601 6.024 48.3241 5.848 49.2681 5.848C50.2121 5.848 51.0441 6.008 51.7641 6.328C52.5001 6.632 53.1401 7.072 53.6841 7.648C54.3081 8.32 54.7721 9.144 55.0761 10.12C55.3801 11.08 55.5241 12.16 55.5081 13.36H45.9321C46.0441 14.464 46.3881 15.36 46.9641 16.048C47.5561 16.72 48.3881 17.056 49.4601 17.056C50.1961 17.056 50.7961 16.912 51.2601 16.624C51.7401 16.32 52.0841 15.904 52.2921 15.376H55.2681C55.1081 15.952 54.8601 16.488 54.5241 16.984C54.2041 17.464 53.7961 17.888 53.3001 18.256C52.8041 18.608 52.2281 18.88 51.5721 19.072C50.9321 19.28 50.2201 19.384 49.4361 19.384ZM49.2681 8.056C48.2601 8.056 47.4921 8.368 46.9641 8.992C46.4361 9.616 46.1081 10.432 45.9801 11.44H52.3641C52.3001 10.384 51.9961 9.56 51.4521 8.968C50.9241 8.36 50.1961 8.056 49.2681 8.056ZM60.618 8.056H60.69C61.106 7.336 61.642 6.792 62.298 6.424C62.97 6.04 63.762 5.848 64.674 5.848C66.066 5.848 67.146 6.248 67.914 7.048C68.698 7.832 69.09 8.92 69.09 10.312V19H66.042V10.816C66.042 10.048 65.826 9.448 65.394 9.016C64.978 8.584 64.378 8.368 63.594 8.368C63.162 8.368 62.77 8.448 62.418 8.608C62.066 8.752 61.762 8.968 61.506 9.256C61.25 9.528 61.05 9.856 60.906 10.24C60.762 10.624 60.69 11.04 60.69 11.488V19H57.642V6.184H60.618V8.056ZM70.2684 6.184H73.4604L75.3324 12.16C75.4604 12.592 75.5884 13.064 75.7164 13.576C75.8604 14.072 75.9804 14.536 76.0764 14.968C76.1884 15.48 76.3004 15.976 76.4124 16.456H76.4844C76.5804 15.976 76.6844 15.48 76.7964 14.968C76.8924 14.536 77.0044 14.072 77.1324 13.576C77.2604 13.064 77.3964 12.592 77.5404 12.16L79.4844 6.184H82.5804L78.0444 19H74.7084L70.2684 6.184ZM89.6314 19.384C88.6074 19.384 87.6874 19.208 86.8714 18.856C86.0714 18.504 85.3914 18.024 84.8314 17.416C84.2714 16.808 83.8394 16.096 83.5354 15.28C83.2474 14.448 83.1034 13.56 83.1034 12.616C83.1034 11.656 83.2554 10.768 83.5594 9.952C83.8634 9.12 84.2954 8.4 84.8554 7.792C85.4154 7.184 86.0874 6.712 86.8714 6.376C87.6554 6.024 88.5194 5.848 89.4634 5.848C90.4074 5.848 91.2394 6.008 91.9594 6.328C92.6954 6.632 93.3354 7.072 93.8794 7.648C94.5034 8.32 94.9674 9.144 95.2714 10.12C95.5754 11.08 95.7194 12.16 95.7034 13.36H86.1274C86.2394 14.464 86.5834 15.36 87.1594 16.048C87.7514 16.72 88.5834 17.056 89.6554 17.056C90.3914 17.056 90.9914 16.912 91.4554 16.624C91.9354 16.32 92.2794 15.904 92.4874 15.376H95.4634C95.3034 15.952 95.0554 16.488 94.7194 16.984C94.3994 17.464 93.9914 17.888 93.4954 18.256C92.9994 18.608 92.4234 18.88 91.7674 19.072C91.1274 19.28 90.4154 19.384 89.6314 19.384ZM89.4634 8.056C88.4554 8.056 87.6874 8.368 87.1594 8.992C86.6314 9.616 86.3034 10.432 86.1754 11.44H92.5594C92.4954 10.384 92.1914 9.56 91.6474 8.968C91.1194 8.36 90.3914 8.056 89.4634 8.056ZM100.789 8.488H100.861C101.677 6.824 102.901 5.992 104.533 5.992C104.901 5.992 105.173 6.032 105.349 6.112V8.848H105.253C104.997 8.784 104.717 8.752 104.413 8.752C103.405 8.736 102.565 9.064 101.893 9.736C101.221 10.392 100.885 11.336 100.885 12.568V19H97.8373V6.184H100.789V8.488ZM112.489 19.408C110.649 19.408 109.217 19.008 108.193 18.208C107.185 17.408 106.633 16.36 106.537 15.064H109.465C109.593 15.832 109.929 16.392 110.473 16.744C111.017 17.08 111.697 17.248 112.513 17.248C113.361 17.248 113.985 17.088 114.385 16.768C114.785 16.432 114.985 16.008 114.985 15.496C114.985 15.176 114.905 14.92 114.745 14.728C114.585 14.52 114.361 14.352 114.073 14.224C113.785 14.08 113.433 13.968 113.017 13.888C112.617 13.792 112.169 13.696 111.673 13.6C111.065 13.488 110.481 13.352 109.921 13.192C109.361 13.032 108.865 12.816 108.433 12.544C108.001 12.256 107.649 11.888 107.377 11.44C107.121 10.976 106.993 10.384 106.993 9.664C106.993 9.056 107.113 8.52 107.353 8.056C107.609 7.576 107.953 7.176 108.385 6.856C108.833 6.52 109.369 6.272 109.993 6.112C110.617 5.936 111.305 5.848 112.057 5.848C113.769 5.848 115.057 6.2 115.921 6.904C116.801 7.592 117.321 8.496 117.481 9.616H114.577C114.353 8.48 113.505 7.912 112.033 7.912C111.313 7.912 110.769 8.056 110.401 8.344C110.049 8.632 109.873 9 109.873 9.448C109.873 9.736 109.953 9.968 110.113 10.144C110.273 10.32 110.497 10.472 110.785 10.6C111.073 10.712 111.417 10.808 111.817 10.888C112.217 10.968 112.657 11.056 113.137 11.152C113.745 11.264 114.337 11.4 114.913 11.56C115.489 11.704 116.001 11.928 116.449 12.232C116.913 12.52 117.281 12.912 117.553 13.408C117.825 13.888 117.961 14.52 117.961 15.304C117.961 15.976 117.825 16.568 117.553 17.08C117.281 17.592 116.897 18.024 116.401 18.376C115.921 18.712 115.345 18.968 114.673 19.144C114.001 19.32 113.273 19.408 112.489 19.408ZM126.1 19.384C125.076 19.384 124.156 19.208 123.34 18.856C122.54 18.504 121.86 18.024 121.3 17.416C120.74 16.808 120.308 16.096 120.004 15.28C119.716 14.448 119.572 13.56 119.572 12.616C119.572 11.656 119.724 10.768 120.028 9.952C120.332 9.12 120.764 8.4 121.324 7.792C121.884 7.184 122.556 6.712 123.34 6.376C124.124 6.024 124.988 5.848 125.932 5.848C126.876 5.848 127.708 6.008 128.428 6.328C129.164 6.632 129.804 7.072 130.348 7.648C130.972 8.32 131.436 9.144 131.74 10.12C132.044 11.08 132.188 12.16 132.172 13.36H122.596C122.708 14.464 123.052 15.36 123.628 16.048C124.22 16.72 125.052 17.056 126.124 17.056C126.86 17.056 127.46 16.912 127.924 16.624C128.404 16.32 128.748 15.904 128.956 15.376H131.932C131.772 15.952 131.524 16.488 131.188 16.984C130.868 17.464 130.46 17.888 129.964 18.256C129.468 18.608 128.892 18.88 128.236 19.072C127.596 19.28 126.884 19.384 126.1 19.384ZM125.932 8.056C124.924 8.056 124.156 8.368 123.628 8.992C123.1 9.616 122.772 10.432 122.644 11.44H129.028C128.964 10.384 128.66 9.56 128.116 8.968C127.588 8.36 126.86 8.056 125.932 8.056Z" fill="black"/>
</svg>
