<svg width="294" height="127" viewBox="0 0 294 127" fill="none" xmlns="http://www.w3.org/2000/svg">
<path d="M18.1967 96.7255C8.81931 106.564 14.3654 119.143 30.5803 124.813L160.635 170.295C176.85 175.965 197.608 172.585 206.986 162.747L282.198 83.8389C291.576 74.0009 286.03 61.4216 269.815 55.7511L139.76 10.2699C123.545 4.59946 102.787 7.97986 93.4095 17.8179L18.1967 96.7255Z" fill="#E3EA9F"/>
<path d="M16.9835 97.998C7.60617 107.836 13.1523 120.415 29.3671 126.086L159.422 171.567C175.637 177.237 196.395 173.857 205.772 164.019L280.985 85.1113C290.363 75.2733 284.816 62.694 268.602 57.0235L138.547 11.5424C122.332 5.87193 101.574 9.25232 92.1964 19.0903L16.9835 97.998Z" fill="#C7D640"/>
<mask id="mask0_339_4562" style="mask-type:luminance" maskUnits="userSpaceOnUse" x="12" y="8" width="274" height="167">
<path d="M16.9835 97.998C7.60617 107.836 13.1523 120.415 29.3671 126.086L159.422 171.567C175.637 177.237 196.395 173.857 205.772 164.019L280.985 85.1113C290.363 75.2733 284.816 62.694 268.602 57.0235L138.547 11.5424C122.332 5.87193 101.574 9.25232 92.1964 19.0903L16.9835 97.998Z" fill="white"/>
</mask>
<g mask="url(#mask0_339_4562)">
<path d="M256.157 190.209L205.42 75.1288L200.366 74.5325L195.466 63.4177L141.108 57.2711L145.826 67.9318L132.462 66.3127L135.39 72.9535L124.386 74.7562L127.691 82.2924L115.507 84.2764L128.501 113.749L106.132 117.38L146.131 208.104L256.157 190.209Z" fill="#A9B91D"/>
</g>
<path d="M143.328 59.1679C143.685 59.2926 144.09 59.3664 144.483 59.4529L189.62 66.6173C192.153 67.0111 194.698 66.1022 195.36 64.5859C196.025 63.0368 194.539 61.5157 192.029 61.0964L146.892 53.932C144.359 53.5382 141.815 54.4472 141.128 55.9889C140.613 57.234 141.545 58.5444 143.328 59.1679ZM134.703 68.2168C135.08 68.3489 135.461 68.4481 135.9 68.5165L199.631 78.2975C202.143 78.684 204.688 77.775 205.329 76.2514C205.97 74.7278 204.42 73.1847 201.932 72.7727L138.201 62.9918C135.689 62.6053 133.144 63.5142 132.479 65.0633C131.972 66.3285 132.92 67.5933 134.703 68.2168ZM184.888 90.6542L121.181 80.8478C118.644 80.4868 116.1 81.3957 115.459 82.9193C114.907 84.2027 115.888 85.4621 117.671 86.0856C118.048 86.2177 118.429 86.3169 118.867 86.3853L127.878 87.7886C127.629 87.7863 127.388 87.8039 127.136 87.8343C124.608 88.1384 122.969 89.6524 123.476 91.2042L125.188 96.2151L123.114 98.3914L117.996 96.6015L108.424 106.643C101.971 113.414 105.792 122.081 116.951 125.984C128.132 129.893 142.425 127.544 148.867 120.786L158.439 110.745L151.831 108.434L153.735 106.436C155.984 105.661 163.808 103.849 170.336 102.518C172.787 102 174.132 100.383 173.282 98.8983C172.453 97.4206 169.809 96.6147 167.337 97.1248C147.974 101.095 146.846 102.279 146.033 103.131L143.692 105.588L131.232 101.23L134.204 98.1122C134.774 97.514 134.988 96.7911 134.729 96.1237L132.677 90.0607C132.401 89.2346 131.598 88.5805 130.487 88.1917L182.575 96.1917C185.087 96.5782 187.656 95.6438 188.297 94.1202C188.95 92.5838 187.4 91.0407 184.888 90.6542ZM193.829 81.2744L130.122 71.468C127.609 71.0815 125.041 72.0159 124.399 73.5395C123.872 74.7974 124.828 76.0823 126.611 76.7058C126.989 76.8378 127.37 76.9371 127.808 77.0055L191.515 86.8119C194.028 87.1984 196.596 86.264 197.238 84.7403C197.879 83.2167 196.341 81.6609 193.829 81.2744Z" fill="#FFFFF5"/>
</svg>
