<svg width="295" height="121" viewBox="0 0 295 121" fill="none" xmlns="http://www.w3.org/2000/svg">
<path d="M18.6499 94.484C9.03901 104.094 14.4618 116.295 30.7583 121.726L161.467 165.292C177.763 170.724 198.777 167.335 208.388 157.725L285.474 80.6456C295.085 71.0355 289.662 58.8348 273.366 53.4032L142.657 9.83743C126.361 4.40576 105.346 7.79493 95.7356 17.4049L18.6499 94.484Z" fill="#04D758"/>
<path d="M17.4065 95.7272C7.7956 105.337 13.2184 117.538 29.5148 122.97L160.223 166.535C176.52 171.967 197.534 168.578 207.145 158.968L284.231 81.8887C293.841 72.2787 288.419 60.078 272.122 54.6463L141.414 11.0806C125.117 5.64893 104.103 9.03809 94.4922 18.6481L17.4065 95.7272Z" fill="#04D758"/>
<mask id="mask0_346_4832" style="mask-type:luminance" maskUnits="userSpaceOnUse" x="12" y="8" width="277" height="162">
<path d="M17.4065 95.7272C7.7956 105.337 13.2184 117.538 29.5148 122.97L160.223 166.535C176.52 171.967 197.534 168.578 207.145 158.968L284.231 81.8887C293.841 72.2787 288.419 60.078 272.122 54.6463L141.414 11.0806C125.117 5.64893 104.103 9.03809 94.4922 18.6481L17.4065 95.7272Z" fill="white"/>
</mask>
<g mask="url(#mask0_346_4832)">
<path d="M220.692 79.3427C220.692 79.3427 191.898 73.3095 165.335 72.9431L156.557 53.1924C156.557 53.1924 141.642 56.5259 125.466 63.5663C109.289 70.6067 99.9153 88.4678 99.9153 88.4678L103.496 96.5238C97.2588 102.451 93.6721 107.19 93.6721 107.19L145.677 225.77L272.697 197.923L220.692 79.3427Z" fill="#00A642"/>
</g>
<path d="M157.035 68.0048C158.363 60.0434 156.557 53.1923 156.557 53.1923C156.557 53.1923 125.399 56.1842 108.1 68.9006C99.5877 75.1637 98.6551 82.5608 99.9156 88.4676C108.027 80.7781 120.78 72.8615 140.352 69.7048C145.949 68.8021 151.535 68.2767 157.035 68.0048ZM220.692 79.3426C220.692 79.3426 180.639 67.1696 142.008 73.3895C103.386 79.629 93.6724 107.19 93.6724 107.19C93.6724 107.19 130.554 117.924 163.746 111.831C196.937 105.738 220.692 79.3426 220.692 79.3426ZM155.95 92.7559C159.393 93.1078 162.787 93.5926 166.09 94.1964C169.394 94.8001 172.64 95.5174 175.804 96.373C178.955 97.2411 182.062 98.2103 184.984 99.5324C181.266 99.6524 177.745 99.407 174.289 99.0676C170.847 98.7157 167.452 98.2309 164.137 97.6395C160.833 97.0358 157.587 96.3185 154.411 95.4753C152.3 94.8878 150.205 94.2559 148.189 93.5176L129.022 97.8705C130.555 97.9672 132.064 98.0888 133.582 98.2299C137.567 98.6299 141.478 99.1877 145.274 99.8893C149.103 100.585 152.829 101.413 156.503 102.405C160.143 103.403 163.735 104.534 167.096 106.035C162.807 106.164 158.752 105.89 154.755 105.503C150.77 105.103 146.858 104.545 143.05 103.856C139.221 103.159 135.495 102.332 131.808 101.352C129.23 100.642 126.68 99.8747 124.216 98.9375C117.171 100.501 110.101 102.09 102.539 103.664C105.125 101.36 108.421 99.4413 111.865 97.6554C115.331 95.8765 119.047 94.2971 122.899 92.8625C123.425 92.6734 123.948 92.5161 124.462 92.3393C124.914 90.5669 125.588 88.8524 126.448 87.1497C127.328 85.4541 128.381 83.7828 129.649 82.1499C130.971 80.5186 132.432 78.917 134.474 77.4095C134.776 79.3002 134.518 81.1039 134.088 82.8833C133.636 84.6557 132.949 86.3827 132.09 88.0854C131.717 88.8232 131.282 89.5399 130.833 90.2691C135.981 88.7194 141.309 87.4118 146.782 86.3518C146.963 85.1027 147.274 83.8638 147.703 82.6476C148.226 81.1974 148.934 79.7591 149.835 78.3521C150.757 76.9521 151.822 75.55 153.371 74.2262C153.887 75.7905 153.86 77.3067 153.737 78.8072C153.571 80.2936 153.221 81.7682 152.686 83.2308C152.41 83.9843 152.092 84.7238 151.72 85.4616C157.827 84.414 163.962 83.5081 170.191 82.8162C170.362 82.1108 170.567 81.4 170.857 80.7173C171.3 79.6552 171.85 78.6282 172.617 77.6077C173.351 76.5926 174.216 75.5877 175.467 74.6456C175.822 75.8083 175.811 76.9153 175.67 78.012C175.529 79.1087 175.216 80.1811 174.784 81.2308C174.617 81.6227 174.42 81.9881 174.232 82.3729C182.933 81.5432 191.851 81.0016 200.713 81.5847C192.248 83.4712 184.125 85.4382 175.929 87.2814L174.083 87.6939C174.268 87.7057 174.44 87.7301 174.604 87.7349C177.332 88.0144 179.995 88.3879 182.612 88.8624C185.23 89.337 187.781 89.9056 190.288 90.5753C192.769 91.2699 195.244 92.0282 197.532 93.0563C194.607 93.1423 191.813 92.9569 189.093 92.6969C186.365 92.4174 183.703 92.044 181.086 91.5694C178.468 91.0948 175.917 90.5262 173.41 89.8565C172.116 89.4916 170.835 89.1144 169.57 88.6928L152.559 92.5208C153.781 92.5635 154.865 92.6597 155.95 92.7559Z" fill="#FFFFF5"/>
</svg>
