<svg width="294" height="126" viewBox="0 0 294 126" fill="none" xmlns="http://www.w3.org/2000/svg">
<g clip-path="url(#clip0_341_4720)">
<path d="M18.2325 95.9913C8.83666 105.755 14.3283 118.216 30.4945 123.815L160.159 168.727C176.325 174.327 197.059 170.949 206.455 161.186L281.816 82.8773C291.212 73.114 285.72 60.6528 269.554 55.0533L139.89 10.1414C123.723 4.5419 102.989 7.91929 93.5936 17.6826L18.2325 95.9913Z" fill="#50FF96"/>
<path d="M17.0169 97.2545C7.62108 107.018 13.1127 119.479 29.2789 125.079L158.943 169.99C175.109 175.59 195.843 172.213 205.239 162.449L280.6 84.1405C289.996 74.3772 284.504 61.916 268.338 56.3165L138.674 11.4046C122.508 5.80508 101.774 9.18247 92.378 18.9458L17.0169 97.2545Z" fill="#50FF96"/>
<mask id="mask0_341_4720" style="mask-type:luminance" maskUnits="userSpaceOnUse" x="12" y="8" width="274" height="165">
<path d="M17.0169 97.2545C7.62108 107.018 13.1127 119.479 29.2789 125.079L158.943 169.99C175.109 175.59 195.843 172.213 205.239 162.449L280.6 84.1405C289.996 74.3772 284.504 61.916 268.338 56.3165L138.674 11.4046C122.508 5.80508 101.774 9.18247 92.378 18.9458L17.0169 97.2545Z" fill="white"/>
</mask>
<g mask="url(#mask0_341_4720)">
<path d="M267.777 212.874L212.052 86.4664L207.984 87.1289L200.837 70.9114L96.8125 70.1444L117.532 117.2L104.151 119.368L153.462 231.261L267.777 212.874Z" fill="#17DE66"/>
</g>
<path d="M205.147 96.6549C207.661 95.9259 209.735 94.8424 211.109 93.4152C215.545 88.8051 211.29 82.2453 201.573 77.9703C203.677 70.8006 196.947 62.7268 184.106 58.2791C174.025 54.7876 162.614 54.3885 153.658 56.6248C151.91 55.312 149.662 54.1125 146.944 53.1708C137.679 49.9618 126.759 50.8779 122.565 55.2354C122.14 55.6774 121.831 56.1431 121.564 56.6232C111.783 55.6604 102.595 57.5299 98.3769 61.9126C92.4452 68.0763 98.5399 76.8393 111.966 81.4899C115.605 82.7503 119.4 83.5594 123.127 83.9748L130.651 101.047L104.634 118.374C103.727 118.969 103.945 119.786 105.095 120.184L130.944 129.138C132.095 129.536 133.382 129.241 133.788 128.472L142.351 112.678L169.302 108.288C171.286 109.413 173.563 110.437 176.115 111.321C188.914 115.754 203.553 114.914 208.804 109.457C212.411 105.739 210.704 100.819 205.147 96.6549ZM130.777 84.2836C132.377 84.2147 133.942 84.0663 135.43 83.8239C136.707 86.6407 139.897 89.4971 144.565 91.8042L136.47 97.2019L130.777 84.2836ZM145.033 107.746L152.124 94.6414C155.009 95.4388 157.955 95.9708 160.799 96.2317C160.043 98.9003 161.315 101.867 164.213 104.622L145.033 107.746Z" fill="#FFFFF5"/>
</g>
<defs>
<clipPath id="clip0_341_4720">
<rect width="199.193" height="159.516" fill="white" transform="matrix(0.944923 0.327294 -0.693416 0.720538 110.611 0)"/>
</clipPath>
</defs>
</svg>
