<svg width="295" height="125" viewBox="0 0 295 125" fill="none" xmlns="http://www.w3.org/2000/svg">
<path d="M17.6499 94.484C8.03901 104.094 13.4618 116.295 29.7583 121.726L160.467 165.292C176.763 170.724 197.777 167.335 207.388 157.725L284.474 80.6456C294.085 71.0355 288.662 58.8348 272.366 53.4032L141.657 9.83743C125.361 4.40576 104.346 7.79493 94.7356 17.4049L17.6499 94.484Z" fill="#B6D796"/>
<path d="M16.4065 95.7272C6.7956 105.337 12.2184 117.538 28.5148 122.97L159.223 166.535C175.52 171.967 196.534 168.578 206.145 158.968L283.231 81.8887C292.841 72.2787 287.419 60.078 271.122 54.6463L140.414 11.0806C124.117 5.64893 103.103 9.03809 93.4922 18.6481L16.4065 95.7272Z" fill="#6EB02E"/>
<mask id="mask0_346_4853" style="mask-type:luminance" maskUnits="userSpaceOnUse" x="11" y="8" width="277" height="162">
<path d="M16.4065 95.7272C6.7956 105.337 12.2184 117.538 28.5148 122.97L159.223 166.535C175.52 171.967 196.534 168.578 206.145 158.968L283.231 81.8887C292.841 72.2787 287.419 60.078 271.122 54.6463L140.414 11.0806C124.117 5.64893 103.103 9.03809 93.4922 18.6481L16.4065 95.7272Z" fill="white"/>
</mask>
<g mask="url(#mask0_346_4853)">
<path d="M290.627 195.381L235.491 71.331L219.689 73.6396C219.689 73.6396 208.638 74.5148 201.377 71.7133C192.525 68.2821 177.292 61.0002 157.312 63.2424C137.333 65.4846 125.524 79.4842 125.524 79.4842L128.145 85.3802L117.85 95.674L67.8084 105.715L119.883 222.877L290.627 195.381Z" fill="#5A8E30"/>
</g>
<path d="M185.123 94.1771L172.495 91.9074L162.822 101.58L149.449 98.4814L158.736 89.1946L146.108 86.925L137.343 95.6896L123.969 92.5914L132.337 84.2246L119.709 81.955L111.863 89.7997L87.1118 84.0529L68.4993 102.664C66.5597 104.603 67.6581 107.074 70.9469 108.171L148.508 134.022C151.796 135.118 156.053 134.432 157.993 132.492L184.015 106.472L174.928 104.371L185.123 94.1771ZM125.764 109.6L116.066 106.368L124.098 98.3366L133.796 101.569L125.764 109.6ZM142.335 115.123L132.637 111.891L140.669 103.86L150.366 107.092L142.335 115.123ZM166.937 112.615L158.905 120.646L149.207 117.414L157.239 109.383L166.937 112.615ZM235.481 71.2284C235.314 70.9738 234.813 70.8565 234.373 70.9587L234.34 70.964C229.572 72.077 224.422 72.8138 219.308 73.0651C214.198 73.2846 208.945 72.943 204.514 71.7809C202.445 71.2074 200.522 70.235 198.533 69.2735C196.555 68.2994 194.493 67.2973 192.278 66.393C190.049 65.5012 187.655 64.7195 185.19 64.0639C182.701 63.4331 180.112 62.9018 177.475 62.5035C172.272 61.7473 166.636 61.3111 161.105 61.7549C155.598 62.1738 150.218 63.2814 145.525 64.9662C136.043 68.3202 129.257 73.7 125.537 79.4718L125.657 79.661L126.026 79.6015C131.09 74.2281 138.39 69.5996 147.321 66.8245C151.787 65.4786 156.628 64.5727 161.545 64.3218C166.454 64.0515 171.362 64.4277 176.221 65.2185C181.054 65.9509 185.657 67.0541 189.929 68.5443C192.101 69.268 194.181 70.1107 196.325 70.9745C198.469 71.8382 200.648 72.7798 203.393 73.3798C208.717 74.4084 214.183 74.4235 219.472 74.0813C222.132 73.9234 224.752 73.6364 227.329 73.2521C228.854 73.0478 230.342 72.7975 231.82 72.5278C229.575 73.9013 227.174 75.2061 224.683 76.4315C221.355 78.0736 217.868 79.5639 214.187 80.8563C206.894 83.3984 198.75 85.3583 190.84 84.9762C188.932 84.8876 186.905 84.6098 184.903 84.3071C182.913 83.992 180.964 83.6077 179.044 83.1666C175.229 82.2596 171.608 81.1024 168.048 79.7997C164.5 78.4846 160.959 77.0225 156.958 75.7388C154.951 75.1031 152.786 74.514 150.443 74.1308C150.367 74.1221 150.27 74.1064 150.194 74.0978C151.692 73.6686 153.282 73.287 154.916 73.0027C158.74 72.3546 162.787 72.0459 166.819 72.1464C170.863 72.2345 174.854 72.7691 178.702 73.5874C182.562 74.3933 186.213 75.5771 189.702 76.9224L190.034 76.9003L190.027 76.6824C186.949 75.0101 183.416 73.5674 179.573 72.4356C175.729 71.3037 171.5 70.5573 167.147 70.2168C162.793 69.8762 158.256 69.9719 153.868 70.5649C151.685 70.8649 149.511 71.2676 147.407 71.826C145.299 72.4162 143.275 73.0346 141.317 74.2054C140.879 74.474 140.594 74.8432 140.591 75.24C140.618 76.0281 141.739 76.6502 143.078 76.6324L143.254 76.6248C147.032 76.5577 150.619 77.3555 154.148 78.5485C157.665 79.7538 161.144 81.2781 164.906 82.6315C168.644 84.0098 172.682 85.2563 176.959 86.1514C179.097 86.5989 181.264 86.9897 183.498 87.2865C185.688 87.5691 187.934 87.8534 190.37 87.9194C195.162 88.0745 199.89 87.4788 204.18 86.5053C208.483 85.5194 212.437 84.1518 216.073 82.5957C223.38 79.4779 229.607 75.752 235.286 71.7602C235.523 71.6073 235.58 71.4105 235.481 71.2284Z" fill="#FFFFF5"/>
</svg>
