<svg width="31" height="49" viewBox="0 0 31 49" fill="none" xmlns="http://www.w3.org/2000/svg">
<path d="M15.5003 0.166672C7.11445 0.166672 0.291992 6.98913 0.291992 15.375H6.37533C6.37533 10.3441 10.4694 6.25 15.5003 6.25C20.5312 6.25 24.6253 10.3441 24.6253 15.375C24.6253 18.6265 23.2444 19.831 20.1206 22.234C18.9587 23.1282 17.6477 24.138 16.3915 25.3912C12.4009 29.3788 12.4435 33.3117 12.4587 33.625V39.7083H18.542V33.5976C18.542 33.5246 18.6119 31.7696 20.6924 29.6921C21.6658 28.7188 22.7669 27.8732 23.8284 27.055C27.0526 24.573 30.7087 21.7625 30.7087 15.375C30.7087 6.98913 23.8862 0.166672 15.5003 0.166672ZM12.4587 42.75H18.542V48.8333H12.4587V42.75Z" fill="#2fff2d"/>
</svg>
