<svg width="15" height="15" viewBox="0 0 15 15" fill="none" xmlns="http://www.w3.org/2000/svg">
<path d="M13.1562 14.5317L9.53542 11.163C9.07708 11.5297 8.55 11.8199 7.95417 12.0338C7.35833 12.2477 6.72431 12.3547 6.05208 12.3547C4.38681 12.3547 2.97758 11.7778 1.82442 10.624C0.67125 9.47021 0.0943611 8.06099 0.09375 6.39632C0.09375 4.73104 0.670639 3.32182 1.82442 2.16866C2.97819 1.01549 4.38742 0.438599 6.05208 0.437988C7.71736 0.437988 9.12658 1.01488 10.2798 2.16866C11.4329 3.32243 12.0098 4.73166 12.0104 6.39632C12.0104 7.06854 11.9035 7.70257 11.6896 8.29841C11.4757 8.89424 11.1854 9.42132 10.8188 9.87965L14.1875 13.5005L13.8438 13.8442L13.1562 14.5317ZM6.05208 10.5213C7.19792 10.5213 8.17203 10.1201 8.97442 9.31774C9.77681 8.51535 10.1777 7.54154 10.1771 6.39632C10.1771 5.25049 9.77589 4.27638 8.9735 3.47399C8.17111 2.6716 7.19731 2.27071 6.05208 2.27132C4.90625 2.27132 3.93214 2.67252 3.12975 3.47491C2.32736 4.27729 1.92647 5.2511 1.92708 6.39632C1.92708 7.54216 2.32828 8.51627 3.13067 9.31866C3.93306 10.121 4.90686 10.5219 6.05208 10.5213Z" fill="#111111"/>
</svg>
